# MagicaVoxel @ Ephtracy

# group
g towar-6

# material
mtllib towar-6.mtl
usemtl palette

# normals
vn -1 0 0
vn 1 0 0
vn 0 0 1
vn 0 0 -1
vn 0 -1 0
vn 0 1 0

# texcoords
vt 0.166016 0.5
vt 0.255859 0.5
vt 0.310547 0.5
vt 0.373047 0.5
vt 0.583984 0.5
vt 0.978516 0.5
vt 0.982422 0.5

# verts
v -8 0 8
v -8 0 -8
v -8 1 8
v -8 1 6
v -8 1 -6
v -8 1 -8
v -8 2 7
v -8 2 6
v -8 2 -6
v -8 2 -7
v -8 7 7
v -8 7 6
v -8 7 -6
v -8 7 -7
v -8 8 8
v -8 8 6
v -8 8 -6
v -8 8 -8
v -6 1 1
v -6 1 -1
v -6 1 -5
v -6 1 -7
v -6 2 -7
v -6 3 1
v -6 3 -1
v -6 3 -5
v -6 3 -7
v -5 1 -2
v -5 1 -4
v -5 2 -2
v -5 2 -4
v -4 2 -5
v -4 2 -6
v -4 3 -5
v -4 3 -6
v -2 1 -5
v -2 1 -7
v -2 2 -3
v -2 2 -4
v -2 3 -3
v -2 3 -4
v -2 3 -5
v -2 3 -7
v 0 2 -0
v 0 2 -1
v 0 2 -5
v 0 2 -6
v 0 3 -0
v 0 3 -1
v 0 3 -5
v 0 3 -6
v 2 4 5
v 2 4 4
v 2 5 5
v 2 5 4
v 2 6 5
v 2 6 4
v 3 1 6
v 3 1 3
v 3 2 6
v 3 2 3
v 3 3 5
v 3 3 4
v 3 4 5
v 3 4 4
v 4 2 5
v 4 2 4
v 4 3 5
v 4 3 4
v 4 4 5
v 4 4 4
v 4 4 3
v 4 5 4
v 4 5 3
v 4 7 5
v 4 7 4
v 4 8 5
v 4 8 4
v 6 1 8
v 6 1 7
v 6 1 -7
v 6 1 -8
v 6 2 8
v 6 2 7
v 6 2 -7
v 6 2 -8
v 6 7 8
v 6 7 7
v 6 7 -7
v 6 7 -8
v 6 8 8
v 6 8 7
v 6 8 -7
v 6 8 -8
v 7 1 7
v 7 1 6
v 7 1 -6
v 7 1 -7
v 7 2 8
v 7 2 7
v 7 2 6
v 7 2 -6
v 7 2 -7
v 7 2 -8
v 7 7 8
v 7 7 7
v 7 7 6
v 7 7 -6
v 7 7 -7
v 7 7 -8
v 7 8 7
v 7 8 6
v 7 8 -6
v 7 8 -7
v -7 1 7
v -7 1 6
v -7 1 -6
v -7 1 -7
v -7 2 8
v -7 2 7
v -7 2 6
v -7 2 -6
v -7 2 -7
v -7 2 -8
v -7 7 8
v -7 7 7
v -7 7 6
v -7 7 -6
v -7 7 -7
v -7 7 -8
v -7 8 7
v -7 8 6
v -7 8 -6
v -7 8 -7
v -6 1 8
v -6 1 7
v -6 1 -7
v -6 1 -8
v -6 2 8
v -6 2 7
v -6 2 -7
v -6 2 -8
v -6 7 8
v -6 7 7
v -6 7 -7
v -6 7 -8
v -6 8 8
v -6 8 7
v -6 8 -7
v -6 8 -8
v -5 2 -0
v -5 2 -1
v -5 2 -5
v -5 2 -6
v -5 3 -0
v -5 3 -1
v -5 3 -5
v -5 3 -6
v -3 1 -5
v -3 1 -7
v -3 3 -5
v -3 3 -7
v -1 2 -3
v -1 2 -4
v -1 2 -5
v -1 2 -6
v -1 3 -3
v -1 3 -4
v -1 3 -5
v -1 3 -6
v 0 1 -2
v 0 1 -4
v 0 2 -2
v 0 2 -4
v 1 1 1
v 1 1 -1
v 1 1 -5
v 1 1 -7
v 1 3 1
v 1 3 -1
v 1 3 -5
v 1 3 -7
v 3 4 5
v 3 4 4
v 3 5 5
v 3 5 4
v 3 6 5
v 3 6 4
v 5 2 5
v 5 2 4
v 5 4 4
v 5 4 3
v 5 5 5
v 5 5 4
v 5 5 3
v 5 6 5
v 5 6 4
v 5 7 5
v 5 7 4
v 5 8 5
v 5 8 4
v 6 1 6
v 6 1 3
v 6 2 6
v 6 2 3
v 7 5 5
v 7 5 4
v 7 6 5
v 7 6 4
v 8 0 8
v 8 0 -8
v 8 1 8
v 8 1 6
v 8 1 -6
v 8 1 -8
v 8 2 7
v 8 2 6
v 8 2 -6
v 8 2 -7
v 8 7 7
v 8 7 6
v 8 7 -6
v 8 7 -7
v 8 8 8
v 8 8 6
v 8 8 -6
v 8 8 -8
v -8 0 8
v -8 1 8
v -8 8 8
v -7 2 8
v -7 7 8
v -6 1 8
v -6 2 8
v -6 7 8
v -6 8 8
v 6 1 8
v 6 2 8
v 6 7 8
v 6 8 8
v 7 2 8
v 7 7 8
v 8 0 8
v 8 1 8
v 8 8 8
v 3 1 6
v 3 2 6
v 6 1 6
v 6 2 6
v 2 4 5
v 2 5 5
v 2 6 5
v 3 3 5
v 3 4 5
v 3 5 5
v 3 6 5
v 4 2 5
v 4 3 5
v 4 4 5
v 4 7 5
v 4 8 5
v 5 2 5
v 5 5 5
v 5 6 5
v 5 7 5
v 5 8 5
v 6 5 5
v 6 6 5
v 7 5 5
v 7 6 5
v -6 1 1
v -6 3 1
v 1 1 1
v 1 3 1
v -5 1 -2
v -5 2 -2
v 0 1 -2
v 0 2 -2
v -2 2 -3
v -2 3 -3
v -1 2 -3
v -1 3 -3
v -6 1 -5
v -6 3 -5
v -5 2 -5
v -5 3 -5
v -4 2 -5
v -4 3 -5
v -3 1 -5
v -3 3 -5
v -2 1 -5
v -2 3 -5
v -1 2 -5
v -1 3 -5
v 0 2 -5
v 0 3 -5
v 1 1 -5
v 1 3 -5
v -8 1 -6
v -8 2 -6
v -8 7 -6
v -8 8 -6
v -7 1 -6
v -7 2 -6
v -7 7 -6
v -7 8 -6
v -5 2 -6
v -5 3 -6
v -4 2 -6
v -4 3 -6
v -1 2 -6
v -1 3 -6
v 0 2 -6
v 0 3 -6
v 7 1 -6
v 7 2 -6
v 7 7 -6
v 7 8 -6
v 8 1 -6
v 8 2 -6
v 8 7 -6
v 8 8 -6
v -8 2 -7
v -8 7 -7
v -7 1 -7
v -7 2 -7
v -7 7 -7
v -7 8 -7
v -6 1 -7
v -6 2 -7
v -6 7 -7
v -6 8 -7
v 6 1 -7
v 6 2 -7
v 6 7 -7
v 6 8 -7
v 7 1 -7
v 7 2 -7
v 7 7 -7
v 7 8 -7
v 8 2 -7
v 8 7 -7
v -8 2 7
v -8 7 7
v -7 1 7
v -7 2 7
v -7 7 7
v -7 8 7
v -6 1 7
v -6 2 7
v -6 7 7
v -6 8 7
v 6 1 7
v 6 2 7
v 6 7 7
v 6 8 7
v 7 1 7
v 7 2 7
v 7 7 7
v 7 8 7
v 8 2 7
v 8 7 7
v -8 1 6
v -8 2 6
v -8 7 6
v -8 8 6
v -7 1 6
v -7 2 6
v -7 7 6
v -7 8 6
v 7 1 6
v 7 2 6
v 7 7 6
v 7 8 6
v 8 1 6
v 8 2 6
v 8 7 6
v 8 8 6
v 2 4 4
v 2 5 4
v 2 6 4
v 3 3 4
v 3 4 4
v 3 5 4
v 3 6 4
v 4 2 4
v 4 3 4
v 4 4 4
v 4 5 4
v 4 7 4
v 4 8 4
v 5 2 4
v 5 4 4
v 5 5 4
v 5 6 4
v 5 7 4
v 5 8 4
v 6 5 4
v 6 6 4
v 7 5 4
v 7 6 4
v 3 1 3
v 3 2 3
v 4 4 3
v 4 5 3
v 5 4 3
v 5 5 3
v 6 1 3
v 6 2 3
v -5 2 -0
v -5 3 -0
v 0 2 -0
v 0 3 -0
v -6 1 -1
v -6 3 -1
v -5 2 -1
v -5 3 -1
v 0 2 -1
v 0 3 -1
v 1 1 -1
v 1 3 -1
v -5 1 -4
v -5 2 -4
v -2 2 -4
v -2 3 -4
v -1 2 -4
v -1 3 -4
v 0 1 -4
v 0 2 -4
v -6 1 -7
v -6 2 -7
v -6 3 -7
v -3 1 -7
v -3 3 -7
v -2 1 -7
v -2 3 -7
v 1 1 -7
v 1 3 -7
v -8 0 -8
v -8 1 -8
v -8 8 -8
v -7 2 -8
v -7 7 -8
v -6 1 -8
v -6 2 -8
v -6 7 -8
v -6 8 -8
v 6 1 -8
v 6 2 -8
v 6 7 -8
v 6 8 -8
v 7 2 -8
v 7 7 -8
v 8 0 -8
v 8 1 -8
v 8 8 -8
v -8 0 8
v 8 0 8
v -8 0 -8
v 8 0 -8
v 3 3 5
v 4 3 5
v 3 3 4
v 4 3 4
v 2 4 5
v 3 4 5
v 2 4 4
v 3 4 4
v 4 4 4
v 5 4 4
v 4 4 3
v 5 4 3
v 5 5 5
v 6 5 5
v 7 5 5
v 5 5 4
v 6 5 4
v 7 5 4
v -7 7 8
v -6 7 8
v 6 7 8
v 7 7 8
v -8 7 7
v -7 7 7
v -6 7 7
v 6 7 7
v 7 7 7
v 8 7 7
v -8 7 6
v -7 7 6
v 7 7 6
v 8 7 6
v -8 7 -6
v -7 7 -6
v 7 7 -6
v 8 7 -6
v -8 7 -7
v -7 7 -7
v -6 7 -7
v 6 7 -7
v 7 7 -7
v 8 7 -7
v -7 7 -8
v -6 7 -8
v 6 7 -8
v 7 7 -8
v -6 1 8
v 6 1 8
v -7 1 7
v -6 1 7
v 6 1 7
v 7 1 7
v -8 1 6
v -7 1 6
v 3 1 6
v 6 1 6
v 7 1 6
v 8 1 6
v 3 1 3
v 6 1 3
v -6 1 1
v 1 1 1
v -6 1 -1
v 1 1 -1
v -5 1 -2
v 0 1 -2
v -5 1 -4
v 0 1 -4
v -6 1 -5
v -3 1 -5
v -2 1 -5
v 1 1 -5
v -8 1 -6
v -7 1 -6
v 7 1 -6
v 8 1 -6
v -7 1 -7
v -6 1 -7
v -3 1 -7
v -2 1 -7
v 1 1 -7
v 6 1 -7
v 7 1 -7
v -6 1 -8
v 6 1 -8
v -7 2 8
v -6 2 8
v 6 2 8
v 7 2 8
v -8 2 7
v -7 2 7
v -6 2 7
v 6 2 7
v 7 2 7
v 8 2 7
v -8 2 6
v -7 2 6
v 3 2 6
v 6 2 6
v 7 2 6
v 8 2 6
v 4 2 5
v 5 2 5
v 4 2 4
v 5 2 4
v 3 2 3
v 6 2 3
v -5 2 -0
v 0 2 -0
v -5 2 -1
v 0 2 -1
v -5 2 -2
v 0 2 -2
v -2 2 -3
v -1 2 -3
v -5 2 -4
v -2 2 -4
v -1 2 -4
v 0 2 -4
v -5 2 -5
v -4 2 -5
v -1 2 -5
v 0 2 -5
v -8 2 -6
v -7 2 -6
v -5 2 -6
v -4 2 -6
v -1 2 -6
v 0 2 -6
v 7 2 -6
v 8 2 -6
v -8 2 -7
v -7 2 -7
v -6 2 -7
v 6 2 -7
v 7 2 -7
v 8 2 -7
v -7 2 -8
v -6 2 -8
v 6 2 -8
v 7 2 -8
v -6 3 1
v 1 3 1
v -5 3 -0
v 0 3 -0
v -6 3 -1
v -5 3 -1
v 0 3 -1
v 1 3 -1
v -2 3 -3
v -1 3 -3
v -2 3 -4
v -1 3 -4
v -6 3 -5
v -5 3 -5
v -4 3 -5
v -3 3 -5
v -2 3 -5
v -1 3 -5
v 0 3 -5
v 1 3 -5
v -5 3 -6
v -4 3 -6
v -1 3 -6
v 0 3 -6
v -6 3 -7
v -3 3 -7
v -2 3 -7
v 1 3 -7
v 3 4 5
v 4 4 5
v 3 4 4
v 4 4 4
v 4 5 4
v 5 5 4
v 4 5 3
v 5 5 3
v 2 6 5
v 3 6 5
v 5 6 5
v 6 6 5
v 7 6 5
v 2 6 4
v 3 6 4
v 5 6 4
v 6 6 4
v 7 6 4
v -8 8 8
v -6 8 8
v 6 8 8
v 8 8 8
v -7 8 7
v -6 8 7
v 6 8 7
v 7 8 7
v -8 8 6
v -7 8 6
v 7 8 6
v 8 8 6
v 4 8 5
v 5 8 5
v 4 8 4
v 5 8 4
v -8 8 -6
v -7 8 -6
v 7 8 -6
v 8 8 -6
v -7 8 -7
v -6 8 -7
v 6 8 -7
v 7 8 -7
v -8 8 -8
v -6 8 -8
v 6 8 -8
v 8 8 -8

# faces
f 3/2/1 2/2/1 1/2/1
f 4/2/1 2/2/1 3/2/1
f 5/2/1 2/2/1 4/2/1
f 6/2/1 2/2/1 5/2/1
f 7/6/1 4/6/1 3/6/1
f 8/6/1 4/6/1 7/6/1
f 9/6/1 6/6/1 5/6/1
f 10/6/1 6/6/1 9/6/1
f 11/6/1 7/6/1 3/6/1
f 14/6/1 6/6/1 10/6/1
f 15/6/1 12/6/1 11/6/1
f 15/6/1 11/6/1 3/6/1
f 16/6/1 12/6/1 15/6/1
f 17/6/1 14/6/1 13/6/1
f 18/6/1 6/6/1 14/6/1
f 18/6/1 14/6/1 17/6/1
f 23/1/1 22/1/1 21/1/1
f 24/1/1 20/1/1 19/1/1
f 25/1/1 20/1/1 24/1/1
f 26/1/1 23/1/1 21/1/1
f 27/1/1 23/1/1 26/1/1
f 30/3/1 29/3/1 28/3/1
f 31/3/1 29/3/1 30/3/1
f 34/1/1 33/1/1 32/1/1
f 35/1/1 33/1/1 34/1/1
f 40/4/1 39/4/1 38/4/1
f 41/4/1 39/4/1 40/4/1
f 42/1/1 37/1/1 36/1/1
f 43/1/1 37/1/1 42/1/1
f 48/1/1 45/1/1 44/1/1
f 49/1/1 45/1/1 48/1/1
f 50/1/1 47/1/1 46/1/1
f 51/1/1 47/1/1 50/1/1
f 54/5/1 53/5/1 52/5/1
f 55/5/1 53/5/1 54/5/1
f 56/4/1 55/4/1 54/4/1
f 57/4/1 55/4/1 56/4/1
f 60/7/1 59/7/1 58/7/1
f 61/7/1 59/7/1 60/7/1
f 64/5/1 63/5/1 62/5/1
f 65/5/1 63/5/1 64/5/1
f 68/5/1 67/5/1 66/5/1
f 69/5/1 67/5/1 68/5/1
f 73/5/1 71/5/1 70/5/1
f 73/4/1 72/4/1 71/4/1
f 74/4/1 72/4/1 73/4/1
f 75/5/1 73/5/1 70/5/1
f 76/5/1 73/5/1 75/5/1
f 77/4/1 76/4/1 75/4/1
f 78/4/1 76/4/1 77/4/1
f 83/6/1 80/6/1 79/6/1
f 84/6/1 80/6/1 83/6/1
f 85/6/1 82/6/1 81/6/1
f 86/6/1 82/6/1 85/6/1
f 91/6/1 88/6/1 87/6/1
f 92/6/1 88/6/1 91/6/1
f 93/6/1 90/6/1 89/6/1
f 94/6/1 90/6/1 93/6/1
f 100/6/1 96/6/1 95/6/1
f 101/6/1 96/6/1 100/6/1
f 102/6/1 98/6/1 97/6/1
f 103/6/1 98/6/1 102/6/1
f 105/6/1 100/6/1 99/6/1
f 106/6/1 100/6/1 105/6/1
f 109/6/1 104/6/1 103/6/1
f 110/6/1 104/6/1 109/6/1
f 111/6/1 107/6/1 106/6/1
f 112/6/1 107/6/1 111/6/1
f 113/6/1 109/6/1 108/6/1
f 114/6/1 109/6/1 113/6/1
f 115/6/2 116/6/2 120/6/2
f 120/6/2 116/6/2 121/6/2
f 117/6/2 118/6/2 122/6/2
f 122/6/2 118/6/2 123/6/2
f 119/6/2 120/6/2 125/6/2
f 125/6/2 120/6/2 126/6/2
f 123/6/2 124/6/2 129/6/2
f 129/6/2 124/6/2 130/6/2
f 126/6/2 127/6/2 131/6/2
f 131/6/2 127/6/2 132/6/2
f 128/6/2 129/6/2 133/6/2
f 133/6/2 129/6/2 134/6/2
f 135/6/2 136/6/2 139/6/2
f 139/6/2 136/6/2 140/6/2
f 137/6/2 138/6/2 141/6/2
f 141/6/2 138/6/2 142/6/2
f 143/6/2 144/6/2 147/6/2
f 147/6/2 144/6/2 148/6/2
f 145/6/2 146/6/2 149/6/2
f 149/6/2 146/6/2 150/6/2
f 151/1/2 152/1/2 155/1/2
f 155/1/2 152/1/2 156/1/2
f 153/1/2 154/1/2 157/1/2
f 157/1/2 154/1/2 158/1/2
f 159/1/2 160/1/2 161/1/2
f 161/1/2 160/1/2 162/1/2
f 163/4/2 164/4/2 167/4/2
f 167/4/2 164/4/2 168/4/2
f 165/1/2 166/1/2 169/1/2
f 169/1/2 166/1/2 170/1/2
f 171/3/2 172/3/2 173/3/2
f 173/3/2 172/3/2 174/3/2
f 175/1/2 176/1/2 179/1/2
f 179/1/2 176/1/2 180/1/2
f 177/1/2 178/1/2 181/1/2
f 181/1/2 178/1/2 182/1/2
f 183/5/2 184/5/2 185/5/2
f 185/5/2 184/5/2 186/5/2
f 185/4/2 186/4/2 187/4/2
f 187/4/2 186/4/2 188/4/2
f 189/5/2 190/5/2 191/5/2
f 189/5/2 191/5/2 193/5/2
f 191/4/2 192/4/2 194/4/2
f 193/5/2 191/5/2 194/5/2
f 194/4/2 192/4/2 195/4/2
f 196/5/2 197/5/2 198/5/2
f 198/5/2 197/5/2 199/5/2
f 198/4/2 199/4/2 200/4/2
f 200/4/2 199/4/2 201/4/2
f 202/7/2 203/7/2 204/7/2
f 204/7/2 203/7/2 205/7/2
f 206/4/2 207/4/2 208/4/2
f 208/4/2 207/4/2 209/4/2
f 210/2/2 211/2/2 212/2/2
f 212/2/2 211/2/2 213/2/2
f 213/2/2 211/2/2 214/2/2
f 214/2/2 211/2/2 215/2/2
f 212/6/2 213/6/2 216/6/2
f 216/6/2 213/6/2 217/6/2
f 214/6/2 215/6/2 218/6/2
f 218/6/2 215/6/2 219/6/2
f 212/6/2 216/6/2 220/6/2
f 219/6/2 215/6/2 223/6/2
f 220/6/2 221/6/2 224/6/2
f 212/6/2 220/6/2 224/6/2
f 224/6/2 221/6/2 225/6/2
f 222/6/2 223/6/2 226/6/2
f 223/6/2 215/6/2 227/6/2
f 226/6/2 223/6/2 227/6/2
f 231/6/3 230/6/3 229/6/3
f 232/6/3 230/6/3 231/6/3
f 233/2/3 229/2/3 228/2/3
f 233/6/3 231/6/3 229/6/3
f 234/6/3 231/6/3 233/6/3
f 235/6/3 230/6/3 232/6/3
f 236/6/3 230/6/3 235/6/3
f 237/2/3 233/2/3 228/2/3
f 241/6/3 238/6/3 237/6/3
f 242/6/3 240/6/3 239/6/3
f 243/2/3 237/2/3 228/2/3
f 244/6/3 242/6/3 241/6/3
f 244/2/3 237/2/3 243/2/3
f 244/6/3 241/6/3 237/6/3
f 245/6/3 240/6/3 242/6/3
f 245/6/3 242/6/3 244/6/3
f 248/7/3 247/7/3 246/7/3
f 249/7/3 247/7/3 248/7/3
f 254/5/3 251/5/3 250/5/3
f 255/4/3 252/4/3 251/4/3
f 255/5/3 251/5/3 254/5/3
f 256/4/3 252/4/3 255/4/3
f 258/5/3 254/5/3 253/5/3
f 259/5/3 254/5/3 258/5/3
f 262/5/3 259/5/3 258/5/3
f 262/5/3 258/5/3 257/5/3
f 262/5/3 260/5/3 259/5/3
f 263/5/3 260/5/3 262/5/3
f 264/5/3 260/5/3 263/5/3
f 265/4/3 261/4/3 260/4/3
f 265/5/3 260/5/3 264/5/3
f 266/4/3 261/4/3 265/4/3
f 267/5/3 264/5/3 263/5/3
f 268/5/3 264/5/3 267/5/3
f 269/4/3 268/4/3 267/4/3
f 270/4/3 268/4/3 269/4/3
f 273/1/3 272/1/3 271/1/3
f 274/1/3 272/1/3 273/1/3
f 277/3/3 276/3/3 275/3/3
f 278/3/3 276/3/3 277/3/3
f 281/4/3 280/4/3 279/4/3
f 282/4/3 280/4/3 281/4/3
f 285/1/3 284/1/3 283/1/3
f 286/1/3 284/1/3 285/1/3
f 287/1/3 285/1/3 283/1/3
f 289/1/3 287/1/3 283/1/3
f 289/1/3 288/1/3 287/1/3
f 290/1/3 288/1/3 289/1/3
f 293/1/3 292/1/3 291/1/3
f 294/1/3 292/1/3 293/1/3
f 295/1/3 293/1/3 291/1/3
f 297/1/3 295/1/3 291/1/3
f 297/1/3 296/1/3 295/1/3
f 298/1/3 296/1/3 297/1/3
f 303/6/3 300/6/3 299/6/3
f 304/6/3 300/6/3 303/6/3
f 305/6/3 302/6/3 301/6/3
f 306/6/3 302/6/3 305/6/3
f 309/1/3 308/1/3 307/1/3
f 310/1/3 308/1/3 309/1/3
f 313/1/3 312/1/3 311/1/3
f 314/1/3 312/1/3 313/1/3
f 319/6/3 316/6/3 315/6/3
f 320/6/3 316/6/3 319/6/3
f 321/6/3 318/6/3 317/6/3
f 322/6/3 318/6/3 321/6/3
f 326/6/3 324/6/3 323/6/3
f 327/6/3 324/6/3 326/6/3
f 329/6/3 326/6/3 325/6/3
f 330/6/3 326/6/3 329/6/3
f 331/6/3 328/6/3 327/6/3
f 332/6/3 328/6/3 331/6/3
f 337/6/3 334/6/3 333/6/3
f 338/6/3 334/6/3 337/6/3
f 339/6/3 336/6/3 335/6/3
f 340/6/3 336/6/3 339/6/3
f 341/6/3 339/6/3 338/6/3
f 342/6/3 339/6/3 341/6/3
f 343/6/4 344/6/4 346/6/4
f 346/6/4 344/6/4 347/6/4
f 345/6/4 346/6/4 349/6/4
f 349/6/4 346/6/4 350/6/4
f 347/6/4 348/6/4 351/6/4
f 351/6/4 348/6/4 352/6/4
f 353/6/4 354/6/4 357/6/4
f 357/6/4 354/6/4 358/6/4
f 355/6/4 356/6/4 359/6/4
f 359/6/4 356/6/4 360/6/4
f 358/6/4 359/6/4 361/6/4
f 361/6/4 359/6/4 362/6/4
f 363/6/4 364/6/4 367/6/4
f 367/6/4 364/6/4 368/6/4
f 365/6/4 366/6/4 369/6/4
f 369/6/4 366/6/4 370/6/4
f 371/6/4 372/6/4 375/6/4
f 375/6/4 372/6/4 376/6/4
f 373/6/4 374/6/4 377/6/4
f 377/6/4 374/6/4 378/6/4
f 379/5/4 380/5/4 383/5/4
f 380/4/4 381/4/4 384/4/4
f 383/5/4 380/5/4 384/5/4
f 384/4/4 381/4/4 385/4/4
f 382/5/4 383/5/4 387/5/4
f 387/5/4 383/5/4 388/5/4
f 387/5/4 388/5/4 392/5/4
f 386/5/4 387/5/4 392/5/4
f 392/5/4 388/5/4 393/5/4
f 389/5/4 390/5/4 394/5/4
f 394/5/4 390/5/4 395/5/4
f 390/4/4 391/4/4 396/4/4
f 395/5/4 390/5/4 396/5/4
f 396/4/4 391/4/4 397/4/4
f 394/5/4 395/5/4 398/5/4
f 398/5/4 395/5/4 399/5/4
f 398/4/4 399/4/4 400/4/4
f 400/4/4 399/4/4 401/4/4
f 404/4/4 405/4/4 406/4/4
f 406/4/4 405/4/4 407/4/4
f 402/7/4 403/7/4 408/7/4
f 408/7/4 403/7/4 409/7/4
f 410/1/4 411/1/4 412/1/4
f 412/1/4 411/1/4 413/1/4
f 414/1/4 415/1/4 416/1/4
f 416/1/4 415/1/4 417/1/4
f 414/1/4 416/1/4 418/1/4
f 414/1/4 418/1/4 420/1/4
f 418/1/4 419/1/4 420/1/4
f 420/1/4 419/1/4 421/1/4
f 422/3/4 423/3/4 424/3/4
f 422/3/4 424/3/4 426/3/4
f 424/4/4 425/4/4 426/4/4
f 426/4/4 425/4/4 427/4/4
f 422/3/4 426/3/4 428/3/4
f 428/3/4 426/3/4 429/3/4
f 430/1/4 431/1/4 433/1/4
f 431/1/4 432/1/4 433/1/4
f 433/1/4 432/1/4 434/1/4
f 435/1/4 436/1/4 437/1/4
f 437/1/4 436/1/4 438/1/4
f 440/6/4 441/6/4 442/6/4
f 442/6/4 441/6/4 443/6/4
f 439/2/4 440/2/4 444/2/4
f 440/6/4 442/6/4 444/6/4
f 444/6/4 442/6/4 445/6/4
f 443/6/4 441/6/4 446/6/4
f 446/6/4 441/6/4 447/6/4
f 439/2/4 444/2/4 448/2/4
f 448/6/4 449/6/4 452/6/4
f 450/6/4 451/6/4 453/6/4
f 439/2/4 448/2/4 454/2/4
f 452/6/4 453/6/4 455/6/4
f 454/2/4 448/2/4 455/2/4
f 448/6/4 452/6/4 455/6/4
f 453/6/4 451/6/4 456/6/4
f 455/6/4 453/6/4 456/6/4
f 459/2/5 458/2/5 457/2/5
f 460/2/5 458/2/5 459/2/5
f 463/5/5 462/5/5 461/5/5
f 464/5/5 462/5/5 463/5/5
f 467/5/5 466/5/5 465/5/5
f 468/5/5 466/5/5 467/5/5
f 471/4/5 470/4/5 469/4/5
f 472/4/5 470/4/5 471/4/5
f 476/5/5 474/5/5 473/5/5
f 477/4/5 475/4/5 474/4/5
f 477/5/5 474/5/5 476/5/5
f 478/4/5 475/4/5 477/4/5
f 484/6/5 480/6/5 479/6/5
f 485/6/5 480/6/5 484/6/5
f 486/6/5 482/6/5 481/6/5
f 487/6/5 482/6/5 486/6/5
f 489/6/5 484/6/5 483/6/5
f 490/6/5 484/6/5 489/6/5
f 491/6/5 488/6/5 487/6/5
f 492/6/5 488/6/5 491/6/5
f 497/6/5 494/6/5 493/6/5
f 498/6/5 494/6/5 497/6/5
f 501/6/5 496/6/5 495/6/5
f 502/6/5 496/6/5 501/6/5
f 503/6/5 499/6/5 498/6/5
f 504/6/5 499/6/5 503/6/5
f 505/6/5 501/6/5 500/6/5
f 506/6/5 501/6/5 505/6/5
f 507/2/6 508/2/6 510/2/6
f 510/2/6 508/2/6 511/2/6
f 509/2/6 510/2/6 514/2/6
f 511/2/6 512/2/6 514/2/6
f 510/2/6 511/2/6 514/2/6
f 514/2/6 512/2/6 515/2/6
f 515/2/6 512/2/6 516/2/6
f 516/2/6 512/2/6 517/2/6
f 513/2/6 514/2/6 519/2/6
f 514/2/6 515/2/6 519/2/6
f 517/2/6 518/2/6 520/2/6
f 516/2/6 517/2/6 520/2/6
f 513/2/6 519/2/6 521/2/6
f 519/2/6 520/2/6 521/2/6
f 521/2/6 520/2/6 522/2/6
f 513/2/6 521/2/6 523/2/6
f 522/2/6 520/2/6 524/2/6
f 523/2/6 524/2/6 525/2/6
f 525/2/6 524/2/6 526/2/6
f 523/2/6 525/2/6 527/2/6
f 526/2/6 524/2/6 528/2/6
f 513/2/6 523/2/6 529/2/6
f 527/2/6 528/2/6 529/2/6
f 523/2/6 527/2/6 529/2/6
f 529/2/6 528/2/6 530/2/6
f 530/2/6 528/2/6 531/2/6
f 528/2/6 524/2/6 532/2/6
f 531/2/6 528/2/6 532/2/6
f 524/2/6 520/2/6 532/2/6
f 513/2/6 529/2/6 533/2/6
f 533/2/6 529/2/6 534/2/6
f 520/2/6 518/2/6 535/2/6
f 532/2/6 520/2/6 535/2/6
f 535/2/6 518/2/6 536/2/6
f 534/2/6 529/2/6 537/2/6
f 537/2/6 529/2/6 538/2/6
f 530/2/6 531/2/6 539/2/6
f 539/2/6 531/2/6 540/2/6
f 532/2/6 535/2/6 541/2/6
f 541/2/6 535/2/6 542/2/6
f 542/2/6 535/2/6 543/2/6
f 539/2/6 540/2/6 544/2/6
f 541/2/6 542/2/6 544/2/6
f 540/2/6 541/2/6 544/2/6
f 538/2/6 539/2/6 544/2/6
f 544/2/6 542/2/6 545/2/6
f 546/6/6 547/6/6 551/6/6
f 551/6/6 547/6/6 552/6/6
f 548/6/6 549/6/6 553/6/6
f 553/6/6 549/6/6 554/6/6
f 550/6/6 551/6/6 556/6/6
f 556/6/6 551/6/6 557/6/6
f 554/6/6 555/6/6 560/6/6
f 560/6/6 555/6/6 561/6/6
f 558/7/6 559/7/6 562/7/6
f 562/7/6 559/7/6 563/7/6
f 558/7/6 562/7/6 564/7/6
f 563/7/6 559/7/6 565/7/6
f 558/7/6 564/7/6 566/7/6
f 564/7/6 565/7/6 566/7/6
f 565/7/6 559/7/6 567/7/6
f 566/7/6 565/7/6 567/7/6
f 568/1/6 569/1/6 570/1/6
f 570/1/6 569/1/6 571/1/6
f 572/3/6 573/3/6 574/3/6
f 574/3/6 573/3/6 575/3/6
f 572/3/6 574/3/6 576/3/6
f 576/3/6 574/3/6 577/3/6
f 575/3/6 573/3/6 578/3/6
f 578/3/6 573/3/6 579/3/6
f 580/1/6 581/1/6 586/1/6
f 586/1/6 581/1/6 587/1/6
f 582/1/6 583/1/6 588/1/6
f 588/1/6 583/1/6 589/1/6
f 584/6/6 585/6/6 592/6/6
f 592/6/6 585/6/6 593/6/6
f 590/6/6 591/6/6 596/6/6
f 596/6/6 591/6/6 597/6/6
f 593/6/6 594/6/6 598/6/6
f 598/6/6 594/6/6 599/6/6
f 595/6/6 596/6/6 600/6/6
f 600/6/6 596/6/6 601/6/6
f 602/1/6 603/1/6 604/1/6
f 604/1/6 603/1/6 605/1/6
f 602/1/6 604/1/6 606/1/6
f 606/1/6 604/1/6 607/1/6
f 605/1/6 603/1/6 608/1/6
f 608/1/6 603/1/6 609/1/6
f 610/4/6 611/4/6 612/4/6
f 612/4/6 611/4/6 613/4/6
f 614/1/6 615/1/6 622/1/6
f 616/1/6 617/1/6 623/1/6
f 618/1/6 619/1/6 624/1/6
f 620/1/6 621/1/6 625/1/6
f 622/1/6 623/1/6 626/1/6
f 614/1/6 622/1/6 626/1/6
f 623/1/6 617/1/6 627/1/6
f 626/1/6 623/1/6 627/1/6
f 624/1/6 625/1/6 628/1/6
f 618/1/6 624/1/6 628/1/6
f 625/1/6 621/1/6 629/1/6
f 628/1/6 625/1/6 629/1/6
f 630/5/6 631/5/6 632/5/6
f 632/5/6 631/5/6 633/5/6
f 634/4/6 635/4/6 636/4/6
f 636/4/6 635/4/6 637/4/6
f 638/4/6 639/4/6 643/4/6
f 643/4/6 639/4/6 644/4/6
f 640/5/6 641/5/6 645/5/6
f 641/4/6 642/4/6 646/4/6
f 645/5/6 641/5/6 646/5/6
f 646/4/6 642/4/6 647/4/6
f 648/6/6 649/6/6 652/6/6
f 652/6/6 649/6/6 653/6/6
f 650/6/6 651/6/6 654/6/6
f 654/6/6 651/6/6 655/6/6
f 648/6/6 652/6/6 656/6/6
f 656/6/6 652/6/6 657/6/6
f 655/6/6 651/6/6 658/6/6
f 658/6/6 651/6/6 659/6/6
f 660/4/6 661/4/6 662/4/6
f 662/4/6 661/4/6 663/4/6
f 664/6/6 665/6/6 668/6/6
f 666/6/6 667/6/6 671/6/6
f 668/6/6 669/6/6 672/6/6
f 664/6/6 668/6/6 672/6/6
f 672/6/6 669/6/6 673/6/6
f 670/6/6 671/6/6 674/6/6
f 671/6/6 667/6/6 675/6/6
f 674/6/6 671/6/6 675/6/6
