# MagicaVoxel @ Ephtracy

# group
g towar-12

# material
mtllib towar-12.mtl
usemtl palette

# normals
vn -1 0 0
vn 1 0 0
vn 0 0 1
vn 0 0 -1
vn 0 -1 0
vn 0 1 0

# texcoords
vt 0.591797 0.5
vt 0.748047 0.5
vt 0.927734 0.5

# verts
v -8 0 8
v -8 0 -8
v -8 1 8
v -8 1 -8
v -8 2 4
v -8 2 1
v -8 2 -1
v -8 2 -4
v -8 6 4
v -8 6 3
v -8 6 2
v -8 6 1
v -8 6 -1
v -8 6 -2
v -8 6 -3
v -8 6 -4
v -8 7 3
v -8 7 2
v -8 7 -2
v -8 7 -3
v -8 8 8
v -8 8 -8
v -4 1 6
v -4 1 5
v -4 2 6
v -4 2 5
v -4 6 6
v -4 6 5
v -4 7 6
v -4 7 5
v -3 7 6
v -3 7 5
v -3 8 6
v -3 8 5
v -2 6 7
v -2 6 5
v -2 7 7
v -2 7 5
v -1 2 7
v -1 2 6
v -1 6 7
v -1 6 6
v 1 1 6
v 1 1 5
v 1 2 6
v 1 2 5
v 1 6 6
v 1 6 5
v 1 7 6
v 1 7 5
v 2 7 6
v 2 7 5
v 2 8 6
v 2 8 5
v 3 6 7
v 3 6 5
v 3 7 7
v 3 7 5
v 4 2 7
v 4 2 6
v 4 6 7
v 4 6 6
v 5 1 6
v 5 1 5
v 5 1 4
v 5 1 1
v 5 1 -1
v 5 1 -4
v 5 1 -5
v 5 1 -6
v 5 2 4
v 5 2 1
v 5 2 -1
v 5 2 -4
v 5 6 4
v 5 6 3
v 5 6 2
v 5 6 1
v 5 6 -1
v 5 6 -2
v 5 6 -3
v 5 6 -4
v 5 7 4
v 5 7 3
v 5 7 2
v 5 7 1
v 5 7 -1
v 5 7 -2
v 5 7 -3
v 5 7 -4
v 5 8 6
v 5 8 5
v 5 8 3
v 5 8 2
v 5 8 -2
v 5 8 -3
v 5 8 -5
v 5 8 -6
v 6 1 5
v 6 1 4
v 6 1 1
v 6 1 -1
v 6 1 -4
v 6 1 -5
v 6 1 -6
v 6 1 -7
v 6 2 4
v 6 2 1
v 6 2 -1
v 6 2 -4
v 6 6 4
v 6 6 1
v 6 6 -1
v 6 6 -4
v 6 7 4
v 6 7 3
v 6 7 2
v 6 7 1
v 6 7 -1
v 6 7 -2
v 6 7 -3
v 6 7 -4
v 6 8 5
v 6 8 3
v 6 8 2
v 6 8 -2
v 6 8 -3
v 6 8 -5
v 6 8 -6
v 6 8 -7
v 7 1 -7
v 7 1 -8
v 7 2 4
v 7 2 1
v 7 2 -1
v 7 2 -4
v 7 6 4
v 7 6 3
v 7 6 2
v 7 6 1
v 7 6 -1
v 7 6 -2
v 7 6 -3
v 7 6 -4
v 7 7 3
v 7 7 2
v 7 7 -2
v 7 7 -3
v 7 8 -7
v 7 8 -8
v -7 1 -7
v -7 1 -8
v -7 2 4
v -7 2 1
v -7 2 -1
v -7 2 -4
v -7 6 4
v -7 6 3
v -7 6 2
v -7 6 1
v -7 6 -1
v -7 6 -2
v -7 6 -3
v -7 6 -4
v -7 7 3
v -7 7 2
v -7 7 -2
v -7 7 -3
v -7 8 -7
v -7 8 -8
v -6 1 5
v -6 1 4
v -6 1 1
v -6 1 -1
v -6 1 -4
v -6 1 -5
v -6 1 -6
v -6 1 -7
v -6 2 4
v -6 2 1
v -6 2 -1
v -6 2 -4
v -6 6 4
v -6 6 1
v -6 6 -1
v -6 6 -4
v -6 7 4
v -6 7 3
v -6 7 2
v -6 7 1
v -6 7 -1
v -6 7 -2
v -6 7 -3
v -6 7 -4
v -6 8 5
v -6 8 3
v -6 8 2
v -6 8 -2
v -6 8 -3
v -6 8 -5
v -6 8 -6
v -6 8 -7
v -5 1 6
v -5 1 5
v -5 1 4
v -5 1 1
v -5 1 -1
v -5 1 -4
v -5 1 -5
v -5 1 -6
v -5 2 4
v -5 2 1
v -5 2 -1
v -5 2 -4
v -5 6 4
v -5 6 3
v -5 6 2
v -5 6 1
v -5 6 -1
v -5 6 -2
v -5 6 -3
v -5 6 -4
v -5 7 4
v -5 7 3
v -5 7 2
v -5 7 1
v -5 7 -1
v -5 7 -2
v -5 7 -3
v -5 7 -4
v -5 8 6
v -5 8 5
v -5 8 3
v -5 8 2
v -5 8 -2
v -5 8 -3
v -5 8 -5
v -5 8 -6
v -4 2 7
v -4 2 6
v -4 6 7
v -4 6 6
v -3 6 7
v -3 6 5
v -3 7 7
v -3 7 5
v -2 7 6
v -2 7 5
v -2 8 6
v -2 8 5
v -1 1 6
v -1 1 5
v -1 2 6
v -1 2 5
v -1 6 6
v -1 6 5
v -1 7 6
v -1 7 5
v 1 2 7
v 1 2 6
v 1 6 7
v 1 6 6
v 2 6 7
v 2 6 5
v 2 7 7
v 2 7 5
v 3 7 6
v 3 7 5
v 3 8 6
v 3 8 5
v 4 1 6
v 4 1 5
v 4 2 6
v 4 2 5
v 4 6 6
v 4 6 5
v 4 7 6
v 4 7 5
v 8 0 8
v 8 0 -8
v 8 1 8
v 8 1 -8
v 8 2 4
v 8 2 1
v 8 2 -1
v 8 2 -4
v 8 6 4
v 8 6 3
v 8 6 2
v 8 6 1
v 8 6 -1
v 8 6 -2
v 8 6 -3
v 8 6 -4
v 8 7 3
v 8 7 2
v 8 7 -2
v 8 7 -3
v 8 8 8
v 8 8 -8
v -8 0 8
v -8 1 8
v -8 8 8
v -4 2 8
v -4 6 8
v -3 6 8
v -3 7 8
v -2 6 8
v -2 7 8
v -1 2 8
v -1 6 8
v 1 2 8
v 1 6 8
v 2 6 8
v 2 7 8
v 3 6 8
v 3 7 8
v 4 2 8
v 4 6 8
v 8 0 8
v 8 1 8
v 8 8 8
v -6 1 4
v -6 2 4
v -6 6 4
v -6 7 4
v -5 1 4
v -5 2 4
v -5 6 4
v -5 7 4
v 5 1 4
v 5 2 4
v 5 6 4
v 5 7 4
v 6 1 4
v 6 2 4
v 6 6 4
v 6 7 4
v -6 7 3
v -6 8 3
v -5 7 3
v -5 8 3
v 5 7 3
v 5 8 3
v 6 7 3
v 6 8 3
v -7 6 2
v -7 7 2
v -5 6 2
v -5 7 2
v 5 6 2
v 5 7 2
v 7 6 2
v 7 7 2
v -7 2 1
v -7 6 1
v -6 2 1
v -6 6 1
v 6 2 1
v 6 6 1
v 7 2 1
v 7 6 1
v -6 1 -1
v -6 2 -1
v -6 6 -1
v -6 7 -1
v -5 1 -1
v -5 2 -1
v -5 6 -1
v -5 7 -1
v 5 1 -1
v 5 2 -1
v 5 6 -1
v 5 7 -1
v 6 1 -1
v 6 2 -1
v 6 6 -1
v 6 7 -1
v -6 7 -2
v -6 8 -2
v -5 7 -2
v -5 8 -2
v 5 7 -2
v 5 8 -2
v 6 7 -2
v 6 8 -2
v -7 6 -3
v -7 7 -3
v -5 6 -3
v -5 7 -3
v 5 6 -3
v 5 7 -3
v 7 6 -3
v 7 7 -3
v -7 2 -4
v -7 6 -4
v -6 2 -4
v -6 6 -4
v 6 2 -4
v 6 6 -4
v 7 2 -4
v 7 6 -4
v -6 1 -5
v -6 8 -5
v -5 1 -5
v -5 8 -5
v 5 1 -5
v 5 8 -5
v 6 1 -5
v 6 8 -5
v -4 2 7
v -4 6 7
v -3 6 7
v -3 7 7
v -2 6 7
v -2 7 7
v -1 2 7
v -1 6 7
v 1 2 7
v 1 6 7
v 2 6 7
v 2 7 7
v 3 6 7
v 3 7 7
v 4 2 7
v 4 6 7
v -5 1 6
v -5 8 6
v -4 1 6
v -4 2 6
v -4 6 6
v -4 7 6
v -3 7 6
v -3 8 6
v -2 7 6
v -2 8 6
v -1 1 6
v -1 2 6
v -1 6 6
v -1 7 6
v 1 1 6
v 1 2 6
v 1 6 6
v 1 7 6
v 2 7 6
v 2 8 6
v 3 7 6
v 3 8 6
v 4 1 6
v 4 2 6
v 4 6 6
v 4 7 6
v 5 1 6
v 5 8 6
v -6 1 5
v -6 8 5
v -5 1 5
v -5 8 5
v -4 1 5
v -4 2 5
v -4 6 5
v -4 7 5
v -3 6 5
v -3 7 5
v -3 8 5
v -2 6 5
v -2 7 5
v -2 8 5
v -1 1 5
v -1 2 5
v -1 6 5
v -1 7 5
v 1 1 5
v 1 2 5
v 1 6 5
v 1 7 5
v 2 6 5
v 2 7 5
v 2 8 5
v 3 6 5
v 3 7 5
v 3 8 5
v 4 1 5
v 4 2 5
v 4 6 5
v 4 7 5
v 5 1 5
v 5 8 5
v 6 1 5
v 6 8 5
v -7 2 4
v -7 6 4
v -6 2 4
v -6 6 4
v 6 2 4
v 6 6 4
v 7 2 4
v 7 6 4
v -7 6 3
v -7 7 3
v -5 6 3
v -5 7 3
v 5 6 3
v 5 7 3
v 7 6 3
v 7 7 3
v -6 7 2
v -6 8 2
v -5 7 2
v -5 8 2
v 5 7 2
v 5 8 2
v 6 7 2
v 6 8 2
v -6 1 1
v -6 2 1
v -6 6 1
v -6 7 1
v -5 1 1
v -5 2 1
v -5 6 1
v -5 7 1
v 5 1 1
v 5 2 1
v 5 6 1
v 5 7 1
v 6 1 1
v 6 2 1
v 6 6 1
v 6 7 1
v -7 2 -1
v -7 6 -1
v -6 2 -1
v -6 6 -1
v 6 2 -1
v 6 6 -1
v 7 2 -1
v 7 6 -1
v -7 6 -2
v -7 7 -2
v -5 6 -2
v -5 7 -2
v 5 6 -2
v 5 7 -2
v 7 6 -2
v 7 7 -2
v -6 7 -3
v -6 8 -3
v -5 7 -3
v -5 8 -3
v 5 7 -3
v 5 8 -3
v 6 7 -3
v 6 8 -3
v -6 1 -4
v -6 2 -4
v -6 6 -4
v -6 7 -4
v -5 1 -4
v -5 2 -4
v -5 6 -4
v -5 7 -4
v 5 1 -4
v 5 2 -4
v 5 6 -4
v 5 7 -4
v 6 1 -4
v 6 2 -4
v 6 6 -4
v 6 7 -4
v -6 1 -6
v -6 8 -6
v -5 1 -6
v -5 8 -6
v 5 1 -6
v 5 8 -6
v 6 1 -6
v 6 8 -6
v -7 1 -7
v -7 8 -7
v -6 1 -7
v -6 8 -7
v 6 1 -7
v 6 8 -7
v 7 1 -7
v 7 8 -7
v -8 0 -8
v -8 1 -8
v -8 8 -8
v -7 1 -8
v -7 8 -8
v 7 1 -8
v 7 8 -8
v 8 0 -8
v 8 1 -8
v 8 8 -8
v -8 0 8
v 8 0 8
v -8 0 -8
v 8 0 -8
v -4 6 7
v -3 6 7
v -2 6 7
v -1 6 7
v 1 6 7
v 2 6 7
v 3 6 7
v 4 6 7
v -4 6 6
v -1 6 6
v 1 6 6
v 4 6 6
v -4 6 5
v -3 6 5
v -2 6 5
v -1 6 5
v 1 6 5
v 2 6 5
v 3 6 5
v 4 6 5
v -7 6 4
v -6 6 4
v -5 6 4
v 5 6 4
v 6 6 4
v 7 6 4
v -7 6 3
v -5 6 3
v 5 6 3
v 7 6 3
v -7 6 2
v -5 6 2
v 5 6 2
v 7 6 2
v -7 6 1
v -6 6 1
v -5 6 1
v 5 6 1
v 6 6 1
v 7 6 1
v -7 6 -1
v -6 6 -1
v -5 6 -1
v 5 6 -1
v 6 6 -1
v 7 6 -1
v -7 6 -2
v -5 6 -2
v 5 6 -2
v 7 6 -2
v -7 6 -3
v -5 6 -3
v 5 6 -3
v 7 6 -3
v -7 6 -4
v -6 6 -4
v -5 6 -4
v 5 6 -4
v 6 6 -4
v 7 6 -4
v -3 7 7
v -2 7 7
v 2 7 7
v 3 7 7
v -3 7 5
v -2 7 5
v 2 7 5
v 3 7 5
v -7 7 3
v -5 7 3
v 5 7 3
v 7 7 3
v -7 7 2
v -5 7 2
v 5 7 2
v 7 7 2
v -7 7 -2
v -5 7 -2
v 5 7 -2
v 7 7 -2
v -7 7 -3
v -5 7 -3
v 5 7 -3
v 7 7 -3
v -5 1 6
v -4 1 6
v -1 1 6
v 1 1 6
v 4 1 6
v 5 1 6
v -6 1 5
v -5 1 5
v -4 1 5
v -1 1 5
v 1 1 5
v 4 1 5
v 5 1 5
v 6 1 5
v -6 1 4
v -5 1 4
v 5 1 4
v 6 1 4
v -6 1 1
v -5 1 1
v 5 1 1
v 6 1 1
v -6 1 -1
v -5 1 -1
v 5 1 -1
v 6 1 -1
v -6 1 -4
v -5 1 -4
v 5 1 -4
v 6 1 -4
v -6 1 -5
v -5 1 -5
v 5 1 -5
v 6 1 -5
v -6 1 -6
v -5 1 -6
v 5 1 -6
v 6 1 -6
v -7 1 -7
v -6 1 -7
v 6 1 -7
v 7 1 -7
v -7 1 -8
v 7 1 -8
v -4 2 7
v -1 2 7
v 1 2 7
v 4 2 7
v -4 2 6
v -1 2 6
v 1 2 6
v 4 2 6
v -4 2 5
v -1 2 5
v 1 2 5
v 4 2 5
v -7 2 4
v -6 2 4
v -5 2 4
v 5 2 4
v 6 2 4
v 7 2 4
v -7 2 1
v -6 2 1
v -5 2 1
v 5 2 1
v 6 2 1
v 7 2 1
v -7 2 -1
v -6 2 -1
v -5 2 -1
v 5 2 -1
v 6 2 -1
v 7 2 -1
v -7 2 -4
v -6 2 -4
v -5 2 -4
v 5 2 -4
v 6 2 -4
v 7 2 -4
v -4 7 6
v -3 7 6
v -2 7 6
v -1 7 6
v 1 7 6
v 2 7 6
v 3 7 6
v 4 7 6
v -4 7 5
v -3 7 5
v -2 7 5
v -1 7 5
v 1 7 5
v 2 7 5
v 3 7 5
v 4 7 5
v -6 7 4
v -5 7 4
v 5 7 4
v 6 7 4
v -6 7 3
v -5 7 3
v 5 7 3
v 6 7 3
v -6 7 2
v -5 7 2
v 5 7 2
v 6 7 2
v -6 7 1
v -5 7 1
v 5 7 1
v 6 7 1
v -6 7 -1
v -5 7 -1
v 5 7 -1
v 6 7 -1
v -6 7 -2
v -5 7 -2
v 5 7 -2
v 6 7 -2
v -6 7 -3
v -5 7 -3
v 5 7 -3
v 6 7 -3
v -6 7 -4
v -5 7 -4
v 5 7 -4
v 6 7 -4
v -8 8 8
v 8 8 8
v -5 8 6
v -3 8 6
v -2 8 6
v 2 8 6
v 3 8 6
v 5 8 6
v -6 8 5
v -5 8 5
v -3 8 5
v -2 8 5
v 2 8 5
v 3 8 5
v 5 8 5
v 6 8 5
v -6 8 3
v -5 8 3
v 5 8 3
v 6 8 3
v -6 8 2
v -5 8 2
v 5 8 2
v 6 8 2
v -6 8 -2
v -5 8 -2
v 5 8 -2
v 6 8 -2
v -6 8 -3
v -5 8 -3
v 5 8 -3
v 6 8 -3
v -6 8 -5
v -5 8 -5
v 5 8 -5
v 6 8 -5
v -6 8 -6
v -5 8 -6
v 5 8 -6
v 6 8 -6
v -7 8 -7
v -6 8 -7
v 6 8 -7
v 7 8 -7
v -8 8 -8
v -7 8 -8
v 7 8 -8
v 8 8 -8

# faces
f 3/1/1 2/1/1 1/1/1
f 4/1/1 2/1/1 3/1/1
f 5/3/1 4/3/1 3/3/1
f 6/3/1 4/3/1 5/3/1
f 7/3/1 4/3/1 6/3/1
f 8/3/1 4/3/1 7/3/1
f 9/3/1 5/3/1 3/3/1
f 9/2/1 6/2/1 5/2/1
f 10/2/1 6/2/1 9/2/1
f 11/2/1 6/2/1 10/2/1
f 12/3/1 7/3/1 6/3/1
f 12/2/1 6/2/1 11/2/1
f 13/2/1 8/2/1 7/2/1
f 13/3/1 7/3/1 12/3/1
f 14/2/1 8/2/1 13/2/1
f 15/2/1 8/2/1 14/2/1
f 16/3/1 4/3/1 8/3/1
f 16/2/1 8/2/1 15/2/1
f 17/2/1 11/2/1 10/2/1
f 17/3/1 10/3/1 9/3/1
f 18/3/1 12/3/1 11/3/1
f 18/2/1 11/2/1 17/2/1
f 18/3/1 13/3/1 12/3/1
f 18/3/1 14/3/1 13/3/1
f 19/2/1 15/2/1 14/2/1
f 19/3/1 14/3/1 18/3/1
f 20/3/1 16/3/1 15/3/1
f 20/2/1 15/2/1 19/2/1
f 21/3/1 18/3/1 17/3/1
f 21/3/1 17/3/1 9/3/1
f 21/3/1 20/3/1 19/3/1
f 21/3/1 19/3/1 18/3/1
f 21/3/1 9/3/1 3/3/1
f 22/3/1 16/3/1 20/3/1
f 22/3/1 20/3/1 21/3/1
f 22/3/1 4/3/1 16/3/1
f 25/3/1 24/3/1 23/3/1
f 26/3/1 24/3/1 25/3/1
f 29/3/1 28/3/1 27/3/1
f 30/3/1 28/3/1 29/3/1
f 33/3/1 32/3/1 31/3/1
f 34/3/1 32/3/1 33/3/1
f 37/3/1 36/3/1 35/3/1
f 38/3/1 36/3/1 37/3/1
f 41/3/1 40/3/1 39/3/1
f 42/3/1 40/3/1 41/3/1
f 45/3/1 44/3/1 43/3/1
f 46/3/1 44/3/1 45/3/1
f 49/3/1 48/3/1 47/3/1
f 50/3/1 48/3/1 49/3/1
f 53/3/1 52/3/1 51/3/1
f 54/3/1 52/3/1 53/3/1
f 57/3/1 56/3/1 55/3/1
f 58/3/1 56/3/1 57/3/1
f 61/3/1 60/3/1 59/3/1
f 62/3/1 60/3/1 61/3/1
f 71/3/1 66/3/1 65/3/1
f 72/3/1 66/3/1 71/3/1
f 73/3/1 68/3/1 67/3/1
f 74/3/1 68/3/1 73/3/1
f 83/3/1 76/3/1 75/3/1
f 84/3/1 76/3/1 83/3/1
f 85/3/1 78/3/1 77/3/1
f 86/3/1 78/3/1 85/3/1
f 87/3/1 80/3/1 79/3/1
f 88/3/1 80/3/1 87/3/1
f 89/3/1 82/3/1 81/3/1
f 90/3/1 82/3/1 89/3/1
f 91/3/1 64/3/1 63/3/1
f 92/3/1 64/3/1 91/3/1
f 93/3/1 85/3/1 84/3/1
f 94/3/1 85/3/1 93/3/1
f 95/3/1 89/3/1 88/3/1
f 96/3/1 89/3/1 95/3/1
f 97/3/1 70/3/1 69/3/1
f 98/3/1 70/3/1 97/3/1
f 107/3/1 100/3/1 99/3/1
f 108/3/1 102/3/1 101/3/1
f 109/3/1 102/3/1 108/3/1
f 110/3/1 104/3/1 103/3/1
f 111/3/1 107/3/1 99/3/1
f 112/3/1 109/3/1 108/3/1
f 113/3/1 109/3/1 112/3/1
f 114/3/1 104/3/1 110/3/1
f 115/3/1 111/3/1 99/3/1
f 118/3/1 113/3/1 112/3/1
f 119/3/1 113/3/1 118/3/1
f 122/3/1 104/3/1 114/3/1
f 123/3/1 116/3/1 115/3/1
f 123/3/1 115/3/1 99/3/1
f 124/3/1 116/3/1 123/3/1
f 125/3/1 120/3/1 119/3/1
f 125/3/1 118/3/1 117/3/1
f 125/3/1 119/3/1 118/3/1
f 126/3/1 120/3/1 125/3/1
f 127/3/1 122/3/1 121/3/1
f 128/3/1 104/3/1 122/3/1
f 128/3/1 122/3/1 127/3/1
f 129/3/1 106/3/1 105/3/1
f 130/3/1 106/3/1 129/3/1
f 137/2/1 134/2/1 133/2/1
f 138/2/1 134/2/1 137/2/1
f 139/2/1 134/2/1 138/2/1
f 140/2/1 134/2/1 139/2/1
f 141/2/1 136/2/1 135/2/1
f 142/2/1 136/2/1 141/2/1
f 143/2/1 136/2/1 142/2/1
f 144/2/1 136/2/1 143/2/1
f 145/2/1 139/2/1 138/2/1
f 146/2/1 139/2/1 145/2/1
f 147/2/1 143/2/1 142/2/1
f 148/2/1 143/2/1 147/2/1
f 149/3/1 132/3/1 131/3/1
f 150/3/1 132/3/1 149/3/1
f 153/2/2 154/2/2 157/2/2
f 157/2/2 154/2/2 158/2/2
f 158/2/2 154/2/2 159/2/2
f 159/2/2 154/2/2 160/2/2
f 155/2/2 156/2/2 161/2/2
f 161/2/2 156/2/2 162/2/2
f 162/2/2 156/2/2 163/2/2
f 163/2/2 156/2/2 164/2/2
f 158/2/2 159/2/2 165/2/2
f 165/2/2 159/2/2 166/2/2
f 162/2/2 163/2/2 167/2/2
f 167/2/2 163/2/2 168/2/2
f 151/3/2 152/3/2 169/3/2
f 169/3/2 152/3/2 170/3/2
f 171/3/2 172/3/2 179/3/2
f 173/3/2 174/3/2 180/3/2
f 180/3/2 174/3/2 181/3/2
f 175/3/2 176/3/2 182/3/2
f 171/3/2 179/3/2 183/3/2
f 180/3/2 181/3/2 184/3/2
f 184/3/2 181/3/2 185/3/2
f 182/3/2 176/3/2 186/3/2
f 171/3/2 183/3/2 187/3/2
f 184/3/2 185/3/2 190/3/2
f 190/3/2 185/3/2 191/3/2
f 186/3/2 176/3/2 194/3/2
f 187/3/2 188/3/2 195/3/2
f 171/3/2 187/3/2 195/3/2
f 195/3/2 188/3/2 196/3/2
f 191/3/2 192/3/2 197/3/2
f 189/3/2 190/3/2 197/3/2
f 190/3/2 191/3/2 197/3/2
f 197/3/2 192/3/2 198/3/2
f 193/3/2 194/3/2 199/3/2
f 194/3/2 176/3/2 200/3/2
f 199/3/2 194/3/2 200/3/2
f 177/3/2 178/3/2 201/3/2
f 201/3/2 178/3/2 202/3/2
f 205/3/2 206/3/2 211/3/2
f 211/3/2 206/3/2 212/3/2
f 207/3/2 208/3/2 213/3/2
f 213/3/2 208/3/2 214/3/2
f 215/3/2 216/3/2 223/3/2
f 223/3/2 216/3/2 224/3/2
f 217/3/2 218/3/2 225/3/2
f 225/3/2 218/3/2 226/3/2
f 219/3/2 220/3/2 227/3/2
f 227/3/2 220/3/2 228/3/2
f 221/3/2 222/3/2 229/3/2
f 229/3/2 222/3/2 230/3/2
f 203/3/2 204/3/2 231/3/2
f 231/3/2 204/3/2 232/3/2
f 224/3/2 225/3/2 233/3/2
f 233/3/2 225/3/2 234/3/2
f 228/3/2 229/3/2 235/3/2
f 235/3/2 229/3/2 236/3/2
f 209/3/2 210/3/2 237/3/2
f 237/3/2 210/3/2 238/3/2
f 239/3/2 240/3/2 241/3/2
f 241/3/2 240/3/2 242/3/2
f 243/3/2 244/3/2 245/3/2
f 245/3/2 244/3/2 246/3/2
f 247/3/2 248/3/2 249/3/2
f 249/3/2 248/3/2 250/3/2
f 251/3/2 252/3/2 253/3/2
f 253/3/2 252/3/2 254/3/2
f 255/3/2 256/3/2 257/3/2
f 257/3/2 256/3/2 258/3/2
f 259/3/2 260/3/2 261/3/2
f 261/3/2 260/3/2 262/3/2
f 263/3/2 264/3/2 265/3/2
f 265/3/2 264/3/2 266/3/2
f 267/3/2 268/3/2 269/3/2
f 269/3/2 268/3/2 270/3/2
f 271/3/2 272/3/2 273/3/2
f 273/3/2 272/3/2 274/3/2
f 275/3/2 276/3/2 277/3/2
f 277/3/2 276/3/2 278/3/2
f 279/1/2 280/1/2 281/1/2
f 281/1/2 280/1/2 282/1/2
f 281/3/2 282/3/2 283/3/2
f 283/3/2 282/3/2 284/3/2
f 284/3/2 282/3/2 285/3/2
f 285/3/2 282/3/2 286/3/2
f 281/3/2 283/3/2 287/3/2
f 283/2/2 284/2/2 287/2/2
f 287/2/2 284/2/2 288/2/2
f 288/2/2 284/2/2 289/2/2
f 284/3/2 285/3/2 290/3/2
f 289/2/2 284/2/2 290/2/2
f 285/2/2 286/2/2 291/2/2
f 290/3/2 285/3/2 291/3/2
f 291/2/2 286/2/2 292/2/2
f 292/2/2 286/2/2 293/2/2
f 286/3/2 282/3/2 294/3/2
f 293/2/2 286/2/2 294/2/2
f 288/2/2 289/2/2 295/2/2
f 287/3/2 288/3/2 295/3/2
f 289/3/2 290/3/2 296/3/2
f 295/2/2 289/2/2 296/2/2
f 290/3/2 291/3/2 296/3/2
f 291/3/2 292/3/2 296/3/2
f 292/2/2 293/2/2 297/2/2
f 296/3/2 292/3/2 297/3/2
f 293/3/2 294/3/2 298/3/2
f 297/2/2 293/2/2 298/2/2
f 295/3/2 296/3/2 299/3/2
f 287/3/2 295/3/2 299/3/2
f 297/3/2 298/3/2 299/3/2
f 296/3/2 297/3/2 299/3/2
f 281/3/2 287/3/2 299/3/2
f 298/3/2 294/3/2 300/3/2
f 299/3/2 298/3/2 300/3/2
f 294/3/2 282/3/2 300/3/2
f 304/3/3 303/3/3 302/3/3
f 305/3/3 303/3/3 304/3/3
f 306/2/3 305/2/3 304/2/3
f 306/3/3 303/3/3 305/3/3
f 307/3/3 303/3/3 306/3/3
f 308/2/3 306/2/3 304/2/3
f 308/2/3 307/2/3 306/2/3
f 309/3/3 303/3/3 307/3/3
f 309/2/3 307/2/3 308/2/3
f 310/3/3 304/3/3 302/3/3
f 310/2/3 308/2/3 304/2/3
f 311/3/3 309/3/3 308/3/3
f 311/2/3 308/2/3 310/2/3
f 312/3/3 310/3/3 302/3/3
f 312/3/3 311/3/3 310/3/3
f 313/3/3 309/3/3 311/3/3
f 313/3/3 311/3/3 312/3/3
f 314/2/3 313/2/3 312/2/3
f 314/3/3 309/3/3 313/3/3
f 315/3/3 303/3/3 309/3/3
f 315/3/3 309/3/3 314/3/3
f 316/2/3 314/2/3 312/2/3
f 316/2/3 315/2/3 314/2/3
f 317/3/3 303/3/3 315/3/3
f 317/2/3 315/2/3 316/2/3
f 318/2/3 316/2/3 312/2/3
f 318/3/3 312/3/3 302/3/3
f 319/3/3 317/3/3 316/3/3
f 319/2/3 316/2/3 318/2/3
f 320/1/3 302/1/3 301/1/3
f 321/3/3 318/3/3 302/3/3
f 321/1/3 302/1/3 320/1/3
f 321/3/3 319/3/3 318/3/3
f 322/3/3 317/3/3 319/3/3
f 322/3/3 319/3/3 321/3/3
f 322/3/3 303/3/3 317/3/3
f 327/3/3 324/3/3 323/3/3
f 328/3/3 324/3/3 327/3/3
f 329/3/3 326/3/3 325/3/3
f 330/3/3 326/3/3 329/3/3
f 335/3/3 332/3/3 331/3/3
f 336/3/3 332/3/3 335/3/3
f 337/3/3 334/3/3 333/3/3
f 338/3/3 334/3/3 337/3/3
f 341/3/3 340/3/3 339/3/3
f 342/3/3 340/3/3 341/3/3
f 345/3/3 344/3/3 343/3/3
f 346/3/3 344/3/3 345/3/3
f 349/3/3 348/3/3 347/3/3
f 350/3/3 348/3/3 349/3/3
f 353/3/3 352/3/3 351/3/3
f 354/3/3 352/3/3 353/3/3
f 357/3/3 356/3/3 355/3/3
f 358/3/3 356/3/3 357/3/3
f 361/3/3 360/3/3 359/3/3
f 362/3/3 360/3/3 361/3/3
f 367/3/3 364/3/3 363/3/3
f 368/3/3 364/3/3 367/3/3
f 369/3/3 366/3/3 365/3/3
f 370/3/3 366/3/3 369/3/3
f 375/3/3 372/3/3 371/3/3
f 376/3/3 372/3/3 375/3/3
f 377/3/3 374/3/3 373/3/3
f 378/3/3 374/3/3 377/3/3
f 381/3/3 380/3/3 379/3/3
f 382/3/3 380/3/3 381/3/3
f 385/3/3 384/3/3 383/3/3
f 386/3/3 384/3/3 385/3/3
f 389/3/3 388/3/3 387/3/3
f 390/3/3 388/3/3 389/3/3
f 393/3/3 392/3/3 391/3/3
f 394/3/3 392/3/3 393/3/3
f 397/3/3 396/3/3 395/3/3
f 398/3/3 396/3/3 397/3/3
f 401/3/3 400/3/3 399/3/3
f 402/3/3 400/3/3 401/3/3
f 405/3/3 404/3/3 403/3/3
f 406/3/3 404/3/3 405/3/3
f 409/3/3 408/3/3 407/3/3
f 410/3/3 408/3/3 409/3/3
f 411/2/4 412/2/4 413/2/4
f 411/2/4 413/2/4 415/2/4
f 413/2/4 414/2/4 415/2/4
f 415/2/4 414/2/4 416/2/4
f 411/2/4 415/2/4 417/2/4
f 417/2/4 415/2/4 418/2/4
f 419/2/4 420/2/4 421/2/4
f 419/2/4 421/2/4 423/2/4
f 421/2/4 422/2/4 423/2/4
f 423/2/4 422/2/4 424/2/4
f 419/2/4 423/2/4 425/2/4
f 425/2/4 423/2/4 426/2/4
f 427/3/4 428/3/4 429/3/4
f 429/3/4 428/3/4 430/3/4
f 430/3/4 428/3/4 431/3/4
f 431/3/4 428/3/4 432/3/4
f 432/3/4 428/3/4 433/3/4
f 433/3/4 428/3/4 434/3/4
f 435/3/4 436/3/4 440/3/4
f 438/3/4 439/3/4 441/3/4
f 439/3/4 440/3/4 441/3/4
f 437/3/4 438/3/4 441/3/4
f 441/3/4 440/3/4 442/3/4
f 442/3/4 440/3/4 443/3/4
f 440/3/4 436/3/4 444/3/4
f 443/3/4 440/3/4 444/3/4
f 444/3/4 436/3/4 445/3/4
f 445/3/4 436/3/4 446/3/4
f 447/3/4 448/3/4 452/3/4
f 450/3/4 451/3/4 453/3/4
f 451/3/4 452/3/4 453/3/4
f 449/3/4 450/3/4 453/3/4
f 452/3/4 448/3/4 454/3/4
f 453/3/4 452/3/4 454/3/4
f 455/3/4 456/3/4 457/3/4
f 457/3/4 456/3/4 458/3/4
f 461/3/4 462/3/4 463/3/4
f 463/3/4 462/3/4 464/3/4
f 464/3/4 465/3/4 467/3/4
f 467/3/4 465/3/4 468/3/4
f 459/3/4 460/3/4 469/3/4
f 469/3/4 460/3/4 470/3/4
f 466/3/4 467/3/4 471/3/4
f 471/3/4 467/3/4 472/3/4
f 475/3/4 476/3/4 477/3/4
f 477/3/4 476/3/4 478/3/4
f 478/3/4 479/3/4 481/3/4
f 481/3/4 479/3/4 482/3/4
f 473/3/4 474/3/4 483/3/4
f 483/3/4 474/3/4 484/3/4
f 480/3/4 481/3/4 485/3/4
f 485/3/4 481/3/4 486/3/4
f 487/3/4 488/3/4 489/3/4
f 489/3/4 488/3/4 490/3/4
f 491/3/4 492/3/4 493/3/4
f 493/3/4 492/3/4 494/3/4
f 495/3/4 496/3/4 497/3/4
f 497/3/4 496/3/4 498/3/4
f 499/3/4 500/3/4 501/3/4
f 501/3/4 500/3/4 502/3/4
f 503/3/4 504/3/4 505/3/4
f 505/3/4 504/3/4 506/3/4
f 507/3/4 508/3/4 509/3/4
f 509/3/4 508/3/4 510/3/4
f 511/3/4 512/3/4 513/3/4
f 513/3/4 512/3/4 514/3/4
f 515/3/4 516/3/4 519/3/4
f 519/3/4 516/3/4 520/3/4
f 517/3/4 518/3/4 521/3/4
f 521/3/4 518/3/4 522/3/4
f 523/3/4 524/3/4 527/3/4
f 527/3/4 524/3/4 528/3/4
f 525/3/4 526/3/4 529/3/4
f 529/3/4 526/3/4 530/3/4
f 531/3/4 532/3/4 533/3/4
f 533/3/4 532/3/4 534/3/4
f 535/3/4 536/3/4 537/3/4
f 537/3/4 536/3/4 538/3/4
f 539/3/4 540/3/4 541/3/4
f 541/3/4 540/3/4 542/3/4
f 543/3/4 544/3/4 545/3/4
f 545/3/4 544/3/4 546/3/4
f 547/3/4 548/3/4 549/3/4
f 549/3/4 548/3/4 550/3/4
f 551/3/4 552/3/4 553/3/4
f 553/3/4 552/3/4 554/3/4
f 555/3/4 556/3/4 559/3/4
f 559/3/4 556/3/4 560/3/4
f 557/3/4 558/3/4 561/3/4
f 561/3/4 558/3/4 562/3/4
f 563/3/4 564/3/4 567/3/4
f 567/3/4 564/3/4 568/3/4
f 565/3/4 566/3/4 569/3/4
f 569/3/4 566/3/4 570/3/4
f 571/3/4 572/3/4 573/3/4
f 573/3/4 572/3/4 574/3/4
f 575/3/4 576/3/4 577/3/4
f 577/3/4 576/3/4 578/3/4
f 579/3/4 580/3/4 581/3/4
f 581/3/4 580/3/4 582/3/4
f 583/3/4 584/3/4 585/3/4
f 585/3/4 584/3/4 586/3/4
f 587/1/4 588/1/4 590/1/4
f 588/3/4 589/3/4 590/3/4
f 590/3/4 589/3/4 591/3/4
f 587/1/4 590/1/4 592/1/4
f 587/1/4 592/1/4 594/1/4
f 592/3/4 593/3/4 595/3/4
f 594/1/4 592/1/4 595/1/4
f 595/3/4 593/3/4 596/3/4
f 599/1/5 598/1/5 597/1/5
f 600/1/5 598/1/5 599/1/5
f 609/3/5 602/3/5 601/3/5
f 610/3/5 604/3/5 603/3/5
f 611/3/5 606/3/5 605/3/5
f 612/3/5 608/3/5 607/3/5
f 613/3/5 602/3/5 609/3/5
f 614/3/5 602/3/5 613/3/5
f 615/3/5 610/3/5 603/3/5
f 616/3/5 610/3/5 615/3/5
f 617/3/5 606/3/5 611/3/5
f 618/3/5 606/3/5 617/3/5
f 619/3/5 612/3/5 607/3/5
f 620/3/5 612/3/5 619/3/5
f 627/3/5 623/3/5 622/3/5
f 627/3/5 622/3/5 621/3/5
f 628/3/5 623/3/5 627/3/5
f 629/3/5 626/3/5 625/3/5
f 629/3/5 625/3/5 624/3/5
f 630/3/5 626/3/5 629/3/5
f 635/3/5 632/3/5 631/3/5
f 636/3/5 632/3/5 635/3/5
f 637/3/5 632/3/5 636/3/5
f 638/3/5 634/3/5 633/3/5
f 639/3/5 634/3/5 638/3/5
f 640/3/5 634/3/5 639/3/5
f 647/3/5 642/3/5 641/3/5
f 647/3/5 643/3/5 642/3/5
f 648/3/5 643/3/5 647/3/5
f 649/3/5 646/3/5 645/3/5
f 649/3/5 645/3/5 644/3/5
f 650/3/5 646/3/5 649/3/5
f 655/3/5 652/3/5 651/3/5
f 656/3/5 652/3/5 655/3/5
f 657/3/5 652/3/5 656/3/5
f 658/3/5 654/3/5 653/3/5
f 659/3/5 654/3/5 658/3/5
f 660/3/5 654/3/5 659/3/5
f 665/3/5 662/3/5 661/3/5
f 666/3/5 662/3/5 665/3/5
f 667/3/5 664/3/5 663/3/5
f 668/3/5 664/3/5 667/3/5
f 673/3/5 670/3/5 669/3/5
f 674/3/5 670/3/5 673/3/5
f 675/3/5 672/3/5 671/3/5
f 676/3/5 672/3/5 675/3/5
f 681/3/5 678/3/5 677/3/5
f 682/3/5 678/3/5 681/3/5
f 683/3/5 680/3/5 679/3/5
f 684/3/5 680/3/5 683/3/5
f 685/1/6 686/1/6 692/1/6
f 692/1/6 686/1/6 693/1/6
f 687/1/6 688/1/6 694/1/6
f 694/1/6 688/1/6 695/1/6
f 689/1/6 690/1/6 696/1/6
f 696/1/6 690/1/6 697/1/6
f 694/1/6 695/1/6 699/1/6
f 697/1/6 698/1/6 699/1/6
f 696/1/6 697/1/6 699/1/6
f 695/1/6 696/1/6 699/1/6
f 692/1/6 693/1/6 699/1/6
f 693/1/6 694/1/6 699/1/6
f 691/1/6 692/1/6 699/1/6
f 699/1/6 698/1/6 700/1/6
f 700/1/6 698/1/6 701/1/6
f 701/1/6 698/1/6 702/1/6
f 700/1/6 701/1/6 704/1/6
f 704/1/6 701/1/6 705/1/6
f 703/1/6 704/1/6 707/1/6
f 705/1/6 706/1/6 707/1/6
f 704/1/6 705/1/6 707/1/6
f 707/1/6 706/1/6 708/1/6
f 708/1/6 706/1/6 709/1/6
f 709/1/6 706/1/6 710/1/6
f 708/1/6 709/1/6 712/1/6
f 712/1/6 709/1/6 713/1/6
f 711/1/6 712/1/6 715/1/6
f 713/1/6 714/1/6 715/1/6
f 712/1/6 713/1/6 715/1/6
f 715/1/6 714/1/6 716/1/6
f 716/1/6 714/1/6 717/1/6
f 717/1/6 714/1/6 718/1/6
f 716/1/6 717/1/6 720/1/6
f 720/1/6 717/1/6 721/1/6
f 719/1/6 720/1/6 724/1/6
f 721/1/6 722/1/6 724/1/6
f 720/1/6 721/1/6 724/1/6
f 724/1/6 722/1/6 725/1/6
f 724/1/6 725/1/6 727/1/6
f 725/1/6 726/1/6 727/1/6
f 723/1/6 724/1/6 727/1/6
f 727/1/6 726/1/6 728/1/6
f 729/3/6 730/3/6 733/3/6
f 733/3/6 730/3/6 734/3/6
f 731/3/6 732/3/6 735/3/6
f 735/3/6 732/3/6 736/3/6
f 733/3/6 734/3/6 737/3/6
f 737/3/6 734/3/6 738/3/6
f 735/3/6 736/3/6 739/3/6
f 739/3/6 736/3/6 740/3/6
f 742/3/6 743/3/6 747/3/6
f 741/3/6 742/3/6 747/3/6
f 747/3/6 743/3/6 748/3/6
f 748/3/6 743/3/6 749/3/6
f 745/3/6 746/3/6 750/3/6
f 744/3/6 745/3/6 750/3/6
f 750/3/6 746/3/6 751/3/6
f 751/3/6 746/3/6 752/3/6
f 753/3/6 754/3/6 759/3/6
f 754/3/6 755/3/6 759/3/6
f 759/3/6 755/3/6 760/3/6
f 760/3/6 755/3/6 761/3/6
f 757/3/6 758/3/6 762/3/6
f 756/3/6 757/3/6 762/3/6
f 762/3/6 758/3/6 763/3/6
f 763/3/6 758/3/6 764/3/6
f 765/3/6 766/3/6 773/3/6
f 773/3/6 766/3/6 774/3/6
f 767/3/6 768/3/6 775/3/6
f 775/3/6 768/3/6 776/3/6
f 769/3/6 770/3/6 777/3/6
f 777/3/6 770/3/6 778/3/6
f 771/3/6 772/3/6 779/3/6
f 779/3/6 772/3/6 780/3/6
f 781/3/6 782/3/6 785/3/6
f 785/3/6 782/3/6 786/3/6
f 783/3/6 784/3/6 787/3/6
f 787/3/6 784/3/6 788/3/6
f 789/3/6 790/3/6 793/3/6
f 793/3/6 790/3/6 794/3/6
f 791/3/6 792/3/6 795/3/6
f 795/3/6 792/3/6 796/3/6
f 797/3/6 798/3/6 801/3/6
f 801/3/6 798/3/6 802/3/6
f 799/3/6 800/3/6 803/3/6
f 803/3/6 800/3/6 804/3/6
f 805/3/6 806/3/6 809/3/6
f 809/3/6 806/3/6 810/3/6
f 807/3/6 808/3/6 811/3/6
f 811/3/6 808/3/6 812/3/6
f 813/3/6 814/3/6 815/3/6
f 815/3/6 814/3/6 816/3/6
f 816/3/6 814/3/6 817/3/6
f 817/3/6 814/3/6 818/3/6
f 818/3/6 814/3/6 819/3/6
f 819/3/6 814/3/6 820/3/6
f 813/3/6 815/3/6 821/3/6
f 821/3/6 815/3/6 822/3/6
f 816/3/6 817/3/6 823/3/6
f 823/3/6 817/3/6 824/3/6
f 818/3/6 819/3/6 825/3/6
f 825/3/6 819/3/6 826/3/6
f 820/3/6 814/3/6 827/3/6
f 827/3/6 814/3/6 828/3/6
f 813/3/6 821/3/6 829/3/6
f 828/3/6 814/3/6 832/3/6
f 829/3/6 830/3/6 833/3/6
f 813/3/6 829/3/6 833/3/6
f 833/3/6 830/3/6 834/3/6
f 831/3/6 832/3/6 835/3/6
f 832/3/6 814/3/6 836/3/6
f 835/3/6 832/3/6 836/3/6
f 813/3/6 833/3/6 837/3/6
f 836/3/6 814/3/6 840/3/6
f 837/3/6 838/3/6 841/3/6
f 813/3/6 837/3/6 841/3/6
f 841/3/6 838/3/6 842/3/6
f 839/3/6 840/3/6 843/3/6
f 840/3/6 814/3/6 844/3/6
f 843/3/6 840/3/6 844/3/6
f 813/3/6 841/3/6 845/3/6
f 844/3/6 814/3/6 848/3/6
f 845/3/6 846/3/6 849/3/6
f 813/3/6 845/3/6 849/3/6
f 849/3/6 846/3/6 850/3/6
f 847/3/6 848/3/6 851/3/6
f 848/3/6 814/3/6 852/3/6
f 851/3/6 848/3/6 852/3/6
f 813/3/6 849/3/6 853/3/6
f 853/3/6 849/3/6 854/3/6
f 852/3/6 814/3/6 855/3/6
f 855/3/6 814/3/6 856/3/6
f 813/3/6 853/3/6 857/3/6
f 857/3/6 853/3/6 858/3/6
f 856/3/6 814/3/6 859/3/6
f 859/3/6 814/3/6 860/3/6
