# MagicaVoxel @ Ephtracy

# group
g towar-31

# material
mtllib towar-31.mtl
usemtl palette

# normals
vn -1 0 0
vn 1 0 0
vn 0 0 1
vn 0 0 -1
vn 0 -1 0
vn 0 1 0

# texcoords
vt 0.748047 0.5
vt 0.927734 0.5

# verts
v -8 0 8
v -8 0 -8
v -8 2 4
v -8 2 1
v -8 2 -1
v -8 2 -4
v -8 6 4
v -8 6 3
v -8 6 2
v -8 6 1
v -8 6 -1
v -8 6 -2
v -8 6 -3
v -8 6 -4
v -8 7 3
v -8 7 2
v -8 7 -2
v -8 7 -3
v -8 8 8
v -8 8 -8
v 7 0 -7
v 7 0 -8
v 7 8 -7
v 7 8 -8
v -7 0 8
v -7 0 7
v -7 0 -7
v -7 0 -8
v -7 2 4
v -7 2 1
v -7 2 -1
v -7 2 -4
v -7 6 4
v -7 6 3
v -7 6 2
v -7 6 1
v -7 6 -1
v -7 6 -2
v -7 6 -3
v -7 6 -4
v -7 7 3
v -7 7 2
v -7 7 -2
v -7 7 -3
v -7 8 8
v -7 8 7
v -7 8 -7
v -7 8 -8
v -6 0 7
v -6 0 6
v -6 0 5
v -6 0 -5
v -6 0 -6
v -6 0 -7
v -6 1 4
v -6 1 1
v -6 1 -1
v -6 1 -4
v -6 2 4
v -6 2 1
v -6 2 -1
v -6 2 -4
v -6 6 4
v -6 6 1
v -6 6 -1
v -6 6 -4
v -6 7 4
v -6 7 3
v -6 7 2
v -6 7 1
v -6 7 -1
v -6 7 -2
v -6 7 -3
v -6 7 -4
v -6 8 7
v -6 8 6
v -6 8 5
v -6 8 3
v -6 8 2
v -6 8 -2
v -6 8 -3
v -6 8 -5
v -6 8 -6
v -6 8 -7
v -5 0 6
v -5 0 5
v -5 0 -5
v -5 0 -6
v -5 1 4
v -5 1 1
v -5 1 -1
v -5 1 -4
v -5 2 4
v -5 2 1
v -5 2 -1
v -5 2 -4
v -5 6 4
v -5 6 3
v -5 6 2
v -5 6 1
v -5 6 -1
v -5 6 -2
v -5 6 -3
v -5 6 -4
v -5 7 4
v -5 7 3
v -5 7 2
v -5 7 1
v -5 7 -1
v -5 7 -2
v -5 7 -3
v -5 7 -4
v -5 8 6
v -5 8 5
v -5 8 3
v -5 8 2
v -5 8 -2
v -5 8 -3
v -5 8 -5
v -5 8 -6
v 8 0 -7
v 8 0 -8
v 8 8 -7
v 8 8 -8
v -8 0 8
v -8 8 8
v -7 0 8
v -7 8 8
v -7 0 7
v -7 8 7
v -6 0 7
v -6 8 7
v -6 0 6
v -6 8 6
v -5 0 6
v -5 8 6
v -6 1 4
v -6 2 4
v -6 6 4
v -6 7 4
v -5 1 4
v -5 2 4
v -5 6 4
v -5 7 4
v -6 7 3
v -6 8 3
v -5 7 3
v -5 8 3
v -7 6 2
v -7 7 2
v -5 6 2
v -5 7 2
v -7 2 1
v -7 6 1
v -6 2 1
v -6 6 1
v -6 1 -1
v -6 2 -1
v -6 6 -1
v -6 7 -1
v -5 1 -1
v -5 2 -1
v -5 6 -1
v -5 7 -1
v -6 7 -2
v -6 8 -2
v -5 7 -2
v -5 8 -2
v -7 6 -3
v -7 7 -3
v -5 6 -3
v -5 7 -3
v -7 2 -4
v -7 6 -4
v -6 2 -4
v -6 6 -4
v -6 0 -5
v -6 8 -5
v -5 0 -5
v -5 8 -5
v 7 0 -7
v 7 8 -7
v 8 0 -7
v 8 8 -7
v -6 0 5
v -6 8 5
v -5 0 5
v -5 8 5
v -7 2 4
v -7 6 4
v -6 2 4
v -6 6 4
v -7 6 3
v -7 7 3
v -5 6 3
v -5 7 3
v -6 7 2
v -6 8 2
v -5 7 2
v -5 8 2
v -6 1 1
v -6 2 1
v -6 6 1
v -6 7 1
v -5 1 1
v -5 2 1
v -5 6 1
v -5 7 1
v -7 2 -1
v -7 6 -1
v -6 2 -1
v -6 6 -1
v -7 6 -2
v -7 7 -2
v -5 6 -2
v -5 7 -2
v -6 7 -3
v -6 8 -3
v -5 7 -3
v -5 8 -3
v -6 1 -4
v -6 2 -4
v -6 6 -4
v -6 7 -4
v -5 1 -4
v -5 2 -4
v -5 6 -4
v -5 7 -4
v -6 0 -6
v -6 8 -6
v -5 0 -6
v -5 8 -6
v -7 0 -7
v -7 8 -7
v -6 0 -7
v -6 8 -7
v -8 0 -8
v -8 8 -8
v -7 0 -8
v -7 8 -8
v 7 0 -8
v 7 8 -8
v 8 0 -8
v 8 8 -8
v -8 0 8
v -7 0 8
v -7 0 7
v -6 0 7
v -6 0 6
v -5 0 6
v -6 0 5
v -5 0 5
v -6 0 -5
v -5 0 -5
v -6 0 -6
v -5 0 -6
v -7 0 -7
v -6 0 -7
v 7 0 -7
v 8 0 -7
v -8 0 -8
v -7 0 -8
v 7 0 -8
v 8 0 -8
v -6 1 4
v -5 1 4
v -6 1 1
v -5 1 1
v -6 1 -1
v -5 1 -1
v -6 1 -4
v -5 1 -4
v -7 6 4
v -6 6 4
v -5 6 4
v -7 6 3
v -5 6 3
v -7 6 2
v -5 6 2
v -7 6 1
v -6 6 1
v -5 6 1
v -7 6 -1
v -6 6 -1
v -5 6 -1
v -7 6 -2
v -5 6 -2
v -7 6 -3
v -5 6 -3
v -7 6 -4
v -6 6 -4
v -5 6 -4
v -7 7 3
v -5 7 3
v -7 7 2
v -5 7 2
v -7 7 -2
v -5 7 -2
v -7 7 -3
v -5 7 -3
v -7 2 4
v -6 2 4
v -5 2 4
v -7 2 1
v -6 2 1
v -5 2 1
v -7 2 -1
v -6 2 -1
v -5 2 -1
v -7 2 -4
v -6 2 -4
v -5 2 -4
v -6 7 4
v -5 7 4
v -6 7 3
v -5 7 3
v -6 7 2
v -5 7 2
v -6 7 1
v -5 7 1
v -6 7 -1
v -5 7 -1
v -6 7 -2
v -5 7 -2
v -6 7 -3
v -5 7 -3
v -6 7 -4
v -5 7 -4
v -8 8 8
v -7 8 8
v -7 8 7
v -6 8 7
v -6 8 6
v -5 8 6
v -6 8 5
v -5 8 5
v -6 8 3
v -5 8 3
v -6 8 2
v -5 8 2
v -6 8 -2
v -5 8 -2
v -6 8 -3
v -5 8 -3
v -6 8 -5
v -5 8 -5
v -6 8 -6
v -5 8 -6
v -7 8 -7
v -6 8 -7
v 7 8 -7
v 8 8 -7
v -8 8 -8
v -7 8 -8
v 7 8 -8
v 8 8 -8

# faces
f 3/2/1 2/2/1 1/2/1
f 4/2/1 2/2/1 3/2/1
f 5/2/1 2/2/1 4/2/1
f 6/2/1 2/2/1 5/2/1
f 7/2/1 3/2/1 1/2/1
f 7/1/1 4/1/1 3/1/1
f 8/1/1 4/1/1 7/1/1
f 9/1/1 4/1/1 8/1/1
f 10/2/1 5/2/1 4/2/1
f 10/1/1 4/1/1 9/1/1
f 11/1/1 6/1/1 5/1/1
f 11/2/1 5/2/1 10/2/1
f 12/1/1 6/1/1 11/1/1
f 13/1/1 6/1/1 12/1/1
f 14/2/1 2/2/1 6/2/1
f 14/1/1 6/1/1 13/1/1
f 15/1/1 9/1/1 8/1/1
f 15/2/1 8/2/1 7/2/1
f 16/2/1 10/2/1 9/2/1
f 16/1/1 9/1/1 15/1/1
f 16/2/1 11/2/1 10/2/1
f 16/2/1 12/2/1 11/2/1
f 17/1/1 13/1/1 12/1/1
f 17/2/1 12/2/1 16/2/1
f 18/2/1 14/2/1 13/2/1
f 18/1/1 13/1/1 17/1/1
f 19/2/1 16/2/1 15/2/1
f 19/2/1 15/2/1 7/2/1
f 19/2/1 18/2/1 17/2/1
f 19/2/1 17/2/1 16/2/1
f 19/2/1 7/2/1 1/2/1
f 20/2/1 14/2/1 18/2/1
f 20/2/1 18/2/1 19/2/1
f 20/2/1 2/2/1 14/2/1
f 23/2/1 22/2/1 21/2/1
f 24/2/1 22/2/1 23/2/1
f 29/1/2 30/1/2 33/1/2
f 33/1/2 30/1/2 34/1/2
f 34/1/2 30/1/2 35/1/2
f 35/1/2 30/1/2 36/1/2
f 31/1/2 32/1/2 37/1/2
f 37/1/2 32/1/2 38/1/2
f 38/1/2 32/1/2 39/1/2
f 39/1/2 32/1/2 40/1/2
f 34/1/2 35/1/2 41/1/2
f 41/1/2 35/1/2 42/1/2
f 38/1/2 39/1/2 43/1/2
f 43/1/2 39/1/2 44/1/2
f 25/2/2 26/2/2 45/2/2
f 45/2/2 26/2/2 46/2/2
f 27/2/2 28/2/2 47/2/2
f 47/2/2 28/2/2 48/2/2
f 51/2/2 52/2/2 55/2/2
f 55/2/2 52/2/2 56/2/2
f 56/2/2 52/2/2 57/2/2
f 57/2/2 52/2/2 58/2/2
f 51/2/2 55/2/2 59/2/2
f 56/2/2 57/2/2 60/2/2
f 60/2/2 57/2/2 61/2/2
f 58/2/2 52/2/2 62/2/2
f 51/2/2 59/2/2 63/2/2
f 60/2/2 61/2/2 64/2/2
f 64/2/2 61/2/2 65/2/2
f 62/2/2 52/2/2 66/2/2
f 51/2/2 63/2/2 67/2/2
f 64/2/2 65/2/2 70/2/2
f 70/2/2 65/2/2 71/2/2
f 66/2/2 52/2/2 74/2/2
f 49/2/2 50/2/2 75/2/2
f 75/2/2 50/2/2 76/2/2
f 67/2/2 68/2/2 77/2/2
f 51/2/2 67/2/2 77/2/2
f 77/2/2 68/2/2 78/2/2
f 71/2/2 72/2/2 79/2/2
f 69/2/2 70/2/2 79/2/2
f 70/2/2 71/2/2 79/2/2
f 79/2/2 72/2/2 80/2/2
f 73/2/2 74/2/2 81/2/2
f 74/2/2 52/2/2 82/2/2
f 81/2/2 74/2/2 82/2/2
f 53/2/2 54/2/2 83/2/2
f 83/2/2 54/2/2 84/2/2
f 89/2/2 90/2/2 93/2/2
f 93/2/2 90/2/2 94/2/2
f 91/2/2 92/2/2 95/2/2
f 95/2/2 92/2/2 96/2/2
f 97/2/2 98/2/2 105/2/2
f 105/2/2 98/2/2 106/2/2
f 99/2/2 100/2/2 107/2/2
f 107/2/2 100/2/2 108/2/2
f 101/2/2 102/2/2 109/2/2
f 109/2/2 102/2/2 110/2/2
f 103/2/2 104/2/2 111/2/2
f 111/2/2 104/2/2 112/2/2
f 85/2/2 86/2/2 113/2/2
f 113/2/2 86/2/2 114/2/2
f 106/2/2 107/2/2 115/2/2
f 115/2/2 107/2/2 116/2/2
f 110/2/2 111/2/2 117/2/2
f 117/2/2 111/2/2 118/2/2
f 87/2/2 88/2/2 119/2/2
f 119/2/2 88/2/2 120/2/2
f 121/2/2 122/2/2 123/2/2
f 123/2/2 122/2/2 124/2/2
f 127/2/3 126/2/3 125/2/3
f 128/2/3 126/2/3 127/2/3
f 131/2/3 130/2/3 129/2/3
f 132/2/3 130/2/3 131/2/3
f 135/2/3 134/2/3 133/2/3
f 136/2/3 134/2/3 135/2/3
f 141/2/3 138/2/3 137/2/3
f 142/2/3 138/2/3 141/2/3
f 143/2/3 140/2/3 139/2/3
f 144/2/3 140/2/3 143/2/3
f 147/2/3 146/2/3 145/2/3
f 148/2/3 146/2/3 147/2/3
f 151/2/3 150/2/3 149/2/3
f 152/2/3 150/2/3 151/2/3
f 155/2/3 154/2/3 153/2/3
f 156/2/3 154/2/3 155/2/3
f 161/2/3 158/2/3 157/2/3
f 162/2/3 158/2/3 161/2/3
f 163/2/3 160/2/3 159/2/3
f 164/2/3 160/2/3 163/2/3
f 167/2/3 166/2/3 165/2/3
f 168/2/3 166/2/3 167/2/3
f 171/2/3 170/2/3 169/2/3
f 172/2/3 170/2/3 171/2/3
f 175/2/3 174/2/3 173/2/3
f 176/2/3 174/2/3 175/2/3
f 179/2/3 178/2/3 177/2/3
f 180/2/3 178/2/3 179/2/3
f 183/2/3 182/2/3 181/2/3
f 184/2/3 182/2/3 183/2/3
f 185/2/4 186/2/4 187/2/4
f 187/2/4 186/2/4 188/2/4
f 189/2/4 190/2/4 191/2/4
f 191/2/4 190/2/4 192/2/4
f 193/2/4 194/2/4 195/2/4
f 195/2/4 194/2/4 196/2/4
f 197/2/4 198/2/4 199/2/4
f 199/2/4 198/2/4 200/2/4
f 201/2/4 202/2/4 205/2/4
f 205/2/4 202/2/4 206/2/4
f 203/2/4 204/2/4 207/2/4
f 207/2/4 204/2/4 208/2/4
f 209/2/4 210/2/4 211/2/4
f 211/2/4 210/2/4 212/2/4
f 213/2/4 214/2/4 215/2/4
f 215/2/4 214/2/4 216/2/4
f 217/2/4 218/2/4 219/2/4
f 219/2/4 218/2/4 220/2/4
f 221/2/4 222/2/4 225/2/4
f 225/2/4 222/2/4 226/2/4
f 223/2/4 224/2/4 227/2/4
f 227/2/4 224/2/4 228/2/4
f 229/2/4 230/2/4 231/2/4
f 231/2/4 230/2/4 232/2/4
f 233/2/4 234/2/4 235/2/4
f 235/2/4 234/2/4 236/2/4
f 237/2/4 238/2/4 239/2/4
f 239/2/4 238/2/4 240/2/4
f 241/2/4 242/2/4 243/2/4
f 243/2/4 242/2/4 244/2/4
f 247/2/5 246/2/5 245/2/5
f 249/2/5 248/2/5 247/2/5
f 251/2/5 249/2/5 247/2/5
f 251/2/5 250/2/5 249/2/5
f 252/2/5 250/2/5 251/2/5
f 253/2/5 251/2/5 247/2/5
f 255/2/5 253/2/5 247/2/5
f 255/2/5 254/2/5 253/2/5
f 256/2/5 254/2/5 255/2/5
f 257/2/5 247/2/5 245/2/5
f 257/2/5 255/2/5 247/2/5
f 258/2/5 255/2/5 257/2/5
f 261/2/5 257/2/5 245/2/5
f 262/2/5 257/2/5 261/2/5
f 263/2/5 260/2/5 259/2/5
f 264/2/5 260/2/5 263/2/5
f 267/2/5 266/2/5 265/2/5
f 268/2/5 266/2/5 267/2/5
f 271/2/5 270/2/5 269/2/5
f 272/2/5 270/2/5 271/2/5
f 276/2/5 274/2/5 273/2/5
f 276/2/5 275/2/5 274/2/5
f 277/2/5 275/2/5 276/2/5
f 280/2/5 279/2/5 278/2/5
f 281/2/5 279/2/5 280/2/5
f 282/2/5 279/2/5 281/2/5
f 286/2/5 284/2/5 283/2/5
f 286/2/5 285/2/5 284/2/5
f 287/2/5 285/2/5 286/2/5
f 290/2/5 289/2/5 288/2/5
f 291/2/5 289/2/5 290/2/5
f 292/2/5 289/2/5 291/2/5
f 295/2/5 294/2/5 293/2/5
f 296/2/5 294/2/5 295/2/5
f 299/2/5 298/2/5 297/2/5
f 300/2/5 298/2/5 299/2/5
f 301/2/6 302/2/6 304/2/6
f 302/2/6 303/2/6 304/2/6
f 304/2/6 303/2/6 305/2/6
f 305/2/6 303/2/6 306/2/6
f 307/2/6 308/2/6 310/2/6
f 308/2/6 309/2/6 310/2/6
f 310/2/6 309/2/6 311/2/6
f 311/2/6 309/2/6 312/2/6
f 313/2/6 314/2/6 315/2/6
f 315/2/6 314/2/6 316/2/6
f 317/2/6 318/2/6 319/2/6
f 319/2/6 318/2/6 320/2/6
f 321/2/6 322/2/6 323/2/6
f 323/2/6 322/2/6 324/2/6
f 325/2/6 326/2/6 327/2/6
f 327/2/6 326/2/6 328/2/6
f 329/2/6 330/2/6 331/2/6
f 331/2/6 332/2/6 333/2/6
f 331/2/6 333/2/6 335/2/6
f 333/2/6 334/2/6 335/2/6
f 335/2/6 334/2/6 336/2/6
f 331/2/6 335/2/6 337/2/6
f 331/2/6 337/2/6 339/2/6
f 337/2/6 338/2/6 339/2/6
f 339/2/6 338/2/6 340/2/6
f 331/2/6 339/2/6 341/2/6
f 331/2/6 341/2/6 343/2/6
f 341/2/6 342/2/6 343/2/6
f 343/2/6 342/2/6 344/2/6
f 331/2/6 343/2/6 345/2/6
f 331/2/6 345/2/6 347/2/6
f 345/2/6 346/2/6 347/2/6
f 347/2/6 346/2/6 348/2/6
f 329/2/6 331/2/6 349/2/6
f 331/2/6 347/2/6 349/2/6
f 349/2/6 347/2/6 350/2/6
f 329/2/6 349/2/6 353/2/6
f 353/2/6 349/2/6 354/2/6
f 351/2/6 352/2/6 355/2/6
f 355/2/6 352/2/6 356/2/6
