# MagicaVoxel @ Ephtracy

# group
g towar-33

# material
mtllib towar-33.mtl
usemtl palette

# normals
vn -1 0 0
vn 1 0 0
vn 0 0 1
vn 0 0 -1
vn 0 -1 0
vn 0 1 0

# texcoords
vt 0.748047 0.5
vt 0.927734 0.5

# verts
v -8 0 8
v -8 0 -8
v -8 2 4
v -8 2 1
v -8 2 -1
v -8 2 -4
v -8 6 4
v -8 6 3
v -8 6 2
v -8 6 1
v -8 6 -1
v -8 6 -2
v -8 6 -3
v -8 6 -4
v -8 7 3
v -8 7 2
v -8 7 -2
v -8 7 -3
v -8 8 8
v -8 8 -8
v -4 1 -5
v -4 1 -6
v -4 2 -5
v -4 2 -6
v -4 6 -5
v -4 6 -6
v -4 7 -5
v -4 7 -6
v -3 7 -5
v -3 7 -6
v -3 8 -5
v -3 8 -6
v -2 6 -5
v -2 6 -7
v -2 7 -5
v -2 7 -7
v -1 2 -6
v -1 2 -7
v -1 6 -6
v -1 6 -7
v 1 1 -5
v 1 1 -6
v 1 2 -5
v 1 2 -6
v 1 6 -5
v 1 6 -6
v 1 7 -5
v 1 7 -6
v 2 7 -5
v 2 7 -6
v 2 8 -5
v 2 8 -6
v 3 6 -5
v 3 6 -7
v 3 7 -5
v 3 7 -7
v 4 2 -6
v 4 2 -7
v 4 6 -6
v 4 6 -7
v 5 0 -5
v 5 0 -6
v 5 8 -5
v 5 8 -6
v 7 0 8
v 7 0 7
v 7 8 8
v 7 8 7
v -7 0 8
v -7 0 7
v -7 2 4
v -7 2 1
v -7 2 -1
v -7 2 -4
v -7 6 4
v -7 6 3
v -7 6 2
v -7 6 1
v -7 6 -1
v -7 6 -2
v -7 6 -3
v -7 6 -4
v -7 7 3
v -7 7 2
v -7 7 -2
v -7 7 -3
v -7 8 8
v -7 8 7
v -6 0 7
v -6 0 6
v -6 0 5
v -6 0 -5
v -6 1 4
v -6 1 1
v -6 1 -1
v -6 1 -4
v -6 2 4
v -6 2 1
v -6 2 -1
v -6 2 -4
v -6 6 4
v -6 6 1
v -6 6 -1
v -6 6 -4
v -6 7 4
v -6 7 3
v -6 7 2
v -6 7 1
v -6 7 -1
v -6 7 -2
v -6 7 -3
v -6 7 -4
v -6 8 7
v -6 8 6
v -6 8 5
v -6 8 3
v -6 8 2
v -6 8 -2
v -6 8 -3
v -6 8 -5
v -5 0 6
v -5 0 5
v -5 0 -5
v -5 0 -6
v -5 1 4
v -5 1 1
v -5 1 -1
v -5 1 -4
v -5 2 4
v -5 2 1
v -5 2 -1
v -5 2 -4
v -5 6 4
v -5 6 3
v -5 6 2
v -5 6 1
v -5 6 -1
v -5 6 -2
v -5 6 -3
v -5 6 -4
v -5 7 4
v -5 7 3
v -5 7 2
v -5 7 1
v -5 7 -1
v -5 7 -2
v -5 7 -3
v -5 7 -4
v -5 8 6
v -5 8 5
v -5 8 3
v -5 8 2
v -5 8 -2
v -5 8 -3
v -5 8 -5
v -5 8 -6
v -4 2 -6
v -4 2 -7
v -4 6 -6
v -4 6 -7
v -3 6 -5
v -3 6 -7
v -3 7 -5
v -3 7 -7
v -2 7 -5
v -2 7 -6
v -2 8 -5
v -2 8 -6
v -1 1 -5
v -1 1 -6
v -1 2 -5
v -1 2 -6
v -1 6 -5
v -1 6 -6
v -1 7 -5
v -1 7 -6
v 1 2 -6
v 1 2 -7
v 1 6 -6
v 1 6 -7
v 2 6 -5
v 2 6 -7
v 2 7 -5
v 2 7 -7
v 3 7 -5
v 3 7 -6
v 3 8 -5
v 3 8 -6
v 4 1 -5
v 4 1 -6
v 4 2 -5
v 4 2 -6
v 4 6 -5
v 4 6 -6
v 4 7 -5
v 4 7 -6
v 6 0 -5
v 6 0 -6
v 6 8 -5
v 6 8 -6
v 7 0 -6
v 7 0 -7
v 7 8 -6
v 7 8 -7
v 8 0 8
v 8 0 7
v 8 0 -7
v 8 0 -8
v 8 8 8
v 8 8 7
v 8 8 -7
v 8 8 -8
v -8 0 8
v -8 8 8
v -7 0 8
v -7 8 8
v 7 0 8
v 7 8 8
v 8 0 8
v 8 8 8
v -7 0 7
v -7 8 7
v -6 0 7
v -6 8 7
v -6 0 6
v -6 8 6
v -5 0 6
v -5 8 6
v -6 1 4
v -6 2 4
v -6 6 4
v -6 7 4
v -5 1 4
v -5 2 4
v -5 6 4
v -5 7 4
v -6 7 3
v -6 8 3
v -5 7 3
v -5 8 3
v -7 6 2
v -7 7 2
v -5 6 2
v -5 7 2
v -7 2 1
v -7 6 1
v -6 2 1
v -6 6 1
v -6 1 -1
v -6 2 -1
v -6 6 -1
v -6 7 -1
v -5 1 -1
v -5 2 -1
v -5 6 -1
v -5 7 -1
v -6 7 -2
v -6 8 -2
v -5 7 -2
v -5 8 -2
v -7 6 -3
v -7 7 -3
v -5 6 -3
v -5 7 -3
v -7 2 -4
v -7 6 -4
v -6 2 -4
v -6 6 -4
v -6 0 -5
v -6 8 -5
v -5 0 -5
v -5 8 -5
v -4 1 -5
v -4 2 -5
v -4 6 -5
v -4 7 -5
v -3 6 -5
v -3 7 -5
v -3 8 -5
v -2 6 -5
v -2 7 -5
v -2 8 -5
v -1 1 -5
v -1 2 -5
v -1 6 -5
v -1 7 -5
v 1 1 -5
v 1 2 -5
v 1 6 -5
v 1 7 -5
v 2 6 -5
v 2 7 -5
v 2 8 -5
v 3 6 -5
v 3 7 -5
v 3 8 -5
v 4 1 -5
v 4 2 -5
v 4 6 -5
v 4 7 -5
v 5 0 -5
v 5 8 -5
v 6 0 -5
v 6 8 -5
v -5 0 -6
v -5 8 -6
v -4 1 -6
v -4 2 -6
v -4 6 -6
v -4 7 -6
v -3 7 -6
v -3 8 -6
v -2 7 -6
v -2 8 -6
v -1 1 -6
v -1 2 -6
v -1 6 -6
v -1 7 -6
v 1 1 -6
v 1 2 -6
v 1 6 -6
v 1 7 -6
v 2 7 -6
v 2 8 -6
v 3 7 -6
v 3 8 -6
v 4 1 -6
v 4 2 -6
v 4 6 -6
v 4 7 -6
v 5 0 -6
v 5 8 -6
v 6 0 -6
v 6 8 -6
v 7 0 -6
v 7 8 -6
v -4 2 -7
v -4 6 -7
v -3 6 -7
v -3 7 -7
v -2 6 -7
v -2 7 -7
v -1 2 -7
v -1 6 -7
v 1 2 -7
v 1 6 -7
v 2 6 -7
v 2 7 -7
v 3 6 -7
v 3 7 -7
v 4 2 -7
v 4 6 -7
v 7 0 -7
v 7 8 -7
v 8 0 -7
v 8 8 -7
v 7 0 7
v 7 8 7
v 8 0 7
v 8 8 7
v -6 0 5
v -6 8 5
v -5 0 5
v -5 8 5
v -7 2 4
v -7 6 4
v -6 2 4
v -6 6 4
v -7 6 3
v -7 7 3
v -5 6 3
v -5 7 3
v -6 7 2
v -6 8 2
v -5 7 2
v -5 8 2
v -6 1 1
v -6 2 1
v -6 6 1
v -6 7 1
v -5 1 1
v -5 2 1
v -5 6 1
v -5 7 1
v -7 2 -1
v -7 6 -1
v -6 2 -1
v -6 6 -1
v -7 6 -2
v -7 7 -2
v -5 6 -2
v -5 7 -2
v -6 7 -3
v -6 8 -3
v -5 7 -3
v -5 8 -3
v -6 1 -4
v -6 2 -4
v -6 6 -4
v -6 7 -4
v -5 1 -4
v -5 2 -4
v -5 6 -4
v -5 7 -4
v -8 0 -8
v -8 8 -8
v -4 2 -8
v -4 6 -8
v -3 6 -8
v -3 7 -8
v -2 6 -8
v -2 7 -8
v -1 2 -8
v -1 6 -8
v 1 2 -8
v 1 6 -8
v 2 6 -8
v 2 7 -8
v 3 6 -8
v 3 7 -8
v 4 2 -8
v 4 6 -8
v 8 0 -8
v 8 8 -8
v -8 0 8
v -7 0 8
v 7 0 8
v 8 0 8
v -7 0 7
v -6 0 7
v 7 0 7
v 8 0 7
v -6 0 6
v -5 0 6
v -6 0 5
v -5 0 5
v -6 0 -5
v -5 0 -5
v 5 0 -5
v 6 0 -5
v -5 0 -6
v 5 0 -6
v 6 0 -6
v 7 0 -6
v 7 0 -7
v 8 0 -7
v -8 0 -8
v 8 0 -8
v -6 1 4
v -5 1 4
v -6 1 1
v -5 1 1
v -6 1 -1
v -5 1 -1
v -6 1 -4
v -5 1 -4
v -4 1 -5
v -1 1 -5
v 1 1 -5
v 4 1 -5
v -4 1 -6
v -1 1 -6
v 1 1 -6
v 4 1 -6
v -7 6 4
v -6 6 4
v -5 6 4
v -7 6 3
v -5 6 3
v -7 6 2
v -5 6 2
v -7 6 1
v -6 6 1
v -5 6 1
v -7 6 -1
v -6 6 -1
v -5 6 -1
v -7 6 -2
v -5 6 -2
v -7 6 -3
v -5 6 -3
v -7 6 -4
v -6 6 -4
v -5 6 -4
v -4 6 -5
v -3 6 -5
v -2 6 -5
v -1 6 -5
v 1 6 -5
v 2 6 -5
v 3 6 -5
v 4 6 -5
v -4 6 -6
v -1 6 -6
v 1 6 -6
v 4 6 -6
v -4 6 -7
v -3 6 -7
v -2 6 -7
v -1 6 -7
v 1 6 -7
v 2 6 -7
v 3 6 -7
v 4 6 -7
v -7 7 3
v -5 7 3
v -7 7 2
v -5 7 2
v -7 7 -2
v -5 7 -2
v -7 7 -3
v -5 7 -3
v -3 7 -5
v -2 7 -5
v 2 7 -5
v 3 7 -5
v -3 7 -7
v -2 7 -7
v 2 7 -7
v 3 7 -7
v -7 2 4
v -6 2 4
v -5 2 4
v -7 2 1
v -6 2 1
v -5 2 1
v -7 2 -1
v -6 2 -1
v -5 2 -1
v -7 2 -4
v -6 2 -4
v -5 2 -4
v -4 2 -5
v -1 2 -5
v 1 2 -5
v 4 2 -5
v -4 2 -6
v -1 2 -6
v 1 2 -6
v 4 2 -6
v -4 2 -7
v -1 2 -7
v 1 2 -7
v 4 2 -7
v -6 7 4
v -5 7 4
v -6 7 3
v -5 7 3
v -6 7 2
v -5 7 2
v -6 7 1
v -5 7 1
v -6 7 -1
v -5 7 -1
v -6 7 -2
v -5 7 -2
v -6 7 -3
v -5 7 -3
v -6 7 -4
v -5 7 -4
v -4 7 -5
v -3 7 -5
v -2 7 -5
v -1 7 -5
v 1 7 -5
v 2 7 -5
v 3 7 -5
v 4 7 -5
v -4 7 -6
v -3 7 -6
v -2 7 -6
v -1 7 -6
v 1 7 -6
v 2 7 -6
v 3 7 -6
v 4 7 -6
v -8 8 8
v -7 8 8
v 7 8 8
v 8 8 8
v -7 8 7
v -6 8 7
v 7 8 7
v 8 8 7
v -6 8 6
v -5 8 6
v -6 8 5
v -5 8 5
v -6 8 3
v -5 8 3
v -6 8 2
v -5 8 2
v -6 8 -2
v -5 8 -2
v -6 8 -3
v -5 8 -3
v -6 8 -5
v -5 8 -5
v -3 8 -5
v -2 8 -5
v 2 8 -5
v 3 8 -5
v 5 8 -5
v 6 8 -5
v -5 8 -6
v -3 8 -6
v -2 8 -6
v 2 8 -6
v 3 8 -6
v 5 8 -6
v 6 8 -6
v 7 8 -6
v 7 8 -7
v 8 8 -7
v -8 8 -8
v 8 8 -8

# faces
f 3/2/1 2/2/1 1/2/1
f 4/2/1 2/2/1 3/2/1
f 5/2/1 2/2/1 4/2/1
f 6/2/1 2/2/1 5/2/1
f 7/2/1 3/2/1 1/2/1
f 7/1/1 4/1/1 3/1/1
f 8/1/1 4/1/1 7/1/1
f 9/1/1 4/1/1 8/1/1
f 10/2/1 5/2/1 4/2/1
f 10/1/1 4/1/1 9/1/1
f 11/1/1 6/1/1 5/1/1
f 11/2/1 5/2/1 10/2/1
f 12/1/1 6/1/1 11/1/1
f 13/1/1 6/1/1 12/1/1
f 14/2/1 2/2/1 6/2/1
f 14/1/1 6/1/1 13/1/1
f 15/1/1 9/1/1 8/1/1
f 15/2/1 8/2/1 7/2/1
f 16/2/1 10/2/1 9/2/1
f 16/1/1 9/1/1 15/1/1
f 16/2/1 11/2/1 10/2/1
f 16/2/1 12/2/1 11/2/1
f 17/1/1 13/1/1 12/1/1
f 17/2/1 12/2/1 16/2/1
f 18/2/1 14/2/1 13/2/1
f 18/1/1 13/1/1 17/1/1
f 19/2/1 16/2/1 15/2/1
f 19/2/1 15/2/1 7/2/1
f 19/2/1 18/2/1 17/2/1
f 19/2/1 17/2/1 16/2/1
f 19/2/1 7/2/1 1/2/1
f 20/2/1 14/2/1 18/2/1
f 20/2/1 18/2/1 19/2/1
f 20/2/1 2/2/1 14/2/1
f 23/2/1 22/2/1 21/2/1
f 24/2/1 22/2/1 23/2/1
f 27/2/1 26/2/1 25/2/1
f 28/2/1 26/2/1 27/2/1
f 31/2/1 30/2/1 29/2/1
f 32/2/1 30/2/1 31/2/1
f 35/2/1 34/2/1 33/2/1
f 36/2/1 34/2/1 35/2/1
f 39/2/1 38/2/1 37/2/1
f 40/2/1 38/2/1 39/2/1
f 43/2/1 42/2/1 41/2/1
f 44/2/1 42/2/1 43/2/1
f 47/2/1 46/2/1 45/2/1
f 48/2/1 46/2/1 47/2/1
f 51/2/1 50/2/1 49/2/1
f 52/2/1 50/2/1 51/2/1
f 55/2/1 54/2/1 53/2/1
f 56/2/1 54/2/1 55/2/1
f 59/2/1 58/2/1 57/2/1
f 60/2/1 58/2/1 59/2/1
f 63/2/1 62/2/1 61/2/1
f 64/2/1 62/2/1 63/2/1
f 67/2/1 66/2/1 65/2/1
f 68/2/1 66/2/1 67/2/1
f 71/1/2 72/1/2 75/1/2
f 75/1/2 72/1/2 76/1/2
f 76/1/2 72/1/2 77/1/2
f 77/1/2 72/1/2 78/1/2
f 73/1/2 74/1/2 79/1/2
f 79/1/2 74/1/2 80/1/2
f 80/1/2 74/1/2 81/1/2
f 81/1/2 74/1/2 82/1/2
f 76/1/2 77/1/2 83/1/2
f 83/1/2 77/1/2 84/1/2
f 80/1/2 81/1/2 85/1/2
f 85/1/2 81/1/2 86/1/2
f 69/2/2 70/2/2 87/2/2
f 87/2/2 70/2/2 88/2/2
f 91/2/2 92/2/2 93/2/2
f 93/2/2 92/2/2 94/2/2
f 94/2/2 92/2/2 95/2/2
f 95/2/2 92/2/2 96/2/2
f 91/2/2 93/2/2 97/2/2
f 94/2/2 95/2/2 98/2/2
f 98/2/2 95/2/2 99/2/2
f 96/2/2 92/2/2 100/2/2
f 91/2/2 97/2/2 101/2/2
f 98/2/2 99/2/2 102/2/2
f 102/2/2 99/2/2 103/2/2
f 100/2/2 92/2/2 104/2/2
f 91/2/2 101/2/2 105/2/2
f 102/2/2 103/2/2 108/2/2
f 108/2/2 103/2/2 109/2/2
f 104/2/2 92/2/2 112/2/2
f 89/2/2 90/2/2 113/2/2
f 113/2/2 90/2/2 114/2/2
f 105/2/2 106/2/2 115/2/2
f 91/2/2 105/2/2 115/2/2
f 115/2/2 106/2/2 116/2/2
f 109/2/2 110/2/2 117/2/2
f 107/2/2 108/2/2 117/2/2
f 108/2/2 109/2/2 117/2/2
f 117/2/2 110/2/2 118/2/2
f 111/2/2 112/2/2 119/2/2
f 112/2/2 92/2/2 120/2/2
f 119/2/2 112/2/2 120/2/2
f 125/2/2 126/2/2 129/2/2
f 129/2/2 126/2/2 130/2/2
f 127/2/2 128/2/2 131/2/2
f 131/2/2 128/2/2 132/2/2
f 133/2/2 134/2/2 141/2/2
f 141/2/2 134/2/2 142/2/2
f 135/2/2 136/2/2 143/2/2
f 143/2/2 136/2/2 144/2/2
f 137/2/2 138/2/2 145/2/2
f 145/2/2 138/2/2 146/2/2
f 139/2/2 140/2/2 147/2/2
f 147/2/2 140/2/2 148/2/2
f 121/2/2 122/2/2 149/2/2
f 149/2/2 122/2/2 150/2/2
f 142/2/2 143/2/2 151/2/2
f 151/2/2 143/2/2 152/2/2
f 146/2/2 147/2/2 153/2/2
f 153/2/2 147/2/2 154/2/2
f 123/2/2 124/2/2 155/2/2
f 155/2/2 124/2/2 156/2/2
f 157/2/2 158/2/2 159/2/2
f 159/2/2 158/2/2 160/2/2
f 161/2/2 162/2/2 163/2/2
f 163/2/2 162/2/2 164/2/2
f 165/2/2 166/2/2 167/2/2
f 167/2/2 166/2/2 168/2/2
f 169/2/2 170/2/2 171/2/2
f 171/2/2 170/2/2 172/2/2
f 173/2/2 174/2/2 175/2/2
f 175/2/2 174/2/2 176/2/2
f 177/2/2 178/2/2 179/2/2
f 179/2/2 178/2/2 180/2/2
f 181/2/2 182/2/2 183/2/2
f 183/2/2 182/2/2 184/2/2
f 185/2/2 186/2/2 187/2/2
f 187/2/2 186/2/2 188/2/2
f 189/2/2 190/2/2 191/2/2
f 191/2/2 190/2/2 192/2/2
f 193/2/2 194/2/2 195/2/2
f 195/2/2 194/2/2 196/2/2
f 197/2/2 198/2/2 199/2/2
f 199/2/2 198/2/2 200/2/2
f 201/2/2 202/2/2 203/2/2
f 203/2/2 202/2/2 204/2/2
f 205/2/2 206/2/2 209/2/2
f 209/2/2 206/2/2 210/2/2
f 207/2/2 208/2/2 211/2/2
f 211/2/2 208/2/2 212/2/2
f 215/2/3 214/2/3 213/2/3
f 216/2/3 214/2/3 215/2/3
f 219/2/3 218/2/3 217/2/3
f 220/2/3 218/2/3 219/2/3
f 223/2/3 222/2/3 221/2/3
f 224/2/3 222/2/3 223/2/3
f 227/2/3 226/2/3 225/2/3
f 228/2/3 226/2/3 227/2/3
f 233/2/3 230/2/3 229/2/3
f 234/2/3 230/2/3 233/2/3
f 235/2/3 232/2/3 231/2/3
f 236/2/3 232/2/3 235/2/3
f 239/2/3 238/2/3 237/2/3
f 240/2/3 238/2/3 239/2/3
f 243/2/3 242/2/3 241/2/3
f 244/2/3 242/2/3 243/2/3
f 247/2/3 246/2/3 245/2/3
f 248/2/3 246/2/3 247/2/3
f 253/2/3 250/2/3 249/2/3
f 254/2/3 250/2/3 253/2/3
f 255/2/3 252/2/3 251/2/3
f 256/2/3 252/2/3 255/2/3
f 259/2/3 258/2/3 257/2/3
f 260/2/3 258/2/3 259/2/3
f 263/2/3 262/2/3 261/2/3
f 264/2/3 262/2/3 263/2/3
f 267/2/3 266/2/3 265/2/3
f 268/2/3 266/2/3 267/2/3
f 271/2/3 270/2/3 269/2/3
f 272/2/3 270/2/3 271/2/3
f 277/2/3 276/2/3 275/2/3
f 278/2/3 276/2/3 277/2/3
f 281/2/3 279/2/3 278/2/3
f 282/2/3 279/2/3 281/2/3
f 283/2/3 274/2/3 273/2/3
f 284/2/3 274/2/3 283/2/3
f 285/2/3 281/2/3 280/2/3
f 286/2/3 281/2/3 285/2/3
f 291/2/3 290/2/3 289/2/3
f 292/2/3 290/2/3 291/2/3
f 295/2/3 293/2/3 292/2/3
f 296/2/3 293/2/3 295/2/3
f 297/2/3 288/2/3 287/2/3
f 298/2/3 288/2/3 297/2/3
f 299/2/3 295/2/3 294/2/3
f 300/2/3 295/2/3 299/2/3
f 303/2/3 302/2/3 301/2/3
f 304/2/3 302/2/3 303/2/3
f 307/2/3 306/2/3 305/2/3
f 308/2/3 306/2/3 307/2/3
f 309/2/3 306/2/3 308/2/3
f 310/2/3 306/2/3 309/2/3
f 311/2/3 306/2/3 310/2/3
f 312/2/3 306/2/3 311/2/3
f 315/2/3 307/2/3 305/2/3
f 318/2/3 314/2/3 313/2/3
f 319/2/3 317/2/3 316/2/3
f 319/2/3 318/2/3 317/2/3
f 319/2/3 315/2/3 305/2/3
f 319/2/3 316/2/3 315/2/3
f 320/2/3 318/2/3 319/2/3
f 321/2/3 318/2/3 320/2/3
f 322/2/3 314/2/3 318/2/3
f 322/2/3 318/2/3 321/2/3
f 323/2/3 314/2/3 322/2/3
f 324/2/3 314/2/3 323/2/3
f 327/2/3 319/2/3 305/2/3
f 330/2/3 326/2/3 325/2/3
f 331/2/3 329/2/3 328/2/3
f 331/2/3 330/2/3 329/2/3
f 331/2/3 327/2/3 305/2/3
f 331/2/3 328/2/3 327/2/3
f 332/2/3 326/2/3 330/2/3
f 332/2/3 330/2/3 331/2/3
f 335/2/3 334/2/3 333/2/3
f 336/2/3 334/2/3 335/2/3
f 339/1/3 338/1/3 337/1/3
f 341/1/3 339/1/3 337/1/3
f 341/1/3 340/1/3 339/1/3
f 342/1/3 340/1/3 341/1/3
f 343/1/3 341/1/3 337/1/3
f 344/1/3 341/1/3 343/1/3
f 347/1/3 346/1/3 345/1/3
f 349/1/3 347/1/3 345/1/3
f 349/1/3 348/1/3 347/1/3
f 350/1/3 348/1/3 349/1/3
f 351/1/3 349/1/3 345/1/3
f 352/1/3 349/1/3 351/1/3
f 355/2/3 354/2/3 353/2/3
f 356/2/3 354/2/3 355/2/3
f 357/2/4 358/2/4 359/2/4
f 359/2/4 358/2/4 360/2/4
f 361/2/4 362/2/4 363/2/4
f 363/2/4 362/2/4 364/2/4
f 365/2/4 366/2/4 367/2/4
f 367/2/4 366/2/4 368/2/4
f 369/2/4 370/2/4 371/2/4
f 371/2/4 370/2/4 372/2/4
f 373/2/4 374/2/4 375/2/4
f 375/2/4 374/2/4 376/2/4
f 377/2/4 378/2/4 381/2/4
f 381/2/4 378/2/4 382/2/4
f 379/2/4 380/2/4 383/2/4
f 383/2/4 380/2/4 384/2/4
f 385/2/4 386/2/4 387/2/4
f 387/2/4 386/2/4 388/2/4
f 389/2/4 390/2/4 391/2/4
f 391/2/4 390/2/4 392/2/4
f 393/2/4 394/2/4 395/2/4
f 395/2/4 394/2/4 396/2/4
f 397/2/4 398/2/4 401/2/4
f 401/2/4 398/2/4 402/2/4
f 399/2/4 400/2/4 403/2/4
f 403/2/4 400/2/4 404/2/4
f 405/2/4 406/2/4 407/2/4
f 407/2/4 406/2/4 408/2/4
f 407/1/4 408/1/4 409/1/4
f 408/2/4 406/2/4 409/2/4
f 409/2/4 406/2/4 410/2/4
f 407/1/4 409/1/4 411/1/4
f 409/1/4 410/1/4 411/1/4
f 410/2/4 406/2/4 412/2/4
f 411/1/4 410/1/4 412/1/4
f 405/2/4 407/2/4 413/2/4
f 407/1/4 411/1/4 413/1/4
f 411/2/4 412/2/4 414/2/4
f 413/1/4 411/1/4 414/1/4
f 405/2/4 413/2/4 415/2/4
f 413/2/4 414/2/4 415/2/4
f 414/2/4 412/2/4 416/2/4
f 415/2/4 414/2/4 416/2/4
f 415/1/4 416/1/4 417/1/4
f 416/2/4 412/2/4 417/2/4
f 412/2/4 406/2/4 418/2/4
f 417/2/4 412/2/4 418/2/4
f 415/1/4 417/1/4 419/1/4
f 417/1/4 418/1/4 419/1/4
f 418/2/4 406/2/4 420/2/4
f 419/1/4 418/1/4 420/1/4
f 415/1/4 419/1/4 421/1/4
f 405/2/4 415/2/4 421/2/4
f 419/2/4 420/2/4 422/2/4
f 421/1/4 419/1/4 422/1/4
f 405/2/4 421/2/4 423/2/4
f 421/2/4 422/2/4 423/2/4
f 420/2/4 406/2/4 424/2/4
f 423/2/4 422/2/4 424/2/4
f 422/2/4 420/2/4 424/2/4
f 429/2/5 426/2/5 425/2/5
f 431/2/5 428/2/5 427/2/5
f 432/2/5 428/2/5 431/2/5
f 433/2/5 430/2/5 429/2/5
f 435/2/5 433/2/5 429/2/5
f 435/2/5 434/2/5 433/2/5
f 436/2/5 434/2/5 435/2/5
f 437/2/5 435/2/5 429/2/5
f 441/2/5 438/2/5 437/2/5
f 442/2/5 440/2/5 439/2/5
f 443/2/5 440/2/5 442/2/5
f 445/2/5 442/2/5 441/2/5
f 445/2/5 444/2/5 443/2/5
f 445/2/5 443/2/5 442/2/5
f 447/2/5 429/2/5 425/2/5
f 447/2/5 446/2/5 445/2/5
f 447/2/5 445/2/5 441/2/5
f 447/2/5 441/2/5 437/2/5
f 447/2/5 437/2/5 429/2/5
f 448/2/5 446/2/5 447/2/5
f 451/2/5 450/2/5 449/2/5
f 452/2/5 450/2/5 451/2/5
f 455/2/5 454/2/5 453/2/5
f 456/2/5 454/2/5 455/2/5
f 461/2/5 458/2/5 457/2/5
f 462/2/5 458/2/5 461/2/5
f 463/2/5 460/2/5 459/2/5
f 464/2/5 460/2/5 463/2/5
f 468/2/5 466/2/5 465/2/5
f 468/2/5 467/2/5 466/2/5
f 469/2/5 467/2/5 468/2/5
f 472/2/5 471/2/5 470/2/5
f 473/2/5 471/2/5 472/2/5
f 474/2/5 471/2/5 473/2/5
f 478/2/5 476/2/5 475/2/5
f 478/2/5 477/2/5 476/2/5
f 479/2/5 477/2/5 478/2/5
f 482/2/5 481/2/5 480/2/5
f 483/2/5 481/2/5 482/2/5
f 484/2/5 481/2/5 483/2/5
f 493/2/5 486/2/5 485/2/5
f 494/2/5 488/2/5 487/2/5
f 495/2/5 490/2/5 489/2/5
f 496/2/5 492/2/5 491/2/5
f 497/2/5 486/2/5 493/2/5
f 498/2/5 486/2/5 497/2/5
f 499/2/5 494/2/5 487/2/5
f 500/2/5 494/2/5 499/2/5
f 501/2/5 490/2/5 495/2/5
f 502/2/5 490/2/5 501/2/5
f 503/2/5 496/2/5 491/2/5
f 504/2/5 496/2/5 503/2/5
f 507/2/5 506/2/5 505/2/5
f 508/2/5 506/2/5 507/2/5
f 511/2/5 510/2/5 509/2/5
f 512/2/5 510/2/5 511/2/5
f 517/2/5 514/2/5 513/2/5
f 518/2/5 514/2/5 517/2/5
f 519/2/5 516/2/5 515/2/5
f 520/2/5 516/2/5 519/2/5
f 521/2/6 522/2/6 524/2/6
f 522/2/6 523/2/6 524/2/6
f 524/2/6 523/2/6 525/2/6
f 525/2/6 523/2/6 526/2/6
f 527/2/6 528/2/6 530/2/6
f 528/2/6 529/2/6 530/2/6
f 530/2/6 529/2/6 531/2/6
f 531/2/6 529/2/6 532/2/6
f 533/2/6 534/2/6 537/2/6
f 537/2/6 534/2/6 538/2/6
f 535/2/6 536/2/6 539/2/6
f 539/2/6 536/2/6 540/2/6
f 537/2/6 538/2/6 541/2/6
f 541/2/6 538/2/6 542/2/6
f 539/2/6 540/2/6 543/2/6
f 543/2/6 540/2/6 544/2/6
f 545/2/6 546/2/6 547/2/6
f 547/2/6 546/2/6 548/2/6
f 549/2/6 550/2/6 551/2/6
f 551/2/6 550/2/6 552/2/6
f 553/2/6 554/2/6 555/2/6
f 555/2/6 554/2/6 556/2/6
f 557/2/6 558/2/6 559/2/6
f 559/2/6 558/2/6 560/2/6
f 561/2/6 562/2/6 569/2/6
f 569/2/6 562/2/6 570/2/6
f 563/2/6 564/2/6 571/2/6
f 571/2/6 564/2/6 572/2/6
f 565/2/6 566/2/6 573/2/6
f 573/2/6 566/2/6 574/2/6
f 567/2/6 568/2/6 575/2/6
f 575/2/6 568/2/6 576/2/6
f 577/2/6 578/2/6 581/2/6
f 579/2/6 580/2/6 583/2/6
f 583/2/6 580/2/6 584/2/6
f 581/2/6 582/2/6 585/2/6
f 581/2/6 585/2/6 587/2/6
f 585/2/6 586/2/6 587/2/6
f 587/2/6 586/2/6 588/2/6
f 581/2/6 587/2/6 589/2/6
f 581/2/6 589/2/6 591/2/6
f 589/2/6 590/2/6 591/2/6
f 591/2/6 590/2/6 592/2/6
f 581/2/6 591/2/6 593/2/6
f 581/2/6 593/2/6 595/2/6
f 593/2/6 594/2/6 595/2/6
f 595/2/6 594/2/6 596/2/6
f 581/2/6 595/2/6 597/2/6
f 597/2/6 598/2/6 605/2/6
f 599/2/6 600/2/6 606/2/6
f 606/2/6 600/2/6 607/2/6
f 601/2/6 602/2/6 608/2/6
f 608/2/6 602/2/6 609/2/6
f 603/2/6 604/2/6 610/2/6
f 610/2/6 604/2/6 611/2/6
f 608/2/6 609/2/6 613/2/6
f 611/2/6 612/2/6 613/2/6
f 610/2/6 611/2/6 613/2/6
f 609/2/6 610/2/6 613/2/6
f 606/2/6 607/2/6 613/2/6
f 607/2/6 608/2/6 613/2/6
f 605/2/6 606/2/6 613/2/6
f 577/2/6 581/2/6 615/2/6
f 613/2/6 614/2/6 615/2/6
f 605/2/6 613/2/6 615/2/6
f 581/2/6 597/2/6 615/2/6
f 597/2/6 605/2/6 615/2/6
f 615/2/6 614/2/6 616/2/6
