# MagicaVoxel @ Ephtracy

# group
g towar-35

# material
mtllib towar-35.mtl
usemtl palette

# normals
vn -1 0 0
vn 1 0 0
vn 0 0 1
vn 0 0 -1
vn 0 -1 0
vn 0 1 0

# texcoords
vt 0.591797 0.5
vt 0.748047 0.5
vt 0.927734 0.5

# verts
v -8 0 8
v -8 0 -8
v -8 2 4
v -8 2 1
v -8 2 -1
v -8 2 -4
v -8 6 4
v -8 6 3
v -8 6 2
v -8 6 1
v -8 6 -1
v -8 6 -2
v -8 6 -3
v -8 6 -4
v -8 7 3
v -8 7 2
v -8 7 -2
v -8 7 -3
v -8 8 8
v -8 8 -8
v 5 0 6
v 5 0 5
v 5 0 -5
v 5 0 -6
v 5 1 4
v 5 1 1
v 5 1 -1
v 5 1 -4
v 5 2 4
v 5 2 1
v 5 2 -1
v 5 2 -4
v 5 6 4
v 5 6 3
v 5 6 2
v 5 6 1
v 5 6 -1
v 5 6 -2
v 5 6 -3
v 5 6 -4
v 5 7 4
v 5 7 3
v 5 7 2
v 5 7 1
v 5 7 -1
v 5 7 -2
v 5 7 -3
v 5 7 -4
v 5 8 6
v 5 8 5
v 5 8 3
v 5 8 2
v 5 8 -2
v 5 8 -3
v 5 8 -5
v 5 8 -6
v 6 0 7
v 6 0 6
v 6 0 5
v 6 0 -5
v 6 0 -6
v 6 0 -7
v 6 1 4
v 6 1 1
v 6 1 -1
v 6 1 -4
v 6 2 4
v 6 2 1
v 6 2 -1
v 6 2 -4
v 6 6 4
v 6 6 1
v 6 6 -1
v 6 6 -4
v 6 7 4
v 6 7 3
v 6 7 2
v 6 7 1
v 6 7 -1
v 6 7 -2
v 6 7 -3
v 6 7 -4
v 6 8 7
v 6 8 6
v 6 8 5
v 6 8 3
v 6 8 2
v 6 8 -2
v 6 8 -3
v 6 8 -5
v 6 8 -6
v 6 8 -7
v 7 0 8
v 7 0 7
v 7 0 -7
v 7 0 -8
v 7 2 4
v 7 2 1
v 7 2 -1
v 7 2 -4
v 7 6 4
v 7 6 3
v 7 6 2
v 7 6 1
v 7 6 -1
v 7 6 -2
v 7 6 -3
v 7 6 -4
v 7 7 3
v 7 7 2
v 7 7 -2
v 7 7 -3
v 7 8 8
v 7 8 7
v 7 8 -7
v 7 8 -8
v -7 0 8
v -7 0 7
v -7 0 -7
v -7 0 -8
v -7 2 4
v -7 2 1
v -7 2 -1
v -7 2 -4
v -7 6 4
v -7 6 3
v -7 6 2
v -7 6 1
v -7 6 -1
v -7 6 -2
v -7 6 -3
v -7 6 -4
v -7 7 3
v -7 7 2
v -7 7 -2
v -7 7 -3
v -7 8 8
v -7 8 7
v -7 8 -7
v -7 8 -8
v -6 0 7
v -6 0 6
v -6 0 5
v -6 0 -5
v -6 0 -6
v -6 0 -7
v -6 1 4
v -6 1 1
v -6 1 -1
v -6 1 -4
v -6 2 4
v -6 2 1
v -6 2 -1
v -6 2 -4
v -6 6 4
v -6 6 1
v -6 6 -1
v -6 6 -4
v -6 7 4
v -6 7 3
v -6 7 2
v -6 7 1
v -6 7 -1
v -6 7 -2
v -6 7 -3
v -6 7 -4
v -6 8 7
v -6 8 6
v -6 8 5
v -6 8 3
v -6 8 2
v -6 8 -2
v -6 8 -3
v -6 8 -5
v -6 8 -6
v -6 8 -7
v -5 0 6
v -5 0 5
v -5 0 -5
v -5 0 -6
v -5 1 4
v -5 1 1
v -5 1 -1
v -5 1 -4
v -5 2 4
v -5 2 1
v -5 2 -1
v -5 2 -4
v -5 6 4
v -5 6 3
v -5 6 2
v -5 6 1
v -5 6 -1
v -5 6 -2
v -5 6 -3
v -5 6 -4
v -5 7 4
v -5 7 3
v -5 7 2
v -5 7 1
v -5 7 -1
v -5 7 -2
v -5 7 -3
v -5 7 -4
v -5 8 6
v -5 8 5
v -5 8 3
v -5 8 2
v -5 8 -2
v -5 8 -3
v -5 8 -5
v -5 8 -6
v 8 0 8
v 8 0 -8
v 8 2 4
v 8 2 1
v 8 2 -1
v 8 2 -4
v 8 6 4
v 8 6 3
v 8 6 2
v 8 6 1
v 8 6 -1
v 8 6 -2
v 8 6 -3
v 8 6 -4
v 8 7 3
v 8 7 2
v 8 7 -2
v 8 7 -3
v 8 8 8
v 8 8 -8
v -8 0 8
v -8 8 8
v -7 0 8
v -7 8 8
v 7 0 8
v 7 8 8
v 8 0 8
v 8 8 8
v -7 0 7
v -7 8 7
v -6 0 7
v -6 8 7
v 6 0 7
v 6 8 7
v 7 0 7
v 7 8 7
v -6 0 6
v -6 8 6
v -5 0 6
v -5 8 6
v 5 0 6
v 5 8 6
v 6 0 6
v 6 8 6
v -6 1 4
v -6 2 4
v -6 6 4
v -6 7 4
v -5 1 4
v -5 2 4
v -5 6 4
v -5 7 4
v 5 1 4
v 5 2 4
v 5 6 4
v 5 7 4
v 6 1 4
v 6 2 4
v 6 6 4
v 6 7 4
v -6 7 3
v -6 8 3
v -5 7 3
v -5 8 3
v 5 7 3
v 5 8 3
v 6 7 3
v 6 8 3
v -7 6 2
v -7 7 2
v -5 6 2
v -5 7 2
v 5 6 2
v 5 7 2
v 7 6 2
v 7 7 2
v -7 2 1
v -7 6 1
v -6 2 1
v -6 6 1
v 6 2 1
v 6 6 1
v 7 2 1
v 7 6 1
v -6 1 -1
v -6 2 -1
v -6 6 -1
v -6 7 -1
v -5 1 -1
v -5 2 -1
v -5 6 -1
v -5 7 -1
v 5 1 -1
v 5 2 -1
v 5 6 -1
v 5 7 -1
v 6 1 -1
v 6 2 -1
v 6 6 -1
v 6 7 -1
v -6 7 -2
v -6 8 -2
v -5 7 -2
v -5 8 -2
v 5 7 -2
v 5 8 -2
v 6 7 -2
v 6 8 -2
v -7 6 -3
v -7 7 -3
v -5 6 -3
v -5 7 -3
v 5 6 -3
v 5 7 -3
v 7 6 -3
v 7 7 -3
v -7 2 -4
v -7 6 -4
v -6 2 -4
v -6 6 -4
v 6 2 -4
v 6 6 -4
v 7 2 -4
v 7 6 -4
v -6 0 -5
v -6 8 -5
v -5 0 -5
v -5 8 -5
v 5 0 -5
v 5 8 -5
v 6 0 -5
v 6 8 -5
v -6 0 5
v -6 8 5
v -5 0 5
v -5 8 5
v 5 0 5
v 5 8 5
v 6 0 5
v 6 8 5
v -7 2 4
v -7 6 4
v -6 2 4
v -6 6 4
v 6 2 4
v 6 6 4
v 7 2 4
v 7 6 4
v -7 6 3
v -7 7 3
v -5 6 3
v -5 7 3
v 5 6 3
v 5 7 3
v 7 6 3
v 7 7 3
v -6 7 2
v -6 8 2
v -5 7 2
v -5 8 2
v 5 7 2
v 5 8 2
v 6 7 2
v 6 8 2
v -6 1 1
v -6 2 1
v -6 6 1
v -6 7 1
v -5 1 1
v -5 2 1
v -5 6 1
v -5 7 1
v 5 1 1
v 5 2 1
v 5 6 1
v 5 7 1
v 6 1 1
v 6 2 1
v 6 6 1
v 6 7 1
v -7 2 -1
v -7 6 -1
v -6 2 -1
v -6 6 -1
v 6 2 -1
v 6 6 -1
v 7 2 -1
v 7 6 -1
v -7 6 -2
v -7 7 -2
v -5 6 -2
v -5 7 -2
v 5 6 -2
v 5 7 -2
v 7 6 -2
v 7 7 -2
v -6 7 -3
v -6 8 -3
v -5 7 -3
v -5 8 -3
v 5 7 -3
v 5 8 -3
v 6 7 -3
v 6 8 -3
v -6 1 -4
v -6 2 -4
v -6 6 -4
v -6 7 -4
v -5 1 -4
v -5 2 -4
v -5 6 -4
v -5 7 -4
v 5 1 -4
v 5 2 -4
v 5 6 -4
v 5 7 -4
v 6 1 -4
v 6 2 -4
v 6 6 -4
v 6 7 -4
v -6 0 -6
v -6 8 -6
v -5 0 -6
v -5 8 -6
v 5 0 -6
v 5 8 -6
v 6 0 -6
v 6 8 -6
v -7 0 -7
v -7 8 -7
v -6 0 -7
v -6 8 -7
v 6 0 -7
v 6 8 -7
v 7 0 -7
v 7 8 -7
v -8 0 -8
v -8 8 -8
v -7 0 -8
v -7 8 -8
v 7 0 -8
v 7 8 -8
v 8 0 -8
v 8 8 -8
v -8 0 8
v -7 0 8
v 7 0 8
v 8 0 8
v -7 0 7
v -6 0 7
v 6 0 7
v 7 0 7
v -7 0 6
v -6 0 6
v -5 0 6
v 5 0 6
v 6 0 6
v -7 0 5
v -6 0 5
v -5 0 5
v 5 0 5
v 6 0 5
v -7 0 -5
v -6 0 -5
v -5 0 -5
v 5 0 -5
v 6 0 -5
v -7 0 -6
v -6 0 -6
v -5 0 -6
v 5 0 -6
v 6 0 -6
v -7 0 -7
v -6 0 -7
v 6 0 -7
v 7 0 -7
v -8 0 -8
v -7 0 -8
v 7 0 -8
v 8 0 -8
v -6 1 4
v -5 1 4
v 5 1 4
v 6 1 4
v -6 1 1
v -5 1 1
v 5 1 1
v 6 1 1
v -6 1 -1
v -5 1 -1
v 5 1 -1
v 6 1 -1
v -6 1 -4
v -5 1 -4
v 5 1 -4
v 6 1 -4
v -7 6 4
v -6 6 4
v -5 6 4
v 5 6 4
v 6 6 4
v 7 6 4
v -7 6 3
v -5 6 3
v 5 6 3
v 7 6 3
v -7 6 2
v -5 6 2
v 5 6 2
v 7 6 2
v -7 6 1
v -6 6 1
v -5 6 1
v 5 6 1
v 6 6 1
v 7 6 1
v -7 6 -1
v -6 6 -1
v -5 6 -1
v 5 6 -1
v 6 6 -1
v 7 6 -1
v -7 6 -2
v -5 6 -2
v 5 6 -2
v 7 6 -2
v -7 6 -3
v -5 6 -3
v 5 6 -3
v 7 6 -3
v -7 6 -4
v -6 6 -4
v -5 6 -4
v 5 6 -4
v 6 6 -4
v 7 6 -4
v -7 7 3
v -5 7 3
v 5 7 3
v 7 7 3
v -7 7 2
v -5 7 2
v 5 7 2
v 7 7 2
v -7 7 -2
v -5 7 -2
v 5 7 -2
v 7 7 -2
v -7 7 -3
v -5 7 -3
v 5 7 -3
v 7 7 -3
v -7 2 4
v -6 2 4
v -5 2 4
v 5 2 4
v 6 2 4
v 7 2 4
v -7 2 1
v -6 2 1
v -5 2 1
v 5 2 1
v 6 2 1
v 7 2 1
v -7 2 -1
v -6 2 -1
v -5 2 -1
v 5 2 -1
v 6 2 -1
v 7 2 -1
v -7 2 -4
v -6 2 -4
v -5 2 -4
v 5 2 -4
v 6 2 -4
v 7 2 -4
v -6 7 4
v -5 7 4
v 5 7 4
v 6 7 4
v -6 7 3
v -5 7 3
v 5 7 3
v 6 7 3
v -6 7 2
v -5 7 2
v 5 7 2
v 6 7 2
v -6 7 1
v -5 7 1
v 5 7 1
v 6 7 1
v -6 7 -1
v -5 7 -1
v 5 7 -1
v 6 7 -1
v -6 7 -2
v -5 7 -2
v 5 7 -2
v 6 7 -2
v -6 7 -3
v -5 7 -3
v 5 7 -3
v 6 7 -3
v -6 7 -4
v -5 7 -4
v 5 7 -4
v 6 7 -4
v -8 8 8
v -7 8 8
v 7 8 8
v 8 8 8
v -7 8 7
v -6 8 7
v 6 8 7
v 7 8 7
v -6 8 6
v -5 8 6
v 5 8 6
v 6 8 6
v -6 8 5
v -5 8 5
v 5 8 5
v 6 8 5
v -6 8 3
v -5 8 3
v 5 8 3
v 6 8 3
v -6 8 2
v -5 8 2
v 5 8 2
v 6 8 2
v -6 8 -2
v -5 8 -2
v 5 8 -2
v 6 8 -2
v -6 8 -3
v -5 8 -3
v 5 8 -3
v 6 8 -3
v -6 8 -5
v -5 8 -5
v 5 8 -5
v 6 8 -5
v -6 8 -6
v -5 8 -6
v 5 8 -6
v 6 8 -6
v -7 8 -7
v -6 8 -7
v 6 8 -7
v 7 8 -7
v -8 8 -8
v -7 8 -8
v 7 8 -8
v 8 8 -8

# faces
f 3/3/1 2/3/1 1/3/1
f 4/3/1 2/3/1 3/3/1
f 5/3/1 2/3/1 4/3/1
f 6/3/1 2/3/1 5/3/1
f 7/3/1 3/3/1 1/3/1
f 7/2/1 4/2/1 3/2/1
f 8/2/1 4/2/1 7/2/1
f 9/2/1 4/2/1 8/2/1
f 10/3/1 5/3/1 4/3/1
f 10/2/1 4/2/1 9/2/1
f 11/2/1 6/2/1 5/2/1
f 11/3/1 5/3/1 10/3/1
f 12/2/1 6/2/1 11/2/1
f 13/2/1 6/2/1 12/2/1
f 14/3/1 2/3/1 6/3/1
f 14/2/1 6/2/1 13/2/1
f 15/2/1 9/2/1 8/2/1
f 15/3/1 8/3/1 7/3/1
f 16/3/1 10/3/1 9/3/1
f 16/2/1 9/2/1 15/2/1
f 16/3/1 11/3/1 10/3/1
f 16/3/1 12/3/1 11/3/1
f 17/2/1 13/2/1 12/2/1
f 17/3/1 12/3/1 16/3/1
f 18/3/1 14/3/1 13/3/1
f 18/2/1 13/2/1 17/2/1
f 19/3/1 16/3/1 15/3/1
f 19/3/1 15/3/1 7/3/1
f 19/3/1 18/3/1 17/3/1
f 19/3/1 17/3/1 16/3/1
f 19/3/1 7/3/1 1/3/1
f 20/3/1 14/3/1 18/3/1
f 20/3/1 18/3/1 19/3/1
f 20/3/1 2/3/1 14/3/1
f 29/3/1 26/3/1 25/3/1
f 30/3/1 26/3/1 29/3/1
f 31/3/1 28/3/1 27/3/1
f 32/3/1 28/3/1 31/3/1
f 41/3/1 34/3/1 33/3/1
f 42/3/1 34/3/1 41/3/1
f 43/3/1 36/3/1 35/3/1
f 44/3/1 36/3/1 43/3/1
f 45/3/1 38/3/1 37/3/1
f 46/3/1 38/3/1 45/3/1
f 47/3/1 40/3/1 39/3/1
f 48/3/1 40/3/1 47/3/1
f 49/3/1 22/3/1 21/3/1
f 50/3/1 22/3/1 49/3/1
f 51/3/1 43/3/1 42/3/1
f 52/3/1 43/3/1 51/3/1
f 53/3/1 47/3/1 46/3/1
f 54/3/1 47/3/1 53/3/1
f 55/3/1 24/3/1 23/3/1
f 56/3/1 24/3/1 55/3/1
f 63/3/1 60/3/1 59/3/1
f 64/3/1 60/3/1 63/3/1
f 65/3/1 60/3/1 64/3/1
f 66/3/1 60/3/1 65/3/1
f 67/3/1 63/3/1 59/3/1
f 68/3/1 65/3/1 64/3/1
f 69/3/1 65/3/1 68/3/1
f 70/3/1 60/3/1 66/3/1
f 71/3/1 67/3/1 59/3/1
f 72/3/1 69/3/1 68/3/1
f 73/3/1 69/3/1 72/3/1
f 74/3/1 60/3/1 70/3/1
f 75/3/1 71/3/1 59/3/1
f 78/3/1 73/3/1 72/3/1
f 79/3/1 73/3/1 78/3/1
f 82/3/1 60/3/1 74/3/1
f 83/3/1 58/3/1 57/3/1
f 84/3/1 58/3/1 83/3/1
f 85/3/1 76/3/1 75/3/1
f 85/3/1 75/3/1 59/3/1
f 86/3/1 76/3/1 85/3/1
f 87/3/1 80/3/1 79/3/1
f 87/3/1 78/3/1 77/3/1
f 87/3/1 79/3/1 78/3/1
f 88/3/1 80/3/1 87/3/1
f 89/3/1 82/3/1 81/3/1
f 90/3/1 60/3/1 82/3/1
f 90/3/1 82/3/1 89/3/1
f 91/3/1 62/3/1 61/3/1
f 92/3/1 62/3/1 91/3/1
f 101/2/1 98/2/1 97/2/1
f 102/2/1 98/2/1 101/2/1
f 103/2/1 98/2/1 102/2/1
f 104/2/1 98/2/1 103/2/1
f 105/2/1 100/2/1 99/2/1
f 106/2/1 100/2/1 105/2/1
f 107/2/1 100/2/1 106/2/1
f 108/2/1 100/2/1 107/2/1
f 109/2/1 103/2/1 102/2/1
f 110/2/1 103/2/1 109/2/1
f 111/2/1 107/2/1 106/2/1
f 112/2/1 107/2/1 111/2/1
f 113/3/1 94/3/1 93/3/1
f 114/3/1 94/3/1 113/3/1
f 115/3/1 96/3/1 95/3/1
f 116/3/1 96/3/1 115/3/1
f 121/2/2 122/2/2 125/2/2
f 125/2/2 122/2/2 126/2/2
f 126/2/2 122/2/2 127/2/2
f 127/2/2 122/2/2 128/2/2
f 123/2/2 124/2/2 129/2/2
f 129/2/2 124/2/2 130/2/2
f 130/2/2 124/2/2 131/2/2
f 131/2/2 124/2/2 132/2/2
f 126/2/2 127/2/2 133/2/2
f 133/2/2 127/2/2 134/2/2
f 130/2/2 131/2/2 135/2/2
f 135/2/2 131/2/2 136/2/2
f 117/3/2 118/3/2 137/3/2
f 137/3/2 118/3/2 138/3/2
f 119/3/2 120/3/2 139/3/2
f 139/3/2 120/3/2 140/3/2
f 143/3/2 144/3/2 147/3/2
f 147/3/2 144/3/2 148/3/2
f 148/3/2 144/3/2 149/3/2
f 149/3/2 144/3/2 150/3/2
f 143/3/2 147/3/2 151/3/2
f 148/3/2 149/3/2 152/3/2
f 152/3/2 149/3/2 153/3/2
f 150/3/2 144/3/2 154/3/2
f 143/3/2 151/3/2 155/3/2
f 152/3/2 153/3/2 156/3/2
f 156/3/2 153/3/2 157/3/2
f 154/3/2 144/3/2 158/3/2
f 143/3/2 155/3/2 159/3/2
f 156/3/2 157/3/2 162/3/2
f 162/3/2 157/3/2 163/3/2
f 158/3/2 144/3/2 166/3/2
f 141/3/2 142/3/2 167/3/2
f 167/3/2 142/3/2 168/3/2
f 159/3/2 160/3/2 169/3/2
f 143/3/2 159/3/2 169/3/2
f 169/3/2 160/3/2 170/3/2
f 163/3/2 164/3/2 171/3/2
f 161/3/2 162/3/2 171/3/2
f 162/3/2 163/3/2 171/3/2
f 171/3/2 164/3/2 172/3/2
f 165/3/2 166/3/2 173/3/2
f 166/3/2 144/3/2 174/3/2
f 173/3/2 166/3/2 174/3/2
f 145/3/2 146/3/2 175/3/2
f 175/3/2 146/3/2 176/3/2
f 181/3/2 182/3/2 185/3/2
f 185/3/2 182/3/2 186/3/2
f 183/3/2 184/3/2 187/3/2
f 187/3/2 184/3/2 188/3/2
f 189/3/2 190/3/2 197/3/2
f 197/3/2 190/3/2 198/3/2
f 191/3/2 192/3/2 199/3/2
f 199/3/2 192/3/2 200/3/2
f 193/3/2 194/3/2 201/3/2
f 201/3/2 194/3/2 202/3/2
f 195/3/2 196/3/2 203/3/2
f 203/3/2 196/3/2 204/3/2
f 177/3/2 178/3/2 205/3/2
f 205/3/2 178/3/2 206/3/2
f 198/3/2 199/3/2 207/3/2
f 207/3/2 199/3/2 208/3/2
f 202/3/2 203/3/2 209/3/2
f 209/3/2 203/3/2 210/3/2
f 179/3/2 180/3/2 211/3/2
f 211/3/2 180/3/2 212/3/2
f 213/3/2 214/3/2 215/3/2
f 215/3/2 214/3/2 216/3/2
f 216/3/2 214/3/2 217/3/2
f 217/3/2 214/3/2 218/3/2
f 213/3/2 215/3/2 219/3/2
f 215/2/2 216/2/2 219/2/2
f 219/2/2 216/2/2 220/2/2
f 220/2/2 216/2/2 221/2/2
f 216/3/2 217/3/2 222/3/2
f 221/2/2 216/2/2 222/2/2
f 217/2/2 218/2/2 223/2/2
f 222/3/2 217/3/2 223/3/2
f 223/2/2 218/2/2 224/2/2
f 224/2/2 218/2/2 225/2/2
f 218/3/2 214/3/2 226/3/2
f 225/2/2 218/2/2 226/2/2
f 220/2/2 221/2/2 227/2/2
f 219/3/2 220/3/2 227/3/2
f 221/3/2 222/3/2 228/3/2
f 227/2/2 221/2/2 228/2/2
f 222/3/2 223/3/2 228/3/2
f 223/3/2 224/3/2 228/3/2
f 224/2/2 225/2/2 229/2/2
f 228/3/2 224/3/2 229/3/2
f 225/3/2 226/3/2 230/3/2
f 229/2/2 225/2/2 230/2/2
f 227/3/2 228/3/2 231/3/2
f 219/3/2 227/3/2 231/3/2
f 229/3/2 230/3/2 231/3/2
f 228/3/2 229/3/2 231/3/2
f 213/3/2 219/3/2 231/3/2
f 230/3/2 226/3/2 232/3/2
f 231/3/2 230/3/2 232/3/2
f 226/3/2 214/3/2 232/3/2
f 235/3/3 234/3/3 233/3/3
f 236/3/3 234/3/3 235/3/3
f 239/3/3 238/3/3 237/3/3
f 240/3/3 238/3/3 239/3/3
f 243/3/3 242/3/3 241/3/3
f 244/3/3 242/3/3 243/3/3
f 247/3/3 246/3/3 245/3/3
f 248/3/3 246/3/3 247/3/3
f 251/3/3 250/3/3 249/3/3
f 252/3/3 250/3/3 251/3/3
f 255/3/3 254/3/3 253/3/3
f 256/3/3 254/3/3 255/3/3
f 261/3/3 258/3/3 257/3/3
f 262/3/3 258/3/3 261/3/3
f 263/3/3 260/3/3 259/3/3
f 264/3/3 260/3/3 263/3/3
f 269/3/3 266/3/3 265/3/3
f 270/3/3 266/3/3 269/3/3
f 271/3/3 268/3/3 267/3/3
f 272/3/3 268/3/3 271/3/3
f 275/3/3 274/3/3 273/3/3
f 276/3/3 274/3/3 275/3/3
f 279/3/3 278/3/3 277/3/3
f 280/3/3 278/3/3 279/3/3
f 283/3/3 282/3/3 281/3/3
f 284/3/3 282/3/3 283/3/3
f 287/3/3 286/3/3 285/3/3
f 288/3/3 286/3/3 287/3/3
f 291/3/3 290/3/3 289/3/3
f 292/3/3 290/3/3 291/3/3
f 295/3/3 294/3/3 293/3/3
f 296/3/3 294/3/3 295/3/3
f 301/3/3 298/3/3 297/3/3
f 302/3/3 298/3/3 301/3/3
f 303/3/3 300/3/3 299/3/3
f 304/3/3 300/3/3 303/3/3
f 309/3/3 306/3/3 305/3/3
f 310/3/3 306/3/3 309/3/3
f 311/3/3 308/3/3 307/3/3
f 312/3/3 308/3/3 311/3/3
f 315/3/3 314/3/3 313/3/3
f 316/3/3 314/3/3 315/3/3
f 319/3/3 318/3/3 317/3/3
f 320/3/3 318/3/3 319/3/3
f 323/3/3 322/3/3 321/3/3
f 324/3/3 322/3/3 323/3/3
f 327/3/3 326/3/3 325/3/3
f 328/3/3 326/3/3 327/3/3
f 331/3/3 330/3/3 329/3/3
f 332/3/3 330/3/3 331/3/3
f 335/3/3 334/3/3 333/3/3
f 336/3/3 334/3/3 335/3/3
f 339/3/3 338/3/3 337/3/3
f 340/3/3 338/3/3 339/3/3
f 343/3/3 342/3/3 341/3/3
f 344/3/3 342/3/3 343/3/3
f 345/3/4 346/3/4 347/3/4
f 347/3/4 346/3/4 348/3/4
f 349/3/4 350/3/4 351/3/4
f 351/3/4 350/3/4 352/3/4
f 353/3/4 354/3/4 355/3/4
f 355/3/4 354/3/4 356/3/4
f 357/3/4 358/3/4 359/3/4
f 359/3/4 358/3/4 360/3/4
f 361/3/4 362/3/4 363/3/4
f 363/3/4 362/3/4 364/3/4
f 365/3/4 366/3/4 367/3/4
f 367/3/4 366/3/4 368/3/4
f 369/3/4 370/3/4 371/3/4
f 371/3/4 370/3/4 372/3/4
f 373/3/4 374/3/4 375/3/4
f 375/3/4 374/3/4 376/3/4
f 377/3/4 378/3/4 381/3/4
f 381/3/4 378/3/4 382/3/4
f 379/3/4 380/3/4 383/3/4
f 383/3/4 380/3/4 384/3/4
f 385/3/4 386/3/4 389/3/4
f 389/3/4 386/3/4 390/3/4
f 387/3/4 388/3/4 391/3/4
f 391/3/4 388/3/4 392/3/4
f 393/3/4 394/3/4 395/3/4
f 395/3/4 394/3/4 396/3/4
f 397/3/4 398/3/4 399/3/4
f 399/3/4 398/3/4 400/3/4
f 401/3/4 402/3/4 403/3/4
f 403/3/4 402/3/4 404/3/4
f 405/3/4 406/3/4 407/3/4
f 407/3/4 406/3/4 408/3/4
f 409/3/4 410/3/4 411/3/4
f 411/3/4 410/3/4 412/3/4
f 413/3/4 414/3/4 415/3/4
f 415/3/4 414/3/4 416/3/4
f 417/3/4 418/3/4 421/3/4
f 421/3/4 418/3/4 422/3/4
f 419/3/4 420/3/4 423/3/4
f 423/3/4 420/3/4 424/3/4
f 425/3/4 426/3/4 429/3/4
f 429/3/4 426/3/4 430/3/4
f 427/3/4 428/3/4 431/3/4
f 431/3/4 428/3/4 432/3/4
f 433/3/4 434/3/4 435/3/4
f 435/3/4 434/3/4 436/3/4
f 437/3/4 438/3/4 439/3/4
f 439/3/4 438/3/4 440/3/4
f 441/3/4 442/3/4 443/3/4
f 443/3/4 442/3/4 444/3/4
f 445/3/4 446/3/4 447/3/4
f 447/3/4 446/3/4 448/3/4
f 449/3/4 450/3/4 451/3/4
f 451/3/4 450/3/4 452/3/4
f 453/3/4 454/3/4 455/3/4
f 455/3/4 454/3/4 456/3/4
f 461/3/5 458/3/5 457/3/5
f 464/3/5 460/3/5 459/3/5
f 465/3/5 462/3/5 461/3/5
f 465/3/5 461/3/5 457/3/5
f 466/3/5 462/3/5 465/3/5
f 469/3/5 464/3/5 463/3/5
f 470/3/5 465/3/5 457/3/5
f 470/1/5 466/1/5 465/1/5
f 471/3/5 467/3/5 466/3/5
f 471/1/5 466/1/5 470/1/5
f 472/3/5 467/3/5 471/3/5
f 473/3/5 469/3/5 468/3/5
f 474/3/5 464/3/5 469/3/5
f 474/3/5 469/3/5 473/3/5
f 475/3/5 470/3/5 457/3/5
f 475/3/5 471/3/5 470/3/5
f 476/3/5 471/3/5 475/3/5
f 479/3/5 464/3/5 474/3/5
f 480/3/5 475/3/5 457/3/5
f 480/1/5 476/1/5 475/1/5
f 481/3/5 477/3/5 476/3/5
f 481/1/5 476/1/5 480/1/5
f 482/3/5 477/3/5 481/3/5
f 483/3/5 479/3/5 478/3/5
f 484/3/5 464/3/5 479/3/5
f 484/3/5 479/3/5 483/3/5
f 485/3/5 480/3/5 457/3/5
f 485/3/5 481/3/5 480/3/5
f 486/3/5 481/3/5 485/3/5
f 487/3/5 464/3/5 484/3/5
f 488/3/5 460/3/5 464/3/5
f 488/3/5 464/3/5 487/3/5
f 489/3/5 485/3/5 457/3/5
f 490/3/5 485/3/5 489/3/5
f 491/3/5 460/3/5 488/3/5
f 492/3/5 460/3/5 491/3/5
f 497/3/5 494/3/5 493/3/5
f 498/3/5 494/3/5 497/3/5
f 499/3/5 496/3/5 495/3/5
f 500/3/5 496/3/5 499/3/5
f 505/3/5 502/3/5 501/3/5
f 506/3/5 502/3/5 505/3/5
f 507/3/5 504/3/5 503/3/5
f 508/3/5 504/3/5 507/3/5
f 515/3/5 510/3/5 509/3/5
f 515/3/5 511/3/5 510/3/5
f 516/3/5 511/3/5 515/3/5
f 517/3/5 514/3/5 513/3/5
f 517/3/5 513/3/5 512/3/5
f 518/3/5 514/3/5 517/3/5
f 523/3/5 520/3/5 519/3/5
f 524/3/5 520/3/5 523/3/5
f 525/3/5 520/3/5 524/3/5
f 526/3/5 522/3/5 521/3/5
f 527/3/5 522/3/5 526/3/5
f 528/3/5 522/3/5 527/3/5
f 535/3/5 530/3/5 529/3/5
f 535/3/5 531/3/5 530/3/5
f 536/3/5 531/3/5 535/3/5
f 537/3/5 534/3/5 533/3/5
f 537/3/5 533/3/5 532/3/5
f 538/3/5 534/3/5 537/3/5
f 543/3/5 540/3/5 539/3/5
f 544/3/5 540/3/5 543/3/5
f 545/3/5 540/3/5 544/3/5
f 546/3/5 542/3/5 541/3/5
f 547/3/5 542/3/5 546/3/5
f 548/3/5 542/3/5 547/3/5
f 553/3/5 550/3/5 549/3/5
f 554/3/5 550/3/5 553/3/5
f 555/3/5 552/3/5 551/3/5
f 556/3/5 552/3/5 555/3/5
f 561/3/5 558/3/5 557/3/5
f 562/3/5 558/3/5 561/3/5
f 563/3/5 560/3/5 559/3/5
f 564/3/5 560/3/5 563/3/5
f 565/3/6 566/3/6 571/3/6
f 566/3/6 567/3/6 571/3/6
f 571/3/6 567/3/6 572/3/6
f 572/3/6 567/3/6 573/3/6
f 569/3/6 570/3/6 574/3/6
f 568/3/6 569/3/6 574/3/6
f 574/3/6 570/3/6 575/3/6
f 575/3/6 570/3/6 576/3/6
f 577/3/6 578/3/6 583/3/6
f 578/3/6 579/3/6 583/3/6
f 583/3/6 579/3/6 584/3/6
f 584/3/6 579/3/6 585/3/6
f 581/3/6 582/3/6 586/3/6
f 580/3/6 581/3/6 586/3/6
f 586/3/6 582/3/6 587/3/6
f 587/3/6 582/3/6 588/3/6
f 589/3/6 590/3/6 593/3/6
f 593/3/6 590/3/6 594/3/6
f 591/3/6 592/3/6 595/3/6
f 595/3/6 592/3/6 596/3/6
f 597/3/6 598/3/6 601/3/6
f 601/3/6 598/3/6 602/3/6
f 599/3/6 600/3/6 603/3/6
f 603/3/6 600/3/6 604/3/6
f 605/3/6 606/3/6 609/3/6
f 609/3/6 606/3/6 610/3/6
f 607/3/6 608/3/6 611/3/6
f 611/3/6 608/3/6 612/3/6
f 613/3/6 614/3/6 617/3/6
f 617/3/6 614/3/6 618/3/6
f 615/3/6 616/3/6 619/3/6
f 619/3/6 616/3/6 620/3/6
f 621/3/6 622/3/6 625/3/6
f 623/3/6 624/3/6 628/3/6
f 625/3/6 626/3/6 629/3/6
f 627/3/6 628/3/6 632/3/6
f 629/3/6 630/3/6 633/3/6
f 625/3/6 629/3/6 633/3/6
f 633/3/6 630/3/6 634/3/6
f 631/3/6 632/3/6 635/3/6
f 632/3/6 628/3/6 636/3/6
f 635/3/6 632/3/6 636/3/6
f 625/3/6 633/3/6 637/3/6
f 636/3/6 628/3/6 640/3/6
f 637/3/6 638/3/6 641/3/6
f 625/3/6 637/3/6 641/3/6
f 641/3/6 638/3/6 642/3/6
f 639/3/6 640/3/6 643/3/6
f 640/3/6 628/3/6 644/3/6
f 643/3/6 640/3/6 644/3/6
f 625/3/6 641/3/6 645/3/6
f 644/3/6 628/3/6 648/3/6
f 645/3/6 646/3/6 649/3/6
f 625/3/6 645/3/6 649/3/6
f 649/3/6 646/3/6 650/3/6
f 647/3/6 648/3/6 651/3/6
f 648/3/6 628/3/6 652/3/6
f 651/3/6 648/3/6 652/3/6
f 625/3/6 649/3/6 653/3/6
f 652/3/6 628/3/6 656/3/6
f 653/3/6 654/3/6 657/3/6
f 625/3/6 653/3/6 657/3/6
f 657/3/6 654/3/6 658/3/6
f 655/3/6 656/3/6 659/3/6
f 656/3/6 628/3/6 660/3/6
f 659/3/6 656/3/6 660/3/6
f 621/3/6 625/3/6 661/3/6
f 625/3/6 657/3/6 661/3/6
f 661/3/6 657/3/6 662/3/6
f 660/3/6 628/3/6 663/3/6
f 628/3/6 624/3/6 664/3/6
f 663/3/6 628/3/6 664/3/6
f 621/3/6 661/3/6 665/3/6
f 665/3/6 661/3/6 666/3/6
f 664/3/6 624/3/6 667/3/6
f 667/3/6 624/3/6 668/3/6
