# MagicaVoxel @ Ephtracy

# group
g Towar-1

# material
mtllib Towar-1.mtl
usemtl palette

# normals
vn -1 0 0
vn 1 0 0
vn 0 0 1
vn 0 0 -1
vn 0 -1 0
vn 0 1 0

# texcoords
vt 0.0566406 0.5
vt 0.220703 0.5
vt 0.310547 0.5
vt 0.595703 0.5
vt 0.923828 0.5
vt 0.962891 0.5
vt 0.966797 0.5
vt 0.970703 0.5
vt 0.994141 0.5

# verts
v -8 0 8
v -8 0 -8
v -8 1 8
v -8 1 -8
v -8 8 8
v -8 8 -8
v -6 1 -2
v -6 1 -4
v -6 2 -2
v -6 2 -4
v -6 2 -6
v -6 2 -7
v -6 5 -6
v -6 5 -7
v -1 2 -0
v -1 2 -1
v -1 3 -0
v -1 3 -1
v 0 1 7
v 0 1 3
v 0 1 -4
v 0 1 -7
v 0 2 7
v 0 2 3
v 0 3 7
v 0 3 3
v 0 3 -4
v 0 3 -7
v 1 4 -6
v 1 4 -7
v 1 5 -6
v 1 5 -7
v 3 2 -5
v 3 2 -6
v 3 3 -5
v 3 3 -6
v 4 3 -4
v 4 3 -7
v 4 6 -4
v 4 6 -7
v 6 3 7
v 6 3 3
v 6 4 7
v 6 4 3
v 7 1 3
v 7 1 -4
v 7 4 7
v 7 4 3
v 7 6 -4
v 7 6 -7
v 7 8 7
v 7 8 -7
v -7 1 5
v -7 1 1
v -7 1 -1
v -7 1 -7
v -7 3 1
v -7 3 -1
v -7 6 7
v -7 6 5
v -7 8 7
v -7 8 -7
v -6 2 -0
v -6 2 -1
v -6 3 -0
v -6 3 -1
v -2 1 7
v -2 1 5
v -2 6 7
v -2 6 5
v -1 1 -2
v -1 1 -4
v -1 2 -2
v -1 2 -4
v -1 2 -6
v -1 2 -7
v -1 5 -6
v -1 5 -7
v 0 1 1
v 0 1 -1
v 0 3 1
v 0 3 -1
v 1 2 -5
v 1 2 -6
v 1 3 -5
v 1 3 -6
v 2 4 -6
v 2 4 -7
v 2 5 -6
v 2 5 -7
v 8 0 8
v 8 0 -8
v 8 1 8
v 8 1 -8
v 8 8 8
v 8 8 -8
v -8 0 8
v -8 1 8
v -8 8 8
v 8 0 8
v 8 1 8
v 8 8 8
v -7 1 1
v -7 3 1
v 0 1 1
v 0 3 1
v -6 1 -2
v -6 2 -2
v -1 1 -2
v -1 2 -2
v 0 1 -4
v 0 3 -4
v 4 3 -4
v 4 6 -4
v 7 1 -4
v 7 6 -4
v -6 2 -6
v -6 5 -6
v -1 2 -6
v -1 5 -6
v 1 2 -6
v 1 3 -6
v 1 4 -6
v 1 5 -6
v 2 4 -6
v 2 5 -6
v 3 2 -6
v 3 3 -6
v -7 1 -7
v -7 8 -7
v -6 2 -7
v -6 5 -7
v -1 2 -7
v -1 5 -7
v 0 1 -7
v 0 3 -7
v 1 4 -7
v 1 5 -7
v 2 4 -7
v 2 5 -7
v 4 3 -7
v 4 6 -7
v 7 6 -7
v 7 8 -7
v -7 6 7
v -7 8 7
v -2 1 7
v -2 6 7
v 0 1 7
v 0 2 7
v 0 3 7
v 4 3 7
v 6 3 7
v 6 4 7
v 7 4 7
v 7 8 7
v -7 1 5
v -7 6 5
v -2 1 5
v -2 6 5
v 0 1 3
v 0 2 3
v 0 3 3
v 4 2 3
v 4 3 3
v 6 1 3
v 6 2 3
v 6 3 3
v 6 4 3
v 7 1 3
v 7 4 3
v -6 2 -0
v -6 3 -0
v -1 2 -0
v -1 3 -0
v -7 1 -1
v -7 3 -1
v -6 2 -1
v -6 3 -1
v -1 2 -1
v -1 3 -1
v 0 1 -1
v 0 3 -1
v -6 1 -4
v -6 2 -4
v -1 1 -4
v -1 2 -4
v 1 2 -5
v 1 3 -5
v 3 2 -5
v 3 3 -5
v -8 0 -8
v -8 1 -8
v -8 8 -8
v 8 0 -8
v 8 1 -8
v 8 8 -8
v -8 0 8
v 8 0 8
v -8 0 -8
v 8 0 -8
v -6 2 -6
v -1 2 -6
v -6 2 -7
v -1 2 -7
v 1 4 -6
v 2 4 -6
v 1 4 -7
v 2 4 -7
v -2 1 7
v 0 1 7
v -7 1 5
v -2 1 5
v 0 1 3
v 6 1 3
v 7 1 3
v -7 1 1
v 0 1 1
v -7 1 -1
v 0 1 -1
v -6 1 -2
v -1 1 -2
v -6 1 -4
v -1 1 -4
v 0 1 -4
v 7 1 -4
v -7 1 -7
v 0 1 -7
v -6 2 -0
v -1 2 -0
v -6 2 -1
v -1 2 -1
v -6 2 -2
v -1 2 -2
v -6 2 -4
v -1 2 -4
v 1 2 -5
v 3 2 -5
v 1 2 -6
v 3 2 -6
v 0 3 7
v 4 3 7
v 6 3 7
v 0 3 3
v 4 3 3
v 6 3 3
v -7 3 1
v 0 3 1
v -6 3 -0
v -1 3 -0
v -7 3 -1
v -6 3 -1
v -1 3 -1
v 0 3 -1
v 0 3 -4
v 4 3 -4
v 1 3 -5
v 3 3 -5
v 1 3 -6
v 3 3 -6
v 0 3 -7
v 4 3 -7
v 6 4 7
v 7 4 7
v 6 4 3
v 7 4 3
v -6 5 -6
v -1 5 -6
v 1 5 -6
v 2 5 -6
v -6 5 -7
v -1 5 -7
v 1 5 -7
v 2 5 -7
v -7 6 7
v -2 6 7
v -7 6 5
v -2 6 5
v 4 6 -4
v 7 6 -4
v 4 6 -7
v 7 6 -7
v -8 8 8
v 8 8 8
v -7 8 7
v 7 8 7
v -7 8 -7
v 7 8 -7
v -8 8 -8
v 8 8 -8

# faces
f 3/8/1 2/8/1 1/8/1
f 4/8/1 2/8/1 3/8/1
f 5/2/1 4/2/1 3/2/1
f 6/2/1 4/2/1 5/2/1
f 9/3/1 8/3/1 7/3/1
f 10/3/1 8/3/1 9/3/1
f 13/9/1 12/9/1 11/9/1
f 14/9/1 12/9/1 13/9/1
f 17/4/1 16/4/1 15/4/1
f 18/4/1 16/4/1 17/4/1
f 23/5/1 20/5/1 19/5/1
f 24/5/1 20/5/1 23/5/1
f 25/1/1 24/1/1 23/1/1
f 26/1/1 24/1/1 25/1/1
f 27/6/1 22/6/1 21/6/1
f 28/6/1 22/6/1 27/6/1
f 31/5/1 30/5/1 29/5/1
f 32/5/1 30/5/1 31/5/1
f 35/6/1 34/6/1 33/6/1
f 36/6/1 34/6/1 35/6/1
f 39/6/1 38/6/1 37/6/1
f 40/6/1 38/6/1 39/6/1
f 43/3/1 42/3/1 41/3/1
f 44/3/1 42/3/1 43/3/1
f 48/2/1 46/2/1 45/2/1
f 49/2/1 46/2/1 48/2/1
f 49/2/1 48/2/1 47/2/1
f 51/2/1 49/2/1 47/2/1
f 51/2/1 50/2/1 49/2/1
f 52/2/1 50/2/1 51/2/1
f 53/2/2 54/2/2 57/2/2
f 55/2/2 56/2/2 58/2/2
f 53/2/2 57/2/2 60/2/2
f 57/2/2 58/2/2 60/2/2
f 59/2/2 60/2/2 61/2/2
f 58/2/2 56/2/2 62/2/2
f 61/2/2 60/2/2 62/2/2
f 60/2/2 58/2/2 62/2/2
f 63/4/2 64/4/2 65/4/2
f 65/4/2 64/4/2 66/4/2
f 67/3/2 68/3/2 69/3/2
f 69/3/2 68/3/2 70/3/2
f 71/3/2 72/3/2 73/3/2
f 73/3/2 72/3/2 74/3/2
f 75/9/2 76/9/2 77/9/2
f 77/9/2 76/9/2 78/9/2
f 79/4/2 80/4/2 81/4/2
f 81/4/2 80/4/2 82/4/2
f 83/6/2 84/6/2 85/6/2
f 85/6/2 84/6/2 86/6/2
f 87/5/2 88/5/2 89/5/2
f 89/5/2 88/5/2 90/5/2
f 91/8/2 92/8/2 93/8/2
f 93/8/2 92/8/2 94/8/2
f 93/2/2 94/2/2 95/2/2
f 95/2/2 94/2/2 96/2/2
f 100/8/3 98/8/3 97/8/3
f 101/2/3 99/2/3 98/2/3
f 101/8/3 98/8/3 100/8/3
f 102/2/3 99/2/3 101/2/3
f 105/4/3 104/4/3 103/4/3
f 106/4/3 104/4/3 105/4/3
f 109/3/3 108/3/3 107/3/3
f 110/3/3 108/3/3 109/3/3
f 113/6/3 112/6/3 111/6/3
f 115/6/3 113/6/3 111/6/3
f 115/6/3 114/6/3 113/6/3
f 116/6/3 114/6/3 115/6/3
f 119/9/3 118/9/3 117/9/3
f 120/9/3 118/9/3 119/9/3
f 125/5/3 124/5/3 123/5/3
f 126/5/3 124/5/3 125/5/3
f 127/6/3 122/6/3 121/6/3
f 128/6/3 122/6/3 127/6/3
f 131/2/3 130/2/3 129/2/3
f 132/2/3 130/2/3 131/2/3
f 133/2/3 131/2/3 129/2/3
f 134/2/3 130/2/3 132/2/3
f 135/2/3 133/2/3 129/2/3
f 135/2/3 134/2/3 133/2/3
f 136/2/3 134/2/3 135/2/3
f 137/2/3 134/2/3 136/2/3
f 138/2/3 130/2/3 134/2/3
f 138/2/3 134/2/3 137/2/3
f 139/2/3 137/2/3 136/2/3
f 140/2/3 130/2/3 138/2/3
f 141/2/3 139/2/3 136/2/3
f 141/2/3 140/2/3 139/2/3
f 142/2/3 130/2/3 140/2/3
f 142/2/3 140/2/3 141/2/3
f 143/2/3 130/2/3 142/2/3
f 144/2/3 130/2/3 143/2/3
f 145/2/4 146/2/4 148/2/4
f 147/2/4 148/2/4 149/2/4
f 149/2/4 148/2/4 150/2/4
f 150/2/4 148/2/4 151/2/4
f 151/2/4 148/2/4 152/2/4
f 152/2/4 148/2/4 153/2/4
f 153/2/4 148/2/4 154/2/4
f 154/2/4 148/2/4 155/2/4
f 148/2/4 146/2/4 156/2/4
f 155/2/4 148/2/4 156/2/4
f 157/3/4 158/3/4 159/3/4
f 159/3/4 158/3/4 160/3/4
f 161/5/4 162/5/4 164/5/4
f 162/1/4 163/1/4 164/1/4
f 164/1/4 163/1/4 165/1/4
f 161/5/4 164/5/4 166/5/4
f 164/6/4 165/6/4 167/6/4
f 166/5/4 164/5/4 167/5/4
f 167/6/4 165/6/4 168/6/4
f 167/3/4 168/3/4 170/3/4
f 168/3/4 169/3/4 170/3/4
f 166/3/4 167/3/4 170/3/4
f 170/3/4 169/3/4 171/3/4
f 172/4/4 173/4/4 174/4/4
f 174/4/4 173/4/4 175/4/4
f 176/4/4 177/4/4 178/4/4
f 178/4/4 177/4/4 179/4/4
f 176/4/4 178/4/4 180/4/4
f 176/4/4 180/4/4 182/4/4
f 180/4/4 181/4/4 182/4/4
f 182/4/4 181/4/4 183/4/4
f 184/3/4 185/3/4 186/3/4
f 186/3/4 185/3/4 187/3/4
f 188/6/4 189/6/4 190/6/4
f 190/6/4 189/6/4 191/6/4
f 192/8/4 193/8/4 195/8/4
f 193/2/4 194/2/4 196/2/4
f 195/8/4 193/8/4 196/8/4
f 196/2/4 194/2/4 197/2/4
f 200/8/5 199/8/5 198/8/5
f 201/8/5 199/8/5 200/8/5
f 204/9/5 203/9/5 202/9/5
f 205/9/5 203/9/5 204/9/5
f 208/5/5 207/5/5 206/5/5
f 209/5/5 207/5/5 208/5/5
f 210/8/6 211/8/6 213/8/6
f 213/8/6 211/8/6 214/8/6
f 212/8/6 213/8/6 214/8/6
f 212/8/6 214/8/6 217/8/6
f 215/8/6 216/8/6 217/8/6
f 214/8/6 215/8/6 217/8/6
f 217/8/6 216/8/6 218/8/6
f 218/8/6 216/8/6 220/8/6
f 219/8/6 220/8/6 221/8/6
f 221/8/6 220/8/6 222/8/6
f 219/8/6 221/8/6 223/8/6
f 222/8/6 220/8/6 224/8/6
f 220/8/6 216/8/6 225/8/6
f 224/8/6 220/8/6 225/8/6
f 225/8/6 216/8/6 226/8/6
f 223/8/6 224/8/6 227/8/6
f 219/8/6 223/8/6 227/8/6
f 224/8/6 225/8/6 227/8/6
f 227/8/6 225/8/6 228/8/6
f 229/4/6 230/4/6 231/4/6
f 231/4/6 230/4/6 232/4/6
f 233/3/6 234/3/6 235/3/6
f 235/3/6 234/3/6 236/3/6
f 237/6/6 238/6/6 239/6/6
f 239/6/6 238/6/6 240/6/6
f 241/1/6 242/1/6 244/1/6
f 242/6/6 243/6/6 245/6/6
f 244/1/6 242/1/6 245/1/6
f 245/6/6 243/6/6 246/6/6
f 247/4/6 248/4/6 249/4/6
f 249/4/6 248/4/6 250/4/6
f 247/4/6 249/4/6 251/4/6
f 251/4/6 249/4/6 252/4/6
f 250/4/6 248/4/6 253/4/6
f 253/4/6 248/4/6 254/4/6
f 255/6/6 256/6/6 257/6/6
f 257/6/6 256/6/6 258/6/6
f 255/6/6 257/6/6 259/6/6
f 258/6/6 256/6/6 260/6/6
f 255/6/6 259/6/6 261/6/6
f 259/6/6 260/6/6 261/6/6
f 260/6/6 256/6/6 262/6/6
f 261/6/6 260/6/6 262/6/6
f 263/3/6 264/3/6 265/3/6
f 265/3/6 264/3/6 266/3/6
f 267/9/6 268/9/6 271/9/6
f 271/9/6 268/9/6 272/9/6
f 269/5/6 270/5/6 273/5/6
f 273/5/6 270/5/6 274/5/6
f 275/3/6 276/3/6 277/3/6
f 277/3/6 276/3/6 278/3/6
f 279/6/6 280/6/6 281/6/6
f 281/6/6 280/6/6 282/6/6
f 283/2/6 284/2/6 285/2/6
f 285/2/6 284/2/6 286/2/6
f 283/2/6 285/2/6 287/2/6
f 286/2/6 284/2/6 288/2/6
f 283/2/6 287/2/6 289/2/6
f 287/2/6 288/2/6 289/2/6
f 288/2/6 284/2/6 290/2/6
f 289/2/6 288/2/6 290/2/6
