# MagicaVoxel @ Ephtracy

# group
g towar-16

# material
mtllib towar-16.mtl
usemtl palette

# normals
vn -1 0 0
vn 1 0 0
vn 0 0 1
vn 0 0 -1
vn 0 -1 0
vn 0 1 0

# texcoords
vt 0.591797 0.5
vt 0.927734 0.5

# verts
v -8 0 8
v -8 0 -8
v -8 1 8
v -8 1 7
v -8 1 -7
v -8 1 -8
v -8 8 8
v -8 8 7
v -8 8 -7
v -8 8 -8
v 7 1 8
v 7 1 7
v 7 1 -7
v 7 1 -8
v 7 8 8
v 7 8 7
v 7 8 -7
v 7 8 -8
v -7 1 8
v -7 1 7
v -7 1 -7
v -7 1 -8
v -7 8 8
v -7 8 7
v -7 8 -7
v -7 8 -8
v 8 0 8
v 8 0 -8
v 8 1 8
v 8 1 7
v 8 1 -7
v 8 1 -8
v 8 8 8
v 8 8 7
v 8 8 -7
v 8 8 -8
v -8 0 8
v -8 1 8
v -8 8 8
v -7 1 8
v -7 8 8
v 7 1 8
v 7 8 8
v 8 0 8
v 8 1 8
v 8 8 8
v -8 1 -7
v -8 8 -7
v -7 1 -7
v -7 8 -7
v 7 1 -7
v 7 8 -7
v 8 1 -7
v 8 8 -7
v -8 1 7
v -8 8 7
v -7 1 7
v -7 8 7
v 7 1 7
v 7 8 7
v 8 1 7
v 8 8 7
v -8 0 -8
v -8 1 -8
v -8 8 -8
v -7 1 -8
v -7 8 -8
v 7 1 -8
v 7 8 -8
v 8 0 -8
v 8 1 -8
v 8 8 -8
v -8 0 8
v 8 0 8
v -8 0 -8
v 8 0 -8
v -7 1 8
v 7 1 8
v -8 1 7
v -7 1 7
v 7 1 7
v 8 1 7
v -8 1 -7
v -7 1 -7
v 7 1 -7
v 8 1 -7
v -7 1 -8
v 7 1 -8
v -8 8 8
v -7 8 8
v 7 8 8
v 8 8 8
v -8 8 7
v -7 8 7
v 7 8 7
v 8 8 7
v -8 8 -7
v -7 8 -7
v 7 8 -7
v 8 8 -7
v -8 8 -8
v -7 8 -8
v 7 8 -8
v 8 8 -8

# faces
f 3/1/1 2/1/1 1/1/1
f 4/1/1 2/1/1 3/1/1
f 5/1/1 2/1/1 4/1/1
f 6/1/1 2/1/1 5/1/1
f 7/2/1 4/2/1 3/2/1
f 8/2/1 4/2/1 7/2/1
f 9/2/1 6/2/1 5/2/1
f 10/2/1 6/2/1 9/2/1
f 15/2/1 12/2/1 11/2/1
f 16/2/1 12/2/1 15/2/1
f 17/2/1 14/2/1 13/2/1
f 18/2/1 14/2/1 17/2/1
f 19/2/2 20/2/2 23/2/2
f 23/2/2 20/2/2 24/2/2
f 21/2/2 22/2/2 25/2/2
f 25/2/2 22/2/2 26/2/2
f 27/1/2 28/1/2 29/1/2
f 29/1/2 28/1/2 30/1/2
f 30/1/2 28/1/2 31/1/2
f 31/1/2 28/1/2 32/1/2
f 29/2/2 30/2/2 33/2/2
f 33/2/2 30/2/2 34/2/2
f 31/2/2 32/2/2 35/2/2
f 35/2/2 32/2/2 36/2/2
f 40/1/3 38/1/3 37/1/3
f 40/2/3 39/2/3 38/2/3
f 41/2/3 39/2/3 40/2/3
f 42/1/3 40/1/3 37/1/3
f 44/1/3 42/1/3 37/1/3
f 45/2/3 43/2/3 42/2/3
f 45/1/3 42/1/3 44/1/3
f 46/2/3 43/2/3 45/2/3
f 49/2/3 48/2/3 47/2/3
f 50/2/3 48/2/3 49/2/3
f 53/2/3 52/2/3 51/2/3
f 54/2/3 52/2/3 53/2/3
f 55/2/4 56/2/4 57/2/4
f 57/2/4 56/2/4 58/2/4
f 59/2/4 60/2/4 61/2/4
f 61/2/4 60/2/4 62/2/4
f 63/1/4 64/1/4 66/1/4
f 64/2/4 65/2/4 66/2/4
f 66/2/4 65/2/4 67/2/4
f 63/1/4 66/1/4 68/1/4
f 63/1/4 68/1/4 70/1/4
f 68/2/4 69/2/4 71/2/4
f 70/1/4 68/1/4 71/1/4
f 71/2/4 69/2/4 72/2/4
f 75/1/5 74/1/5 73/1/5
f 76/1/5 74/1/5 75/1/5
f 77/1/6 78/1/6 80/1/6
f 80/1/6 78/1/6 81/1/6
f 79/1/6 80/1/6 83/1/6
f 81/1/6 82/1/6 83/1/6
f 80/1/6 81/1/6 83/1/6
f 83/1/6 82/1/6 84/1/6
f 84/1/6 82/1/6 85/1/6
f 85/1/6 82/1/6 86/1/6
f 84/1/6 85/1/6 87/1/6
f 87/1/6 85/1/6 88/1/6
f 89/2/6 90/2/6 93/2/6
f 93/2/6 90/2/6 94/2/6
f 91/2/6 92/2/6 95/2/6
f 95/2/6 92/2/6 96/2/6
f 97/2/6 98/2/6 101/2/6
f 101/2/6 98/2/6 102/2/6
f 99/2/6 100/2/6 103/2/6
f 103/2/6 100/2/6 104/2/6
