# MagicaVoxel @ Ephtracy

# group
g towar-1

# material
mtllib towar-1.mtl
usemtl palette

# normals
vn -1 0 0
vn 1 0 0
vn 0 0 1
vn 0 0 -1
vn 0 -1 0
vn 0 1 0

# texcoords
vt 0.220703 0.5
vt 0.310547 0.5
vt 0.439453 0.5
vt 0.970703 0.5

# verts
v -8 0 8
v -8 0 -8
v -8 1 8
v -8 1 -8
v -8 6 8
v -8 6 -8
v -6 1 2
v -6 1 -5
v -6 3 2
v -6 3 -5
v -3 1 1
v -3 1 -4
v -3 2 1
v -3 2 -4
v 0 1 -0
v 0 1 -3
v 0 2 -1
v 0 2 -2
v 0 3 -0
v 0 3 -1
v 0 3 -2
v 0 3 -3
v 1 2 -1
v 1 2 -2
v 1 3 -1
v 1 3 -2
v 7 1 7
v 7 1 1
v 7 1 -1
v 7 1 -7
v 7 5 1
v 7 5 -1
v 7 6 7
v 7 6 -7
v -7 1 7
v -7 1 -7
v -7 6 7
v -7 6 -7
v -5 2 1
v -5 2 -4
v -5 3 1
v -5 3 -4
v -4 1 2
v -4 1 -5
v -4 2 1
v -4 2 -4
v -4 3 2
v -4 3 1
v -4 3 -4
v -4 3 -5
v -1 1 1
v -1 1 -4
v -1 2 1
v -1 2 -4
v 2 1 -0
v 2 1 -3
v 2 3 -0
v 2 3 -3
v 8 0 8
v 8 0 -8
v 8 1 8
v 8 1 1
v 8 1 -1
v 8 1 -8
v 8 5 1
v 8 5 -1
v 8 6 8
v 8 6 -8
v -8 0 8
v -8 1 8
v -8 6 8
v 8 0 8
v 8 1 8
v 8 6 8
v -6 1 2
v -6 3 2
v -4 1 2
v -4 3 2
v -3 1 1
v -3 2 1
v -1 1 1
v -1 2 1
v 0 1 -0
v 0 3 -0
v 2 1 -0
v 2 3 -0
v 7 1 -1
v 7 5 -1
v 8 1 -1
v 8 5 -1
v 0 2 -2
v 0 3 -2
v 1 2 -2
v 1 3 -2
v -5 2 -4
v -5 3 -4
v -4 2 -4
v -4 3 -4
v -7 1 -7
v -7 6 -7
v 7 1 -7
v 7 6 -7
v -7 1 7
v -7 6 7
v 7 1 7
v 7 6 7
v -5 2 1
v -5 3 1
v -4 2 1
v -4 3 1
v 7 1 1
v 7 5 1
v 8 1 1
v 8 5 1
v 0 2 -1
v 0 3 -1
v 1 2 -1
v 1 3 -1
v 0 1 -3
v 0 3 -3
v 2 1 -3
v 2 3 -3
v -3 1 -4
v -3 2 -4
v -1 1 -4
v -1 2 -4
v -6 1 -5
v -6 3 -5
v -4 1 -5
v -4 3 -5
v -8 0 -8
v -8 1 -8
v -8 6 -8
v 8 0 -8
v 8 1 -8
v 8 6 -8
v -8 0 8
v 8 0 8
v -8 0 -8
v 8 0 -8
v 7 5 1
v 8 5 1
v 7 5 -1
v 8 5 -1
v -7 1 7
v 7 1 7
v -6 1 2
v -4 1 2
v -3 1 1
v -1 1 1
v 7 1 1
v 8 1 1
v 0 1 -0
v 2 1 -0
v 7 1 -1
v 8 1 -1
v 0 1 -3
v 2 1 -3
v -3 1 -4
v -1 1 -4
v -6 1 -5
v -4 1 -5
v -7 1 -7
v 7 1 -7
v -5 2 1
v -4 2 1
v -3 2 1
v -1 2 1
v 0 2 -1
v 1 2 -1
v 0 2 -2
v 1 2 -2
v -5 2 -4
v -4 2 -4
v -3 2 -4
v -1 2 -4
v -6 3 2
v -4 3 2
v -5 3 1
v -4 3 1
v 0 3 -0
v 2 3 -0
v 0 3 -1
v 1 3 -1
v 0 3 -2
v 1 3 -2
v 0 3 -3
v 2 3 -3
v -5 3 -4
v -4 3 -4
v -6 3 -5
v -4 3 -5
v -8 6 8
v 8 6 8
v -7 6 7
v 7 6 7
v -7 6 -7
v 7 6 -7
v -8 6 -8
v 8 6 -8

# faces
f 3/4/1 2/4/1 1/4/1
f 4/4/1 2/4/1 3/4/1
f 5/1/1 4/1/1 3/1/1
f 6/1/1 4/1/1 5/1/1
f 9/3/1 8/3/1 7/3/1
f 10/3/1 8/3/1 9/3/1
f 13/2/1 12/2/1 11/2/1
f 14/2/1 12/2/1 13/2/1
f 17/3/1 16/3/1 15/3/1
f 18/3/1 16/3/1 17/3/1
f 19/3/1 17/3/1 15/3/1
f 20/3/1 17/3/1 19/3/1
f 21/3/1 16/3/1 18/3/1
f 22/3/1 16/3/1 21/3/1
f 25/3/1 24/3/1 23/3/1
f 26/3/1 24/3/1 25/3/1
f 31/1/1 28/1/1 27/1/1
f 32/1/1 30/1/1 29/1/1
f 33/1/1 31/1/1 27/1/1
f 33/1/1 32/1/1 31/1/1
f 34/1/1 30/1/1 32/1/1
f 34/1/1 32/1/1 33/1/1
f 35/1/2 36/1/2 37/1/2
f 37/1/2 36/1/2 38/1/2
f 39/3/2 40/3/2 41/3/2
f 41/3/2 40/3/2 42/3/2
f 43/3/2 44/3/2 45/3/2
f 45/3/2 44/3/2 46/3/2
f 43/3/2 45/3/2 47/3/2
f 47/3/2 45/3/2 48/3/2
f 46/3/2 44/3/2 49/3/2
f 49/3/2 44/3/2 50/3/2
f 51/2/2 52/2/2 53/2/2
f 53/2/2 52/2/2 54/2/2
f 55/3/2 56/3/2 57/3/2
f 57/3/2 56/3/2 58/3/2
f 59/4/2 60/4/2 61/4/2
f 61/4/2 60/4/2 62/4/2
f 62/4/2 60/4/2 63/4/2
f 63/4/2 60/4/2 64/4/2
f 61/1/2 62/1/2 65/1/2
f 63/1/2 64/1/2 66/1/2
f 61/1/2 65/1/2 67/1/2
f 65/1/2 66/1/2 67/1/2
f 66/1/2 64/1/2 68/1/2
f 67/1/2 66/1/2 68/1/2
f 72/4/3 70/4/3 69/4/3
f 73/1/3 71/1/3 70/1/3
f 73/4/3 70/4/3 72/4/3
f 74/1/3 71/1/3 73/1/3
f 77/3/3 76/3/3 75/3/3
f 78/3/3 76/3/3 77/3/3
f 81/2/3 80/2/3 79/2/3
f 82/2/3 80/2/3 81/2/3
f 85/3/3 84/3/3 83/3/3
f 86/3/3 84/3/3 85/3/3
f 89/1/3 88/1/3 87/1/3
f 90/1/3 88/1/3 89/1/3
f 93/3/3 92/3/3 91/3/3
f 94/3/3 92/3/3 93/3/3
f 97/3/3 96/3/3 95/3/3
f 98/3/3 96/3/3 97/3/3
f 101/1/3 100/1/3 99/1/3
f 102/1/3 100/1/3 101/1/3
f 103/1/4 104/1/4 105/1/4
f 105/1/4 104/1/4 106/1/4
f 107/3/4 108/3/4 109/3/4
f 109/3/4 108/3/4 110/3/4
f 111/1/4 112/1/4 113/1/4
f 113/1/4 112/1/4 114/1/4
f 115/3/4 116/3/4 117/3/4
f 117/3/4 116/3/4 118/3/4
f 119/3/4 120/3/4 121/3/4
f 121/3/4 120/3/4 122/3/4
f 123/2/4 124/2/4 125/2/4
f 125/2/4 124/2/4 126/2/4
f 127/3/4 128/3/4 129/3/4
f 129/3/4 128/3/4 130/3/4
f 131/4/4 132/4/4 134/4/4
f 132/1/4 133/1/4 135/1/4
f 134/4/4 132/4/4 135/4/4
f 135/1/4 133/1/4 136/1/4
f 139/4/5 138/4/5 137/4/5
f 140/4/5 138/4/5 139/4/5
f 143/1/5 142/1/5 141/1/5
f 144/1/5 142/1/5 143/1/5
f 145/4/6 146/4/6 147/4/6
f 147/4/6 146/4/6 148/4/6
f 148/4/6 146/4/6 149/4/6
f 149/4/6 146/4/6 150/4/6
f 150/4/6 146/4/6 151/4/6
f 151/4/6 152/4/6 153/4/6
f 150/4/6 151/4/6 153/4/6
f 153/4/6 152/4/6 154/4/6
f 154/4/6 152/4/6 155/4/6
f 155/4/6 152/4/6 156/4/6
f 150/4/6 153/4/6 157/4/6
f 154/4/6 155/4/6 158/4/6
f 148/4/6 149/4/6 159/4/6
f 157/4/6 158/4/6 160/4/6
f 150/4/6 157/4/6 160/4/6
f 145/4/6 147/4/6 161/4/6
f 159/4/6 160/4/6 162/4/6
f 148/4/6 159/4/6 162/4/6
f 145/4/6 161/4/6 163/4/6
f 161/4/6 162/4/6 163/4/6
f 162/4/6 160/4/6 164/4/6
f 163/4/6 162/4/6 164/4/6
f 160/4/6 158/4/6 164/4/6
f 158/4/6 155/4/6 164/4/6
f 169/3/6 170/3/6 171/3/6
f 171/3/6 170/3/6 172/3/6
f 165/3/6 166/3/6 173/3/6
f 173/3/6 166/3/6 174/3/6
f 167/2/6 168/2/6 175/2/6
f 175/2/6 168/2/6 176/2/6
f 177/3/6 178/3/6 179/3/6
f 179/3/6 178/3/6 180/3/6
f 181/3/6 182/3/6 183/3/6
f 183/3/6 182/3/6 184/3/6
f 184/3/6 182/3/6 186/3/6
f 185/3/6 186/3/6 187/3/6
f 186/3/6 182/3/6 188/3/6
f 187/3/6 186/3/6 188/3/6
f 177/3/6 179/3/6 189/3/6
f 177/3/6 189/3/6 191/3/6
f 189/3/6 190/3/6 191/3/6
f 191/3/6 190/3/6 192/3/6
f 193/1/6 194/1/6 195/1/6
f 195/1/6 194/1/6 196/1/6
f 193/1/6 195/1/6 197/1/6
f 196/1/6 194/1/6 198/1/6
f 193/1/6 197/1/6 199/1/6
f 197/1/6 198/1/6 199/1/6
f 198/1/6 194/1/6 200/1/6
f 199/1/6 198/1/6 200/1/6
