# MagicaVoxel @ Ephtracy

# group
g towar-32

# material
mtllib towar-32.mtl
usemtl palette

# normals
vn -1 0 0
vn 1 0 0
vn 0 0 1
vn 0 0 -1
vn 0 -1 0
vn 0 1 0

# texcoords
vt 0.591797 0.5
vt 0.748047 0.5
vt 0.927734 0.5

# verts
v -8 0 8
v -8 0 -8
v -8 1 8
v -8 1 -8
v -8 2 4
v -8 2 1
v -8 2 -1
v -8 2 -4
v -8 6 4
v -8 6 3
v -8 6 2
v -8 6 1
v -8 6 -1
v -8 6 -2
v -8 6 -3
v -8 6 -4
v -8 7 3
v -8 7 2
v -8 7 -2
v -8 7 -3
v -8 8 8
v -8 8 -8
v -4 1 -5
v -4 1 -6
v -4 2 -5
v -4 2 -6
v -4 6 -5
v -4 6 -6
v -4 7 -5
v -4 7 -6
v -3 7 -5
v -3 7 -6
v -3 8 -5
v -3 8 -6
v -2 6 -5
v -2 6 -7
v -2 7 -5
v -2 7 -7
v -1 2 -6
v -1 2 -7
v -1 6 -6
v -1 6 -7
v 1 1 -5
v 1 1 -6
v 1 2 -5
v 1 2 -6
v 1 6 -5
v 1 6 -6
v 1 7 -5
v 1 7 -6
v 2 7 -5
v 2 7 -6
v 2 8 -5
v 2 8 -6
v 3 6 -5
v 3 6 -7
v 3 7 -5
v 3 7 -7
v 4 2 -6
v 4 2 -7
v 4 6 -6
v 4 6 -7
v 5 1 -5
v 5 1 -6
v 5 8 -5
v 5 8 -6
v 7 1 8
v 7 1 7
v 7 8 8
v 7 8 7
v -7 1 8
v -7 1 7
v -7 2 4
v -7 2 1
v -7 2 -1
v -7 2 -4
v -7 6 4
v -7 6 3
v -7 6 2
v -7 6 1
v -7 6 -1
v -7 6 -2
v -7 6 -3
v -7 6 -4
v -7 7 3
v -7 7 2
v -7 7 -2
v -7 7 -3
v -7 8 8
v -7 8 7
v -6 1 7
v -6 1 6
v -6 1 5
v -6 1 4
v -6 1 1
v -6 1 -1
v -6 1 -4
v -6 1 -5
v -6 2 4
v -6 2 1
v -6 2 -1
v -6 2 -4
v -6 6 4
v -6 6 1
v -6 6 -1
v -6 6 -4
v -6 7 4
v -6 7 3
v -6 7 2
v -6 7 1
v -6 7 -1
v -6 7 -2
v -6 7 -3
v -6 7 -4
v -6 8 7
v -6 8 6
v -6 8 5
v -6 8 3
v -6 8 2
v -6 8 -2
v -6 8 -3
v -6 8 -5
v -5 1 6
v -5 1 5
v -5 1 4
v -5 1 1
v -5 1 -1
v -5 1 -4
v -5 1 -5
v -5 1 -6
v -5 2 4
v -5 2 1
v -5 2 -1
v -5 2 -4
v -5 6 4
v -5 6 3
v -5 6 2
v -5 6 1
v -5 6 -1
v -5 6 -2
v -5 6 -3
v -5 6 -4
v -5 7 4
v -5 7 3
v -5 7 2
v -5 7 1
v -5 7 -1
v -5 7 -2
v -5 7 -3
v -5 7 -4
v -5 8 6
v -5 8 5
v -5 8 3
v -5 8 2
v -5 8 -2
v -5 8 -3
v -5 8 -5
v -5 8 -6
v -4 2 -6
v -4 2 -7
v -4 6 -6
v -4 6 -7
v -3 6 -5
v -3 6 -7
v -3 7 -5
v -3 7 -7
v -2 7 -5
v -2 7 -6
v -2 8 -5
v -2 8 -6
v -1 1 -5
v -1 1 -6
v -1 2 -5
v -1 2 -6
v -1 6 -5
v -1 6 -6
v -1 7 -5
v -1 7 -6
v 1 2 -6
v 1 2 -7
v 1 6 -6
v 1 6 -7
v 2 6 -5
v 2 6 -7
v 2 7 -5
v 2 7 -7
v 3 7 -5
v 3 7 -6
v 3 8 -5
v 3 8 -6
v 4 1 -5
v 4 1 -6
v 4 2 -5
v 4 2 -6
v 4 6 -5
v 4 6 -6
v 4 7 -5
v 4 7 -6
v 6 1 -5
v 6 1 -6
v 6 8 -5
v 6 8 -6
v 7 1 -6
v 7 1 -7
v 7 8 -6
v 7 8 -7
v 8 0 8
v 8 0 -8
v 8 1 8
v 8 1 7
v 8 1 -7
v 8 1 -8
v 8 8 8
v 8 8 7
v 8 8 -7
v 8 8 -8
v -8 0 8
v -8 1 8
v -8 8 8
v -7 1 8
v -7 8 8
v 7 1 8
v 7 8 8
v 8 0 8
v 8 1 8
v 8 8 8
v -7 1 7
v -7 8 7
v -6 1 7
v -6 8 7
v -6 1 6
v -6 8 6
v -5 1 6
v -5 8 6
v -6 1 4
v -6 2 4
v -6 6 4
v -6 7 4
v -5 1 4
v -5 2 4
v -5 6 4
v -5 7 4
v -6 7 3
v -6 8 3
v -5 7 3
v -5 8 3
v -7 6 2
v -7 7 2
v -5 6 2
v -5 7 2
v -7 2 1
v -7 6 1
v -6 2 1
v -6 6 1
v -6 1 -1
v -6 2 -1
v -6 6 -1
v -6 7 -1
v -5 1 -1
v -5 2 -1
v -5 6 -1
v -5 7 -1
v -6 7 -2
v -6 8 -2
v -5 7 -2
v -5 8 -2
v -7 6 -3
v -7 7 -3
v -5 6 -3
v -5 7 -3
v -7 2 -4
v -7 6 -4
v -6 2 -4
v -6 6 -4
v -6 1 -5
v -6 8 -5
v -5 1 -5
v -5 8 -5
v -4 1 -5
v -4 2 -5
v -4 6 -5
v -4 7 -5
v -3 6 -5
v -3 7 -5
v -3 8 -5
v -2 6 -5
v -2 7 -5
v -2 8 -5
v -1 1 -5
v -1 2 -5
v -1 6 -5
v -1 7 -5
v 1 1 -5
v 1 2 -5
v 1 6 -5
v 1 7 -5
v 2 6 -5
v 2 7 -5
v 2 8 -5
v 3 6 -5
v 3 7 -5
v 3 8 -5
v 4 1 -5
v 4 2 -5
v 4 6 -5
v 4 7 -5
v 5 1 -5
v 5 8 -5
v 6 1 -5
v 6 8 -5
v -5 1 -6
v -5 8 -6
v -4 1 -6
v -4 2 -6
v -4 6 -6
v -4 7 -6
v -3 7 -6
v -3 8 -6
v -2 7 -6
v -2 8 -6
v -1 1 -6
v -1 2 -6
v -1 6 -6
v -1 7 -6
v 1 1 -6
v 1 2 -6
v 1 6 -6
v 1 7 -6
v 2 7 -6
v 2 8 -6
v 3 7 -6
v 3 8 -6
v 4 1 -6
v 4 2 -6
v 4 6 -6
v 4 7 -6
v 5 1 -6
v 5 8 -6
v 6 1 -6
v 6 8 -6
v 7 1 -6
v 7 8 -6
v -4 2 -7
v -4 6 -7
v -3 6 -7
v -3 7 -7
v -2 6 -7
v -2 7 -7
v -1 2 -7
v -1 6 -7
v 1 2 -7
v 1 6 -7
v 2 6 -7
v 2 7 -7
v 3 6 -7
v 3 7 -7
v 4 2 -7
v 4 6 -7
v 7 1 -7
v 7 8 -7
v 8 1 -7
v 8 8 -7
v 7 1 7
v 7 8 7
v 8 1 7
v 8 8 7
v -6 1 5
v -6 8 5
v -5 1 5
v -5 8 5
v -7 2 4
v -7 6 4
v -6 2 4
v -6 6 4
v -7 6 3
v -7 7 3
v -5 6 3
v -5 7 3
v -6 7 2
v -6 8 2
v -5 7 2
v -5 8 2
v -6 1 1
v -6 2 1
v -6 6 1
v -6 7 1
v -5 1 1
v -5 2 1
v -5 6 1
v -5 7 1
v -7 2 -1
v -7 6 -1
v -6 2 -1
v -6 6 -1
v -7 6 -2
v -7 7 -2
v -5 6 -2
v -5 7 -2
v -6 7 -3
v -6 8 -3
v -5 7 -3
v -5 8 -3
v -6 1 -4
v -6 2 -4
v -6 6 -4
v -6 7 -4
v -5 1 -4
v -5 2 -4
v -5 6 -4
v -5 7 -4
v -8 0 -8
v -8 1 -8
v -8 8 -8
v -4 2 -8
v -4 6 -8
v -3 6 -8
v -3 7 -8
v -2 6 -8
v -2 7 -8
v -1 2 -8
v -1 6 -8
v 1 2 -8
v 1 6 -8
v 2 6 -8
v 2 7 -8
v 3 6 -8
v 3 7 -8
v 4 2 -8
v 4 6 -8
v 8 0 -8
v 8 1 -8
v 8 8 -8
v -8 0 8
v 8 0 8
v -8 0 -8
v 8 0 -8
v -7 6 4
v -6 6 4
v -5 6 4
v -7 6 3
v -5 6 3
v -7 6 2
v -5 6 2
v -7 6 1
v -6 6 1
v -5 6 1
v -7 6 -1
v -6 6 -1
v -5 6 -1
v -7 6 -2
v -5 6 -2
v -7 6 -3
v -5 6 -3
v -7 6 -4
v -6 6 -4
v -5 6 -4
v -4 6 -5
v -3 6 -5
v -2 6 -5
v -1 6 -5
v 1 6 -5
v 2 6 -5
v 3 6 -5
v 4 6 -5
v -4 6 -6
v -1 6 -6
v 1 6 -6
v 4 6 -6
v -4 6 -7
v -3 6 -7
v -2 6 -7
v -1 6 -7
v 1 6 -7
v 2 6 -7
v 3 6 -7
v 4 6 -7
v -7 7 3
v -5 7 3
v -7 7 2
v -5 7 2
v -7 7 -2
v -5 7 -2
v -7 7 -3
v -5 7 -3
v -3 7 -5
v -2 7 -5
v 2 7 -5
v 3 7 -5
v -3 7 -7
v -2 7 -7
v 2 7 -7
v 3 7 -7
v -7 1 8
v 7 1 8
v -7 1 7
v -6 1 7
v 7 1 7
v 8 1 7
v -6 1 6
v -5 1 6
v -6 1 5
v -5 1 5
v -6 1 4
v -5 1 4
v -6 1 1
v -5 1 1
v -6 1 -1
v -5 1 -1
v -6 1 -4
v -5 1 -4
v -6 1 -5
v -5 1 -5
v -4 1 -5
v -1 1 -5
v 1 1 -5
v 4 1 -5
v 5 1 -5
v 6 1 -5
v -5 1 -6
v -4 1 -6
v -1 1 -6
v 1 1 -6
v 4 1 -6
v 5 1 -6
v 6 1 -6
v 7 1 -6
v 7 1 -7
v 8 1 -7
v -7 2 4
v -6 2 4
v -5 2 4
v -7 2 1
v -6 2 1
v -5 2 1
v -7 2 -1
v -6 2 -1
v -5 2 -1
v -7 2 -4
v -6 2 -4
v -5 2 -4
v -4 2 -5
v -1 2 -5
v 1 2 -5
v 4 2 -5
v -4 2 -6
v -1 2 -6
v 1 2 -6
v 4 2 -6
v -4 2 -7
v -1 2 -7
v 1 2 -7
v 4 2 -7
v -6 7 4
v -5 7 4
v -6 7 3
v -5 7 3
v -6 7 2
v -5 7 2
v -6 7 1
v -5 7 1
v -6 7 -1
v -5 7 -1
v -6 7 -2
v -5 7 -2
v -6 7 -3
v -5 7 -3
v -6 7 -4
v -5 7 -4
v -4 7 -5
v -3 7 -5
v -2 7 -5
v -1 7 -5
v 1 7 -5
v 2 7 -5
v 3 7 -5
v 4 7 -5
v -4 7 -6
v -3 7 -6
v -2 7 -6
v -1 7 -6
v 1 7 -6
v 2 7 -6
v 3 7 -6
v 4 7 -6
v -8 8 8
v -7 8 8
v 7 8 8
v 8 8 8
v -7 8 7
v -6 8 7
v 7 8 7
v 8 8 7
v -6 8 6
v -5 8 6
v -6 8 5
v -5 8 5
v -6 8 3
v -5 8 3
v -6 8 2
v -5 8 2
v -6 8 -2
v -5 8 -2
v -6 8 -3
v -5 8 -3
v -6 8 -5
v -5 8 -5
v -3 8 -5
v -2 8 -5
v 2 8 -5
v 3 8 -5
v 5 8 -5
v 6 8 -5
v -5 8 -6
v -3 8 -6
v -2 8 -6
v 2 8 -6
v 3 8 -6
v 5 8 -6
v 6 8 -6
v 7 8 -6
v 7 8 -7
v 8 8 -7
v -8 8 -8
v 8 8 -8

# faces
f 3/1/1 2/1/1 1/1/1
f 4/1/1 2/1/1 3/1/1
f 5/3/1 4/3/1 3/3/1
f 6/3/1 4/3/1 5/3/1
f 7/3/1 4/3/1 6/3/1
f 8/3/1 4/3/1 7/3/1
f 9/3/1 5/3/1 3/3/1
f 9/2/1 6/2/1 5/2/1
f 10/2/1 6/2/1 9/2/1
f 11/2/1 6/2/1 10/2/1
f 12/3/1 7/3/1 6/3/1
f 12/2/1 6/2/1 11/2/1
f 13/2/1 8/2/1 7/2/1
f 13/3/1 7/3/1 12/3/1
f 14/2/1 8/2/1 13/2/1
f 15/2/1 8/2/1 14/2/1
f 16/3/1 4/3/1 8/3/1
f 16/2/1 8/2/1 15/2/1
f 17/2/1 11/2/1 10/2/1
f 17/3/1 10/3/1 9/3/1
f 18/3/1 12/3/1 11/3/1
f 18/2/1 11/2/1 17/2/1
f 18/3/1 13/3/1 12/3/1
f 18/3/1 14/3/1 13/3/1
f 19/2/1 15/2/1 14/2/1
f 19/3/1 14/3/1 18/3/1
f 20/3/1 16/3/1 15/3/1
f 20/2/1 15/2/1 19/2/1
f 21/3/1 18/3/1 17/3/1
f 21/3/1 17/3/1 9/3/1
f 21/3/1 20/3/1 19/3/1
f 21/3/1 19/3/1 18/3/1
f 21/3/1 9/3/1 3/3/1
f 22/3/1 16/3/1 20/3/1
f 22/3/1 20/3/1 21/3/1
f 22/3/1 4/3/1 16/3/1
f 25/3/1 24/3/1 23/3/1
f 26/3/1 24/3/1 25/3/1
f 29/3/1 28/3/1 27/3/1
f 30/3/1 28/3/1 29/3/1
f 33/3/1 32/3/1 31/3/1
f 34/3/1 32/3/1 33/3/1
f 37/3/1 36/3/1 35/3/1
f 38/3/1 36/3/1 37/3/1
f 41/3/1 40/3/1 39/3/1
f 42/3/1 40/3/1 41/3/1
f 45/3/1 44/3/1 43/3/1
f 46/3/1 44/3/1 45/3/1
f 49/3/1 48/3/1 47/3/1
f 50/3/1 48/3/1 49/3/1
f 53/3/1 52/3/1 51/3/1
f 54/3/1 52/3/1 53/3/1
f 57/3/1 56/3/1 55/3/1
f 58/3/1 56/3/1 57/3/1
f 61/3/1 60/3/1 59/3/1
f 62/3/1 60/3/1 61/3/1
f 65/3/1 64/3/1 63/3/1
f 66/3/1 64/3/1 65/3/1
f 69/3/1 68/3/1 67/3/1
f 70/3/1 68/3/1 69/3/1
f 73/2/2 74/2/2 77/2/2
f 77/2/2 74/2/2 78/2/2
f 78/2/2 74/2/2 79/2/2
f 79/2/2 74/2/2 80/2/2
f 75/2/2 76/2/2 81/2/2
f 81/2/2 76/2/2 82/2/2
f 82/2/2 76/2/2 83/2/2
f 83/2/2 76/2/2 84/2/2
f 78/2/2 79/2/2 85/2/2
f 85/2/2 79/2/2 86/2/2
f 82/2/2 83/2/2 87/2/2
f 87/2/2 83/2/2 88/2/2
f 71/3/2 72/3/2 89/3/2
f 89/3/2 72/3/2 90/3/2
f 93/3/2 94/3/2 99/3/2
f 95/3/2 96/3/2 100/3/2
f 100/3/2 96/3/2 101/3/2
f 97/3/2 98/3/2 102/3/2
f 93/3/2 99/3/2 103/3/2
f 100/3/2 101/3/2 104/3/2
f 104/3/2 101/3/2 105/3/2
f 102/3/2 98/3/2 106/3/2
f 93/3/2 103/3/2 107/3/2
f 104/3/2 105/3/2 110/3/2
f 110/3/2 105/3/2 111/3/2
f 106/3/2 98/3/2 114/3/2
f 91/3/2 92/3/2 115/3/2
f 115/3/2 92/3/2 116/3/2
f 107/3/2 108/3/2 117/3/2
f 93/3/2 107/3/2 117/3/2
f 117/3/2 108/3/2 118/3/2
f 111/3/2 112/3/2 119/3/2
f 109/3/2 110/3/2 119/3/2
f 110/3/2 111/3/2 119/3/2
f 119/3/2 112/3/2 120/3/2
f 113/3/2 114/3/2 121/3/2
f 114/3/2 98/3/2 122/3/2
f 121/3/2 114/3/2 122/3/2
f 125/3/2 126/3/2 131/3/2
f 131/3/2 126/3/2 132/3/2
f 127/3/2 128/3/2 133/3/2
f 133/3/2 128/3/2 134/3/2
f 135/3/2 136/3/2 143/3/2
f 143/3/2 136/3/2 144/3/2
f 137/3/2 138/3/2 145/3/2
f 145/3/2 138/3/2 146/3/2
f 139/3/2 140/3/2 147/3/2
f 147/3/2 140/3/2 148/3/2
f 141/3/2 142/3/2 149/3/2
f 149/3/2 142/3/2 150/3/2
f 123/3/2 124/3/2 151/3/2
f 151/3/2 124/3/2 152/3/2
f 144/3/2 145/3/2 153/3/2
f 153/3/2 145/3/2 154/3/2
f 148/3/2 149/3/2 155/3/2
f 155/3/2 149/3/2 156/3/2
f 129/3/2 130/3/2 157/3/2
f 157/3/2 130/3/2 158/3/2
f 159/3/2 160/3/2 161/3/2
f 161/3/2 160/3/2 162/3/2
f 163/3/2 164/3/2 165/3/2
f 165/3/2 164/3/2 166/3/2
f 167/3/2 168/3/2 169/3/2
f 169/3/2 168/3/2 170/3/2
f 171/3/2 172/3/2 173/3/2
f 173/3/2 172/3/2 174/3/2
f 175/3/2 176/3/2 177/3/2
f 177/3/2 176/3/2 178/3/2
f 179/3/2 180/3/2 181/3/2
f 181/3/2 180/3/2 182/3/2
f 183/3/2 184/3/2 185/3/2
f 185/3/2 184/3/2 186/3/2
f 187/3/2 188/3/2 189/3/2
f 189/3/2 188/3/2 190/3/2
f 191/3/2 192/3/2 193/3/2
f 193/3/2 192/3/2 194/3/2
f 195/3/2 196/3/2 197/3/2
f 197/3/2 196/3/2 198/3/2
f 199/3/2 200/3/2 201/3/2
f 201/3/2 200/3/2 202/3/2
f 203/3/2 204/3/2 205/3/2
f 205/3/2 204/3/2 206/3/2
f 207/1/2 208/1/2 209/1/2
f 209/1/2 208/1/2 210/1/2
f 210/1/2 208/1/2 211/1/2
f 211/1/2 208/1/2 212/1/2
f 209/3/2 210/3/2 213/3/2
f 213/3/2 210/3/2 214/3/2
f 211/3/2 212/3/2 215/3/2
f 215/3/2 212/3/2 216/3/2
f 220/1/3 218/1/3 217/1/3
f 220/3/3 219/3/3 218/3/3
f 221/3/3 219/3/3 220/3/3
f 222/1/3 220/1/3 217/1/3
f 224/1/3 222/1/3 217/1/3
f 225/3/3 223/3/3 222/3/3
f 225/1/3 222/1/3 224/1/3
f 226/3/3 223/3/3 225/3/3
f 229/3/3 228/3/3 227/3/3
f 230/3/3 228/3/3 229/3/3
f 233/3/3 232/3/3 231/3/3
f 234/3/3 232/3/3 233/3/3
f 239/3/3 236/3/3 235/3/3
f 240/3/3 236/3/3 239/3/3
f 241/3/3 238/3/3 237/3/3
f 242/3/3 238/3/3 241/3/3
f 245/3/3 244/3/3 243/3/3
f 246/3/3 244/3/3 245/3/3
f 249/3/3 248/3/3 247/3/3
f 250/3/3 248/3/3 249/3/3
f 253/3/3 252/3/3 251/3/3
f 254/3/3 252/3/3 253/3/3
f 259/3/3 256/3/3 255/3/3
f 260/3/3 256/3/3 259/3/3
f 261/3/3 258/3/3 257/3/3
f 262/3/3 258/3/3 261/3/3
f 265/3/3 264/3/3 263/3/3
f 266/3/3 264/3/3 265/3/3
f 269/3/3 268/3/3 267/3/3
f 270/3/3 268/3/3 269/3/3
f 273/3/3 272/3/3 271/3/3
f 274/3/3 272/3/3 273/3/3
f 277/3/3 276/3/3 275/3/3
f 278/3/3 276/3/3 277/3/3
f 283/3/3 282/3/3 281/3/3
f 284/3/3 282/3/3 283/3/3
f 287/3/3 285/3/3 284/3/3
f 288/3/3 285/3/3 287/3/3
f 289/3/3 280/3/3 279/3/3
f 290/3/3 280/3/3 289/3/3
f 291/3/3 287/3/3 286/3/3
f 292/3/3 287/3/3 291/3/3
f 297/3/3 296/3/3 295/3/3
f 298/3/3 296/3/3 297/3/3
f 301/3/3 299/3/3 298/3/3
f 302/3/3 299/3/3 301/3/3
f 303/3/3 294/3/3 293/3/3
f 304/3/3 294/3/3 303/3/3
f 305/3/3 301/3/3 300/3/3
f 306/3/3 301/3/3 305/3/3
f 309/3/3 308/3/3 307/3/3
f 310/3/3 308/3/3 309/3/3
f 313/3/3 312/3/3 311/3/3
f 314/3/3 312/3/3 313/3/3
f 315/3/3 312/3/3 314/3/3
f 316/3/3 312/3/3 315/3/3
f 317/3/3 312/3/3 316/3/3
f 318/3/3 312/3/3 317/3/3
f 324/3/3 320/3/3 319/3/3
f 325/3/3 323/3/3 322/3/3
f 325/3/3 324/3/3 323/3/3
f 325/3/3 322/3/3 321/3/3
f 326/3/3 324/3/3 325/3/3
f 327/3/3 324/3/3 326/3/3
f 328/3/3 320/3/3 324/3/3
f 328/3/3 324/3/3 327/3/3
f 329/3/3 320/3/3 328/3/3
f 330/3/3 320/3/3 329/3/3
f 336/3/3 332/3/3 331/3/3
f 337/3/3 335/3/3 334/3/3
f 337/3/3 336/3/3 335/3/3
f 337/3/3 334/3/3 333/3/3
f 338/3/3 332/3/3 336/3/3
f 338/3/3 336/3/3 337/3/3
f 341/3/3 340/3/3 339/3/3
f 342/3/3 340/3/3 341/3/3
f 345/2/3 344/2/3 343/2/3
f 347/2/3 345/2/3 343/2/3
f 347/2/3 346/2/3 345/2/3
f 348/2/3 346/2/3 347/2/3
f 349/2/3 347/2/3 343/2/3
f 350/2/3 347/2/3 349/2/3
f 353/2/3 352/2/3 351/2/3
f 355/2/3 353/2/3 351/2/3
f 355/2/3 354/2/3 353/2/3
f 356/2/3 354/2/3 355/2/3
f 357/2/3 355/2/3 351/2/3
f 358/2/3 355/2/3 357/2/3
f 361/3/3 360/3/3 359/3/3
f 362/3/3 360/3/3 361/3/3
f 363/3/4 364/3/4 365/3/4
f 365/3/4 364/3/4 366/3/4
f 367/3/4 368/3/4 369/3/4
f 369/3/4 368/3/4 370/3/4
f 371/3/4 372/3/4 373/3/4
f 373/3/4 372/3/4 374/3/4
f 375/3/4 376/3/4 377/3/4
f 377/3/4 376/3/4 378/3/4
f 379/3/4 380/3/4 381/3/4
f 381/3/4 380/3/4 382/3/4
f 383/3/4 384/3/4 387/3/4
f 387/3/4 384/3/4 388/3/4
f 385/3/4 386/3/4 389/3/4
f 389/3/4 386/3/4 390/3/4
f 391/3/4 392/3/4 393/3/4
f 393/3/4 392/3/4 394/3/4
f 395/3/4 396/3/4 397/3/4
f 397/3/4 396/3/4 398/3/4
f 399/3/4 400/3/4 401/3/4
f 401/3/4 400/3/4 402/3/4
f 403/3/4 404/3/4 407/3/4
f 407/3/4 404/3/4 408/3/4
f 405/3/4 406/3/4 409/3/4
f 409/3/4 406/3/4 410/3/4
f 412/3/4 413/3/4 414/3/4
f 414/3/4 413/3/4 415/3/4
f 414/2/4 415/2/4 416/2/4
f 415/3/4 413/3/4 416/3/4
f 416/3/4 413/3/4 417/3/4
f 414/2/4 416/2/4 418/2/4
f 416/2/4 417/2/4 418/2/4
f 417/3/4 413/3/4 419/3/4
f 418/2/4 417/2/4 419/2/4
f 412/3/4 414/3/4 420/3/4
f 414/2/4 418/2/4 420/2/4
f 418/3/4 419/3/4 421/3/4
f 420/2/4 418/2/4 421/2/4
f 412/3/4 420/3/4 422/3/4
f 420/3/4 421/3/4 422/3/4
f 421/3/4 419/3/4 423/3/4
f 422/3/4 421/3/4 423/3/4
f 422/2/4 423/2/4 424/2/4
f 423/3/4 419/3/4 424/3/4
f 419/3/4 413/3/4 425/3/4
f 424/3/4 419/3/4 425/3/4
f 422/2/4 424/2/4 426/2/4
f 424/2/4 425/2/4 426/2/4
f 425/3/4 413/3/4 427/3/4
f 426/2/4 425/2/4 427/2/4
f 422/2/4 426/2/4 428/2/4
f 412/3/4 422/3/4 428/3/4
f 426/3/4 427/3/4 429/3/4
f 428/2/4 426/2/4 429/2/4
f 411/1/4 412/1/4 430/1/4
f 412/3/4 428/3/4 431/3/4
f 430/1/4 412/1/4 431/1/4
f 428/3/4 429/3/4 431/3/4
f 429/3/4 427/3/4 432/3/4
f 431/3/4 429/3/4 432/3/4
f 427/3/4 413/3/4 432/3/4
f 435/1/5 434/1/5 433/1/5
f 436/1/5 434/1/5 435/1/5
f 440/3/5 438/3/5 437/3/5
f 440/3/5 439/3/5 438/3/5
f 441/3/5 439/3/5 440/3/5
f 444/3/5 443/3/5 442/3/5
f 445/3/5 443/3/5 444/3/5
f 446/3/5 443/3/5 445/3/5
f 450/3/5 448/3/5 447/3/5
f 450/3/5 449/3/5 448/3/5
f 451/3/5 449/3/5 450/3/5
f 454/3/5 453/3/5 452/3/5
f 455/3/5 453/3/5 454/3/5
f 456/3/5 453/3/5 455/3/5
f 465/3/5 458/3/5 457/3/5
f 466/3/5 460/3/5 459/3/5
f 467/3/5 462/3/5 461/3/5
f 468/3/5 464/3/5 463/3/5
f 469/3/5 458/3/5 465/3/5
f 470/3/5 458/3/5 469/3/5
f 471/3/5 466/3/5 459/3/5
f 472/3/5 466/3/5 471/3/5
f 473/3/5 462/3/5 467/3/5
f 474/3/5 462/3/5 473/3/5
f 475/3/5 468/3/5 463/3/5
f 476/3/5 468/3/5 475/3/5
f 479/3/5 478/3/5 477/3/5
f 480/3/5 478/3/5 479/3/5
f 483/3/5 482/3/5 481/3/5
f 484/3/5 482/3/5 483/3/5
f 489/3/5 486/3/5 485/3/5
f 490/3/5 486/3/5 489/3/5
f 491/3/5 488/3/5 487/3/5
f 492/3/5 488/3/5 491/3/5
f 493/1/6 494/1/6 495/1/6
f 495/1/6 494/1/6 496/1/6
f 496/1/6 494/1/6 497/1/6
f 497/1/6 498/1/6 499/1/6
f 496/1/6 497/1/6 499/1/6
f 499/1/6 498/1/6 500/1/6
f 500/1/6 498/1/6 502/1/6
f 501/1/6 502/1/6 503/1/6
f 502/1/6 498/1/6 504/1/6
f 503/1/6 502/1/6 504/1/6
f 504/1/6 498/1/6 506/1/6
f 505/1/6 506/1/6 507/1/6
f 506/1/6 498/1/6 508/1/6
f 507/1/6 506/1/6 508/1/6
f 508/1/6 498/1/6 510/1/6
f 509/1/6 510/1/6 511/1/6
f 510/1/6 498/1/6 512/1/6
f 511/1/6 510/1/6 512/1/6
f 512/1/6 498/1/6 513/1/6
f 513/1/6 498/1/6 514/1/6
f 514/1/6 498/1/6 515/1/6
f 515/1/6 498/1/6 516/1/6
f 516/1/6 498/1/6 517/1/6
f 517/1/6 498/1/6 518/1/6
f 512/1/6 513/1/6 519/1/6
f 519/1/6 513/1/6 520/1/6
f 514/1/6 515/1/6 521/1/6
f 521/1/6 515/1/6 522/1/6
f 516/1/6 517/1/6 523/1/6
f 523/1/6 517/1/6 524/1/6
f 518/1/6 498/1/6 525/1/6
f 525/1/6 498/1/6 526/1/6
f 526/1/6 498/1/6 527/1/6
f 527/1/6 498/1/6 528/1/6
f 529/3/6 530/3/6 532/3/6
f 530/3/6 531/3/6 532/3/6
f 532/3/6 531/3/6 533/3/6
f 533/3/6 531/3/6 534/3/6
f 535/3/6 536/3/6 538/3/6
f 536/3/6 537/3/6 538/3/6
f 538/3/6 537/3/6 539/3/6
f 539/3/6 537/3/6 540/3/6
f 541/3/6 542/3/6 545/3/6
f 545/3/6 542/3/6 546/3/6
f 543/3/6 544/3/6 547/3/6
f 547/3/6 544/3/6 548/3/6
f 545/3/6 546/3/6 549/3/6
f 549/3/6 546/3/6 550/3/6
f 547/3/6 548/3/6 551/3/6
f 551/3/6 548/3/6 552/3/6
f 553/3/6 554/3/6 555/3/6
f 555/3/6 554/3/6 556/3/6
f 557/3/6 558/3/6 559/3/6
f 559/3/6 558/3/6 560/3/6
f 561/3/6 562/3/6 563/3/6
f 563/3/6 562/3/6 564/3/6
f 565/3/6 566/3/6 567/3/6
f 567/3/6 566/3/6 568/3/6
f 569/3/6 570/3/6 577/3/6
f 577/3/6 570/3/6 578/3/6
f 571/3/6 572/3/6 579/3/6
f 579/3/6 572/3/6 580/3/6
f 573/3/6 574/3/6 581/3/6
f 581/3/6 574/3/6 582/3/6
f 575/3/6 576/3/6 583/3/6
f 583/3/6 576/3/6 584/3/6
f 585/3/6 586/3/6 589/3/6
f 587/3/6 588/3/6 591/3/6
f 591/3/6 588/3/6 592/3/6
f 589/3/6 590/3/6 593/3/6
f 589/3/6 593/3/6 595/3/6
f 593/3/6 594/3/6 595/3/6
f 595/3/6 594/3/6 596/3/6
f 589/3/6 595/3/6 597/3/6
f 589/3/6 597/3/6 599/3/6
f 597/3/6 598/3/6 599/3/6
f 599/3/6 598/3/6 600/3/6
f 589/3/6 599/3/6 601/3/6
f 589/3/6 601/3/6 603/3/6
f 601/3/6 602/3/6 603/3/6
f 603/3/6 602/3/6 604/3/6
f 589/3/6 603/3/6 605/3/6
f 605/3/6 606/3/6 613/3/6
f 607/3/6 608/3/6 614/3/6
f 614/3/6 608/3/6 615/3/6
f 609/3/6 610/3/6 616/3/6
f 616/3/6 610/3/6 617/3/6
f 611/3/6 612/3/6 618/3/6
f 618/3/6 612/3/6 619/3/6
f 616/3/6 617/3/6 621/3/6
f 619/3/6 620/3/6 621/3/6
f 618/3/6 619/3/6 621/3/6
f 617/3/6 618/3/6 621/3/6
f 614/3/6 615/3/6 621/3/6
f 615/3/6 616/3/6 621/3/6
f 613/3/6 614/3/6 621/3/6
f 585/3/6 589/3/6 623/3/6
f 621/3/6 622/3/6 623/3/6
f 613/3/6 621/3/6 623/3/6
f 589/3/6 605/3/6 623/3/6
f 605/3/6 613/3/6 623/3/6
f 623/3/6 622/3/6 624/3/6
